<svg width="189" height="56" fill="none" xmlns="http://www.w3.org/2000/svg"><path d="M182.276 56H6.621A6.636 6.636 0 0 1 0 49.374V6.616A6.626 6.626 0 0 1 6.62 0h175.656C185.924 0 189 2.968 189 6.616v42.758c0 3.647-3.076 6.626-6.724 6.626Z" fill="#25282D"/><path d="M187.645 49.375a5.359 5.359 0 0 1-3.314 4.956 5.361 5.361 0 0 1-2.054.406H6.621a5.37 5.37 0 0 1-5.375-5.362V6.615a5.376 5.376 0 0 1 5.375-5.369h175.655a5.364 5.364 0 0 1 5.367 5.37l.002 42.76Z" fill="#25282D"/><path d="M42.18 27.698c-.041-4.512 3.694-6.708 3.865-6.81-2.116-3.084-5.395-3.506-6.547-3.54-2.754-.289-5.425 1.649-6.828 1.649-1.43 0-3.59-1.62-5.919-1.573-2.996.047-5.799 1.781-7.336 4.475-3.172 5.492-.806 13.563 2.233 18.002 1.52 2.175 3.297 4.602 5.623 4.517 2.275-.094 3.124-1.45 5.87-1.45 2.72 0 3.518 1.45 5.89 1.395 2.441-.039 3.978-2.184 5.446-4.377 1.757-2.492 2.462-4.947 2.49-5.073-.057-.02-4.742-1.807-4.788-7.215Zm-4.48-13.27c1.223-1.53 2.06-3.612 1.828-5.724-1.771.078-3.986 1.225-5.262 2.721-1.128 1.32-2.136 3.48-1.876 5.514 1.99.148 4.032-1.004 5.31-2.51Z" fill="#fff"/><path fill-rule="evenodd" clip-rule="evenodd" d="M67.189 17.734c.987-.833 1.481-2.074 1.481-3.721 0-1.467-.458-2.595-1.37-3.383-.815-.697-2.024-1.046-3.627-1.046-.907 0-1.747.065-2.527.19v9.004c.598.073 1.312.11 2.147.11 1.682 0 2.982-.386 3.896-1.154Zm-.914-6.14c.565.572.848 1.391.848 2.46 0 1.195-.308 2.105-.918 2.73-.61.624-1.477.936-2.6.936-.48 0-.81-.013-.991-.04v-6.845a6.21 6.21 0 0 1 1.181-.096c1.088 0 1.914.286 2.48.856ZM76.003 17.95c.58-.651.87-1.483.87-2.498 0-.986-.282-1.792-.842-2.416-.59-.643-1.368-.964-2.336-.964-1.006 0-1.804.327-2.397.978-.594.65-.89 1.49-.89 2.511 0 .977.288 1.788.862 2.43.575.645 1.347.965 2.315.965 1.006 0 1.81-.334 2.418-1.005Zm-1.046-4.017c.262.435.394.957.394 1.566 0 .61-.136 1.136-.408 1.58-.316.536-.756.803-1.316.803-.57 0-1.013-.263-1.331-.79-.262-.435-.393-.957-.393-1.566 0-.627.13-1.158.393-1.593.308-.527.756-.79 1.345-.79.57 0 1.008.263 1.316.79Z" fill="#fff"/><path d="m85.806 18.806 2.065-6.598h-1.44l-.801 3.083a20.76 20.76 0 0 0-.448 2.173h-.041a25.266 25.266 0 0 0-.53-2.173l-.897-3.083H82.52l-.937 3.15c-.255.85-.435 1.553-.544 2.104h-.027a34.545 34.545 0 0 0-.448-2.118l-.746-3.137h-1.508l1.942 6.6h1.36l.908-2.866c.227-.698.404-1.41.53-2.133h.027c.14.72.318 1.431.53 2.133l.856 2.865h1.344ZM94.01 18.806h1.467v-3.953c0-.97-.253-1.698-.76-2.187-.407-.4-.92-.598-1.536-.598a2.48 2.48 0 0 0-1.33.371 2.12 2.12 0 0 0-.76.797h-.04l-.07-1.032h-1.289c.035.68.054 1.309.054 1.888v4.713h1.467V14.89a1.704 1.704 0 0 1 .407-1.13 1.324 1.324 0 0 1 1.06-.48c.888 0 1.33.582 1.33 1.746v3.78ZM98.057 18.806h1.466V9.178h-1.466v9.628Z" fill="#fff"/><path fill-rule="evenodd" clip-rule="evenodd" d="M107.292 17.95c.579-.651.869-1.483.869-2.498 0-.986-.281-1.792-.841-2.416-.591-.643-1.368-.964-2.338-.964-1.004 0-1.802.327-2.396.978-.593.65-.889 1.49-.889 2.511 0 .977.287 1.788.861 2.43.574.645 1.346.965 2.316.965 1.004 0 1.81-.334 2.418-1.005Zm-1.047-4.017c.261.435.393.957.393 1.566 0 .61-.134 1.136-.407 1.58-.317.536-.755.803-1.315.803-.571 0-1.014-.263-1.331-.79-.262-.435-.394-.957-.394-1.566 0-.627.13-1.158.394-1.593.306-.527.754-.79 1.345-.79.568 0 1.008.263 1.315.79ZM113.945 18.806h1.317c-.063-.389-.095-.914-.095-1.573v-2.43c0-1.82-.865-2.73-2.59-2.73-.893 0-1.651.19-2.264.57l.298.962c.496-.325 1.07-.488 1.721-.488.914 0 1.37.434 1.37 1.303v.123c-1.222-.01-2.171.2-2.846.625-.676.425-1.012 1.04-1.012 1.846a1.862 1.862 0 0 0 .517 1.344c.379.398.883.598 1.506.598.834 0 1.477-.304 1.928-.91h.04l.11.76Zm-.206-3.286v1.018a1.254 1.254 0 0 1-.532 1.04 1.485 1.485 0 0 1-.898.304 1.025 1.025 0 0 1-.716-.257c-.189-.172-.282-.43-.282-.774 0-.915.809-1.358 2.428-1.33ZM122.297 18.806h1.302a27.793 27.793 0 0 1-.052-1.778v-7.85h-1.468v3.789h-.028c-.353-.598-.973-.896-1.86-.896-.806 0-1.484.308-2.037.924-.571.66-.855 1.526-.855 2.594 0 .995.262 1.806.787 2.43.525.625 1.187.937 1.982.937.996 0 1.704-.403 2.12-1.21h.04l.069 1.06Zm-.218-3.883v1.1c0 .47-.139.874-.422 1.208-.292.363-.677.543-1.159.543-.536 0-.965-.216-1.282-.65-.301-.408-.451-.937-.451-1.59 0-.679.158-1.234.47-1.67.315-.435.744-.652 1.291-.652.361-.007.711.121.981.36a1.668 1.668 0 0 1 .572 1.35ZM135.278 17.95c.579-.651.869-1.483.869-2.498 0-.986-.281-1.792-.841-2.416-.588-.643-1.368-.964-2.335-.964-1.007 0-1.805.327-2.399.978-.593.65-.889 1.49-.889 2.511 0 .977.287 1.788.861 2.43.577.645 1.349.965 2.316.965 1.007 0 1.81-.334 2.418-1.005Zm-1.045-4.017c.262.435.394.957.394 1.566 0 .61-.137 1.136-.408 1.58-.316.536-.757.803-1.317.803-.571 0-1.014-.263-1.331-.79-.262-.435-.394-.957-.394-1.566 0-.627.13-1.158.394-1.593.309-.527.757-.79 1.345-.79.571 0 1.008.263 1.317.79Z" fill="#fff"/><path d="M142.57 18.806h1.466v-3.953c0-.97-.252-1.698-.76-2.187-.407-.4-.92-.598-1.534-.598-.489 0-.933.125-1.332.371-.318.195-.58.47-.76.797h-.041l-.068-1.032h-1.288c.035.68.052 1.309.052 1.888v4.713h1.468V14.89c0-.432.136-.81.408-1.13.271-.321.623-.48 1.058-.48.889 0 1.331.582 1.331 1.746v3.78ZM152.295 13.306h1.614v-1.1h-1.616v-1.643l-1.437.434v1.21h-.965v1.099h.965v3.328c0 .832.162 1.426.49 1.779.326.353.777.53 1.356.53.469 0 .85-.056 1.14-.165l-.038-1.113a2.586 2.586 0 0 1-.654.069c-.568 0-.855-.408-.855-1.222v-3.206ZM160.209 18.806h1.469v-3.924c0-.977-.25-1.716-.747-2.213-.399-.4-.901-.598-1.509-.598-.858 0-1.52.361-1.982 1.085h-.028V9.178h-1.466v9.627h1.466v-3.97c-.003-.178.02-.355.068-.527.255-.686.72-1.029 1.4-1.029.887 0 1.329.592 1.329 1.775v3.752Z" fill="#fff"/><path fill-rule="evenodd" clip-rule="evenodd" d="M169.635 15.86a3.54 3.54 0 0 0 .055-.666c0-.823-.195-1.516-.588-2.076-.487-.706-1.208-1.058-2.158-1.058-.97 0-1.738.352-2.307 1.058-.544.66-.815 1.49-.815 2.485 0 1.014.29 1.821.875 2.423.583.602 1.388.904 2.41.904.852 0 1.589-.136 2.215-.408l-.23-1.02a4.86 4.86 0 0 1-1.779.313c-.588 0-1.069-.154-1.441-.462-.407-.344-.617-.841-.637-1.494h4.4Zm-1.629-2.172c.205.338.304.731.284 1.127h-3.055c.036-.414.187-.809.435-1.141a1.402 1.402 0 0 1 1.168-.598c.525 0 .913.204 1.168.612ZM71.924 44.106h3.179l-6.027-18.632h-3.704l-5.998 18.632h3.095l1.66-5.473h6.053l1.742 5.473Zm-3.842-12.634 1.575 4.865h-5.002l1.547-4.865c.31-1.166.605-2.336.885-3.51h.056c.46 1.843.772 3.013.939 3.51ZM88.675 42.64c1.234-1.326 1.852-3.132 1.852-5.417 0-2.045-.53-3.694-1.59-4.949-1.059-1.253-2.382-1.879-3.967-1.879-2.027 0-3.538.801-4.533 2.406h-.056l-.167-2.13H77.59a92.03 92.03 0 0 1 .111 4.423V49.58h2.985v-7.077h.056c.774 1.27 2.045 1.906 3.815 1.906 1.64 0 3.013-.589 4.119-1.77ZM86.6 34.098c.591.849.885 1.927.885 3.234 0 1.42-.314 2.562-.94 3.429-.627.865-1.502 1.3-2.626 1.3-.957 0-1.736-.337-2.335-1.01-.6-.674-.899-1.498-.899-2.475v-2.24c0-.238.046-.54.139-.91.183-.793.575-1.433 1.174-1.923.598-.485 1.267-.732 2.004-.732 1.086 0 1.953.443 2.598 1.327ZM104.125 42.64c1.236-1.326 1.854-3.132 1.854-5.417 0-2.045-.531-3.694-1.588-4.949-1.061-1.253-2.384-1.879-3.968-1.879-2.028 0-3.539.801-4.533 2.406h-.056l-.166-2.13h-2.625a92.03 92.03 0 0 1 .11 4.423V49.58h2.985v-7.077h.056c.773 1.27 2.044 1.906 3.814 1.906 1.639 0 3.012-.589 4.117-1.77Zm-2.073-8.542c.59.849.886 1.927.886 3.234 0 1.42-.314 2.562-.941 3.429-.626.865-1.501 1.3-2.625 1.3-.96 0-1.739-.338-2.338-1.01-.596-.674-.896-1.498-.896-2.475v-2.24c0-.238.048-.54.139-.91.183-.793.574-1.433 1.173-1.923a3.108 3.108 0 0 1 2.005-.732c1.087 0 1.951.443 2.597 1.327Z" fill="#fff"/><path d="M121.6 42.75c1.104-.995 1.655-2.284 1.655-3.87 0-1.287-.377-2.367-1.132-3.229-.757-.865-1.934-1.62-3.537-2.265-1.311-.517-2.214-.996-2.711-1.438-.571-.479-.855-1.088-.855-1.824a2.206 2.206 0 0 1 .746-1.687c.588-.515 1.408-.774 2.458-.774 1.329 0 2.516.285 3.566.856l.746-2.433c-1.124-.59-2.532-.885-4.228-.885-1.901 0-3.421.489-4.561 1.468-1.144.977-1.715 2.233-1.715 3.764 0 2.344 1.63 4.126 4.892 5.343 1.198.443 2.056.924 2.57 1.44.517.517.774 1.154.774 1.91 0 .848-.312 1.529-.938 2.035-.628.507-1.503.762-2.627.762a8.18 8.18 0 0 1-4.315-1.19l-.692 2.488c1.217.774 2.824 1.16 4.829 1.16 2.171 0 3.861-.543 5.075-1.63ZM129.833 32.911h3.29v-2.243h-3.29v-3.344l-2.931.885v2.46h-1.96v2.24h1.96v6.771c0 1.696.333 2.902.995 3.622.665.718 1.586 1.078 2.765 1.078.959 0 1.733-.11 2.321-.33l-.082-2.267c-.35.092-.793.139-1.326.139-1.162 0-1.742-.83-1.742-2.488V32.91Z" fill="#fff"/><path fill-rule="evenodd" clip-rule="evenodd" d="M146.198 42.364c1.179-1.326 1.769-3.021 1.769-5.086 0-2.01-.571-3.649-1.716-4.918-1.197-1.31-2.783-1.963-4.754-1.963-2.046 0-3.673.663-4.878 1.99-1.208 1.326-1.81 3.032-1.81 5.113 0 1.99.585 3.64 1.755 4.948 1.171 1.308 2.74 1.961 4.711 1.961 2.046 0 3.687-.68 4.923-2.045Zm-2.128-8.177c.536.886.801 1.948.801 3.187 0 1.238-.278 2.312-.828 3.215-.645 1.089-1.54 1.635-2.679 1.635-1.164 0-2.065-.535-2.711-1.607-.536-.885-.801-1.948-.801-3.187 0-1.276.265-2.356.801-3.243.626-1.071 1.537-1.608 2.737-1.608 1.159 0 2.054.535 2.68 1.608Z" fill="#fff"/><path d="M156.729 33.214c.315-.002.63.026.94.082V30.45a4.786 4.786 0 0 0-.746-.055 3.608 3.608 0 0 0-2.157.72c-.681.533-1.178 1.245-1.493 2.128h-.082l-.109-2.57h-2.6c.074 1.27.112 2.68.112 4.229l-.028 9.204h2.983v-7.05c0-1.068.249-1.952.746-2.652.572-.794 1.384-1.19 2.434-1.19Z" fill="#fff"/><path fill-rule="evenodd" clip-rule="evenodd" d="M170.909 38.107c.08-.447.117-.9.109-1.354 0-1.676-.396-3.087-1.184-4.228-.995-1.437-2.461-2.155-4.397-2.155-1.972 0-3.538.718-4.697 2.155-1.108 1.345-1.661 3.032-1.661 5.058 0 2.064.595 3.709 1.782 4.934 1.19 1.225 2.826 1.838 4.909 1.838 1.732 0 3.232-.276 4.504-.83l-.468-2.072c-1.088.424-2.297.635-3.623.635-1.199 0-2.174-.313-2.929-.94-.832-.7-1.264-1.714-1.299-3.041h8.954Zm-3.316-4.423c.404.645.599 1.41.579 2.295l-6.217-.002c.091-.901.386-1.676.883-2.321.606-.812 1.4-1.217 2.376-1.217 1.068 0 1.862.415 2.379 1.245Z" fill="#fff"/></svg>