<svg xmlns="http://www.w3.org/2000/svg" width="96" height="96" xml:space="preserve"><g fill="#25282D"><path d="M18.3 62.7s0-.1-.1-.2c0-.1-.1-.2-.1-.4l-.3-.7c0-.1-.1-.3-.2-.4l-.3-.3c0-.1-.1-.2-.1-.2-.2-.1-.3-.3-.4-.6 0-.1 0-.2-.1-.2-.1-.1-.2-.3-.2-.5l-.3-.6c-.1-.1-.1-.2-.2-.4-.2-.2-.3-.5-.4-.7-.1-.2-.2-.5-.3-.7l-.2-.4-.3-.6v-.1L14 54c0-.1-.1-.1-.1-.2-.1.2-.2.4-.2.6-.1.4-.2.7-.3.8v.1l-.5.9c-.1.1-.2.2-.2.3l-.3.5c0 .1-.1.2-.2.3-.2.3-.3.6-.3.9v.5c-.1.2-.2.4-.4.6-.2.2-.4.3-.5.6 0 .1-.1.2-.2.3l-.2.3c-.1.2-.2.4-.3.5-.1.2-.1.3.1.6.2.2.2.1.2.1.1-.1.2-.1.3-.2 0-.1.1-.1.1-.2l.2-.4.3-.6c.1-.2.3-.4.4-.6l.2-.2.5-.8c.1-.2.2-.5.4-.7.1-.1.1-.2.2-.4 0-.3.1-.6.3-.9 0-.1.1-.1.1-.2-.1 1.3-.1 2.5 0 3.8.2.9.2 1.9 0 2.8-.2.9-.2 1.7 0 2.6.1.5.1.9 0 1.4-.1.5-.1 1.1.1 1.6 0 .1.1.2.1.2 0 .1.2.2.4.2.2-.1.3-.2.3-.4 0-.1 0-.2-.1-.3 0-.2-.1-.4-.1-.6v-4.3c0-1.9.1-4.7.1-6.7.1.2.2.3.1.5v.1l.1.1.5.8.3.5c.1.2.2.3.3.5.1.1.2.3.3.5l.1.6v.1c.2.1.2.2.3.4.1.1.1.1 0 .1 0 0 .1.2.2.3.1.1.2.1.2.2.1.1.1.3.2.4.1.1 0 .1 0 .1-.1.3.1.7.3.9l.1.1c.1.1.2.2.4.2h.2c.2 0 .3-.1.5-.2.1.1.1 0 .2 0 0 0 .1-.3 0-.4l-.4.1zM29.6 66.8c0-.3-.1-.6-.3-.8l-.3-.6-.1-.1-.1-.3-.1-.2c-.1-.1-.2-.2-.2-.3l-.5-.8c-.1-.2-.3-.4-.5-.5-.2-.1-.3-.3-.3-.5 0-.4-.2-.7-.4-1-.1-.1-.1-.2-.2-.3-.3-.5-.6-1.1-.9-1.7l-.3-.5-.5 1-.2.3c-.1.2-.2.4-.3.5-.1.1-.4.5-.4.6-.1.1-.1.3-.2.4 0 .4-.3.7-.6 1-.2.2-.2.2-.3.5 0 .3-.1.5-.3.8-.1.1-.1.2-.2.3l-.2.3h-.1l-.1.4v.2c-.1.3-.3.7-.3 1 0 .2-.1.3 0 .4 0 .2.2.3.4.1.2-.2.3-.4.5-.6.2-.2.3-.5.5-.8l.3-.6.3-.3c.1-.2.2-.4.2-.6 0-.1 0-.2.1-.2.1-.1.2-.3.3-.4.1-.2.2-.3.3-.5v.5c.1.2 0 .4-.1.6-.1.2-.1.3 0 .5.1.3.1.6 0 .9 0 .1-.1.2 0 .3 0 .1.1.3.1.4v2.5c-.1.3 0 .6.1.9.1.2.1.3 0 .5s-.2.4-.2.5v.7c0 .1 0 .2-.1.3v1.1c0 .2 0 .5.1.7v.2c0 .3.1.7.2 1 .1.2.3.2.5.1l.1-.1c.1-.3.1-.5.1-.8 0-.2-.1-.4-.1-.7v-.8c0-.2.1-.3.1-.5v-.7c.2-.3.3-.7.2-1.1v-.1c-.2-.3-.1-.7.1-1 .1-.3.2-.5.2-.8v-.2l-.1-.1c-.1-.1-.1-.3 0-.4.1-.1.1-.2.1-.3.1-.2.1-.4.1-.6v-.4c-.1-.2-.1-.4 0-.5 0-.2-.1-.5-.1-.7 0-.2-.1-.3-.3-.4 0-.1 0-.1.1-.2s.2-.3.1-.5c0-.1-.1-.2-.1-.3v-.8c.3.3.5.6.6 1v.2c.2.4.5.8.8 1.1l.1.1.3.6c.1.2.2.3.3.5.1.2.2.5.4.7.1.1.1.2.1.3.1.3.1.5.2.8.1.3.3.6.5.9l.1.1c.2.1.4-.2.4-.4 0-.4-.2-.9-.4-1.2.5-.4.5-.5.5-.6zM34.2 15.7l.6.3c.5.1 1 .3 1.5.6.4.1.8.4 1.3.3.1 0 .3 0 .4.1.6.2 1.2.4 1.8.5.5.2.9.4 1.5.4.2 0 .3.1.4.1l1.6.6c.4.1.9.3 1.3.3.2 0 .5.1.7.2.4.2.9.3 1.4.4.4.1.9.2 1.2.4.2.1.5.2.7.2.3 0 .5.1.8.2.2.1.4.2.6.2.2 0 .5.1.6 0 .1-.1-.1-.6-.2-.7l-.2-.2c-.1-.1-.2-.1-.3-.2-.2-.1-.4-.2-.6-.1-.2.1-.4 0-.5-.1-.2-.2-.4-.3-.7-.4-.2-.1-.5-.2-.7-.4-.1 0-.2-.1-.3-.1-.7 0-1.4-.2-2-.4-.4-.1-.7-.3-1.1-.4-.4-.1-.7-.2-1.1-.2-.6-.1-1.1-.3-1.7-.5-.2-.1-.5-.1-.7-.1-.3 0-.4-.3-.7-.3-.2 0-.3 0-.5-.1s-.4-.2-.6-.2c-.7-.2-1.4-.5-1.9-.6l-1.3-.5c-.4-.1-.9-.2-1.4-.1-.2 0-.2 0-.3.3-.1.2.1.4.4.5zM53 21.2c.3.1.5.3.8.4.1.1.3.1.4.1.4 0 .8.1 1.2.3.4.1.9.2 1.3.1.1 0 .1 0 .2-.1.2-.2.1-.6-.1-.8 0 0-.1-.1-.1-.2-.2-.3-.6-.4-1-.4s-.8-.1-1.2-.3l-.3-.1-.7-.1-.7-.1h-.3s-.1 0-.1.1c-.1.1-.1.3 0 .4.1.4.3.6.6.7z"/><path d="M90.9 34.8c0-2.4.3-9.2.4-11.5.1-1.1.1-2.2.1-3.2l-.8-1-1.5-.3-8-1.4c-1.1-.2-2.1-.6-3.2-.8-2-.4-4.1-.7-6.1-1.2-2.5-.6-5.1-1.4-7.6-2-1.3-.3-2.7-.3-3.9-.7-2.4-.7-4.8-1.5-7.2-2-1-.2-2.3-.5-3.7-.8l-2.1-.5-1-.3-.5-.1-.2-.1h-.4c-2.5.6-4.7 1.1-6.1 1.4-4 .8-12.1 3.1-16.3 3.6-.9.1-1.6.5-2.4.7-1.6.3-2.4.5-4 .9s-2.9 1.1-5 1.6c-1 .1-3.3.9-4.4 1.1l-1.4.3c-.8.2-2.3.6-1.8 1.1l.4.4c-.5-.3-.8.2-.7 1.5l.1 1.9c.4 2.2.7 4.6.9 6.6.2 2 .1 8.4 0 10.4 0 1.1-.2 2.2-.2 3.3-.1 3.1 0 10.8 0 13.9v2.3c.1 1.8.2 3.6.2 5.4 0 2.7-.1 5.4-.1 8.1l.3.6c1.3.5 2.6.9 3.9 1.2 2.9.7 9.8 3.3 12.6 4.3.9.3 1.7.7 2.6 1 2.2.7 4.4 1.7 6.7 2.2 2.1.6 4.1 1.3 6.1 2.3L48 89.7h.6L54 88c1.7-.4 3.4-1.1 5-1.9 2.1-1.3 8.8-3.6 11-4.6 1.2-.6 2.5-.9 3.7-1.4 2.9-1.2 5.9-2.2 8.9-3.4l7.2-2.7.3-.5v-1.3c0-1.9 0-3.9.1-5.9-.1-2 0-3.9.3-5.9.4-3.7.6-7.5.5-11.2 0-1.1-.2-3-.2-4.4 0-2.1-.1-4.1 0-6.2-.1-1.2.1-2.5.1-3.8zM40 84.7c-.3-.2-.7-.3-1-.4-.9-.3-1.8-.5-2.6-.8-1.7-.6-3.3-1.3-4.9-1.8-1.9-.6-3.8-1.2-5.6-1.8-3.4-1.2-10.9-4.4-14.5-5.2-1.9-.4-3.8-1-5.7-1.7v-1c0-3.7.2-7.3.2-10.9-.1-1.6-.1-3.2.1-4.8 0-1.4-.4-7.3-.4-8.7 0-2.3.1-4.6.1-6.9.1-2.1.1-8.5 0-10.6 0-1.5-.3-3.1-.4-4.7h.1v-3.1c0-.5-.1-1-.3-1.5 0 .2.1.2.1.2.5.1 1 .2 1.5.2.3 0 .5 0 .8.1 1 .3 2.1.7 3.1 1.1.1.1.3.1.4.1.9.2 1.8.5 2.8.6.3 0 .6.1.8.2 1.5.6 3 1 4.5 1.4.4.1.7.2 1 .3.6.3 1.2.4 1.8.6.8.1 1.5.2 2.3.3h.1c1 0 2 .1 2.9.5.3.1.6.2.9.2.3 0 .5 0 .8-.1.2-.1.2-.3.1-.5 0-.1-.1-.1-.2-.2-.4-.4-.9-.7-1.4-.8h-.6c-.6 0-1.2-.1-1.7-.4-.9-.6-2-.9-3.1-1-.9-.1-1.8-.3-2.6-.6-.3-.1-.7-.3-1-.4-.9-.2-1.8-.4-2.7-.4-.7-.1-1.5-.3-2.1-.7-.6-.4-1.2-.7-1.9-.9-1-.4-2-.8-3.1-1 1.6-.7 5-1.3 6.6-1.9 2.2-.8 4.5-1.4 6.8-1.9 1-.2 4.2-.9 6.5-1.4h.1c.2 0 .4.1.5.2.4.1.8.2 1.3.3.8.1 1.6.2 2.3.4h.6l.1-.1c0-.5-.2-.7-.9-.9-.1 0-.1-.1-.2-.1-.4 0-.8-.1-1.1-.3h-.1c.3 0 .6-.1.9-.2 1.7-.5 3.2-.8 5-1.2.3-.1.3 0 .8-.1 1.2-.3 2-.3 3.2-.6.6-.2 2.5-.7 4.3-1.1h.1l.6.1 1.1.2 1.4.4c2.5.5 5.1 1 7.6 1.6 4.2 1 8.3 2.2 12.4 3.3.7.2 1.3.4 2 .5l9.1 1.7c1.6.3 3.2.8 4.8 1.1.9.2 1.7.3 2.6.4-1.5.5-3 .9-4.5 1.4-3.1.9-6.3 1.7-9.5 2.6l-3.2.9c-.1-.1-.2-.1-.3-.2-.2-.1-.4-.2-.7-.2-.5 0-.9-.1-1.3-.3-.4-.2-.9-.3-1.3-.5-.1 0-.2-.1-.3-.1l-1.8-.3-1.5-.3h-.2c-.3-.2-.6-.3-.8-.4-.5-.3-1.1-.4-1.8-.4-.4 0-.9-.1-1.3-.2-.3-.1-.5-.1-.8-.1-.2 0-.4.1-.6.2 0 .1-.1.1 0 .2.2.4.7.6 1.1.6.4 0 .8.2 1.2.5.3.2.7.3 1 .5.2.1.5.1.7 0h.5c.3.1.6.1.9.2.5.1 1.1.3 1.6.5.4.2.9.4 1.4.5.6.1 1.1.4 1.6.5.1 0 .2.1.2.1l-18.1 5-.3.1h-.2l-.5.7-.2-.2c-.4-.2-.8-.4-1.3-.6-.4-.2-.9-.2-1.3-.1h-.6l-1.4.1c-.2 0-.5 0-.6-.2-.4-.2-.7-.4-1.1-.5-.5-.1-.9-.3-1.3-.6-.3-.2-.7-.4-1.1-.5-.3-.1-.7-.2-1-.4-.8-.4-1.7-.5-2.7-.4-.2 0-.5 0-.7-.1-.1 0-.2-.1-.3-.2-.4-.1-.8-.2-1.2-.2-.1 0-.2.1-.3.2v.4c.1.2.3.3.5.3l.8.1c.2 0 .4.1.5.1 1 .5 2.1.9 3.2 1.2.5.2 1 .2 1.5.2.6-.1 1.2 0 1.7.3.1.1.3.1.4.1.4.1.7.3 1.1.5.2.2.4.3.7.4l1.6.5h.2c.2.1.4.1.6.1.8 0 1.6 0 2.3.1v1.3L47.4 86v1.3c0 .3 0 .5.1.8l-3.9-1.7c-1.2-.4-2.4-1.1-3.6-1.7zm49.3-39.8c.1 1.8-.1 3.7-.1 5.5 0 4.4-.9 13.3-.5 17.7.1 1.7.1 3.3 0 5-1 .3-1.9.7-2.8 1.1-2.8 1.3-5.8 2-8.8 3.3-2.9 1.3-6.1 2.2-9.1 3.2-.6.2-1.2.4-1.8.7-2.7 1.1-9.5 4-12.2 5-1.7.6-3.3 1.1-5 1.7v-3c.1-3.2.1-6.5.2-9.9.1-6.8.1-13.5 0-18.4-.3-7.6-.2-15.1.3-22.7v-.6l.1-1.3V32l2.4-.5c1.6-.4 3.3-.8 4.9-1.3 3.2-.9 6.5-1.9 9.7-2.9 3.5-1.2 7.1-2.2 10.8-2.9 2.7-.5 5.4-1.2 8-2.1l3.5-1.2.9-.3.1-.1.2-.1c0 1.3-.2 2.7-.2 4.1-.2 5.1-.9 14.9-.6 20.2z"/><path d="M84 53.9c-.2 0-.3.1-.4.2-2.7 1.4-5.8 2-8.6 3.2-.5.1-.9.2-1.4.3l-2.7.4-.6.2-.3.1H69.7s0-.1.1-.1v-1c0-.8 0-1.7-.1-2.5.1-1.8-.1-3.6-.4-5.4v-.5c.4-2.6-.6-5.1-.3-7.7-.2-1.1-.3-2.3-.3-3.5 0-.2 0-.5-.1-.7 0-.1-.2-.3-.2-.3-.2.1-.3.2-.4.4-.1.3-.2.6-.2.9-.2 2.4-.1 4.9.4 7.3.2.5.3 1.1.2 1.6-.4 3.2.7 6.3.2 9.4v.5c.2 1.1.2 2.1.1 3.2l1.3-.3c2.6-.5 5.1-1.1 7.6-1.9 1.3-.4 2.5-.9 3.7-1.4l.1.2c1.1-.5 2.3-1 3.4-1.5.2-.2.2-.4.1-.6-.3-.4-.7-.5-.9-.5zM85.3 26.7v-.1l-2 .6-1.8.6c-.2.1-.4.2-.6.4v.2l.1.1c.8-.2 1.7-.4 2.5-.7l1.2-.4c.3-.1.7-.2 1.1-.4 0 .5 0 .9-.1 1.4 0 .5-.1 1-.2 1.5-.2 1.4-.4 2.8-.4 4.2v3.5c0 1.2.1 2.4.2 3.5 0 .2.2.3.3.4.1-.2.3-.3.3-.5 0-1.7.1-3.5 0-5.2-.2-1.8-.1-3.6.2-5.4.1-.4.1-.8.1-1.2l-.1-2.9-.8.4zM69.1 33.3c.2-.1.3-.3.3-.5V32c.1 0 .2-.1.3-.1l.8-.3.9-.3 3.5-1.3v.1c.7-.2 1.3-.3 2-.6.2 0 .5-.2.4-.4-.1-.2-.3-.4-.5-.4-.6 0-1.2.1-1.8.3-1.1.2-2.2.6-3.3 1l-1.6.6-.8.3-1 .4v1.1c0 .3.1.6.3.8.1.1.3.2.5.1z"/><path d="M84.8 46.9c-.1.1-.1.3-.2.4l-.2 2.4c.1 1.1.1 2.5.2 3.9.1.3.1.6.3.8 0 .1.1.1.1.1.1 0 .3-.1.3-.2.1-.3.1-.6.1-.9-.3-2.1-.5-4.2-.5-6.3 0 0-.1-.1-.1-.2z"/></g></svg>