<svg xmlns="http://www.w3.org/2000/svg" width="96" height="96" xml:space="preserve"><g fill="#25282D"><path d="M95.4 61.6v-.2c.1-.8.2-1.6.4-2.4.2-.7.2-1.5-.1-2.2-.2-.4-.2-.8-.1-1.2V55c-.1-.4-.3-.7-.5-1-.2-.2-.4-.4-.6-.5-.2-.2-.5-.3-.8-.4-.1 0-.2-.1-.2-.1V52.4c0-.5 0-1-.1-1.5 0-.4-.3-.5 0-1v-.8c.1-.4.1-.8.1-1.2 0-.2-.1-.4-.1-.6l.1-.3-.1-.5-.8-1.1c-.2-.4-.4-.7-.6-1-.3-.5-.7-.9-1-1.3v-.2c0-.4 0-.8-.1-1.2l-.2-1.2-.3-1.2c0-.2-.1-.3-.2-.5l-.3-.3c-.2-.1-.4-.3-.6-.4-.6-.2-1.3-.4-1.9-.4-1.1 0-1.8.2-.9 1l.6.3c.7.2 1.3.4 1.9.6 0-.1 0 .1.1.2.1.2.2.5.2.7l.5 1.4c.1.2.1.5.1.7-.2.3-.2.8-.1 1.3v.1c-.1.8-.3 1.6-.4 2.5-.1 1.8-1.2 3.4-1.4 5.4v1c0 .7.4 1.3 1 1.2.7-.2.8-.7.9-1.2 0-.2.1-.4.1-.6.5-1.7.7-3.4.7-5.2v-1.2c.2.3.3.6.5.8.1.2.3.3.5.5l.1.1c0 .1.1.3.1.5l.1.6c.1.3.1.7.2 1 0 .6-.1 1-.1 1.6v2.2c.2.4.3.8.6 1.2 0 .1.1.2.1.2.2.3.4.5.6.7l.2.3.1.1v.1c.1.3.2.6.2.9.1.4.1.7.1 1.1 0 .1 0 .3-.1.4-.1.8-.2 1.8-.2 2.7 0 .7 0 1.4.1 2.1 0 .2.1.4.1.5l.1.2v.7c-.2.5-.4.9-.7 1.3-.3.6-.7 1-.9 1.6-.5 1-.9 2-1.3 3-.2.3-.1.6-.5 1.1-.3.3-.5.7-.7 1.1-.3.5-.7 1-.9 1.6-.2.5-.3.9-.5 1.4-.2.4-.4.9-.5 1.4-.2 1-.3 2-.3 3 .1.7.3 1.4.7 2 .3.5.5.9.8 1.4.1.4.2.8.2 1.3.1.3.1.7 0 1 0 .4-.2 1 .1 1v.4c.1-.3.3-.7.4-.9.2-.4.4-.9.5-1.3 0-.5 0-1-.2-1.5-.2-.6-.4-1.2-.7-1.8-.1-.2-.2-.3-.2-.5-.1-.4-.1-.8 0-1.2v-.5c.2-.6.2-1.2.1-1.8-.1-.2-.3-.2-.1-.8l.1-.3c.2-.5.4-1 .6-1.4.2-.4.5-.8.7-1.2.4-.5.6-1 1-1.6.4-.6.9-1.3 1.3-1.9.3-.5.6-1.1.8-1.6l.8-1.9c.2-.5.6-1 .8-1.5.3-.6.4-1.3.3-2 0-.7-.1-1.2-.3-1.7z"/><path d="m85.1 40.4.1-2.6.1-2.4.1-1.1c0-.3.1-.7.1-1 .5-2.6 1.4-4.9 2-7.3.4-1.3.5-2.6.5-3.9-.1-.8-.3-1.5-.8-2.2-.5-.6-1.1-1.2-1.7-1.6-2.9-1.6-6.1-2.7-9.4-3.3l-.3-.4c-.9-1.1-2-2.1-3.1-2.9-.6-.5-1.3-.9-2.1-1.1-.5-.1-1-.1-1.5 0-.3.1-.5.2-.8.4l-.4.3c-2.1 1.7-4.4 2.9-6.9 3.8-1.6.6-3.4.9-5.1 1-1.8.1-3.7.1-5.5-.1-1.8-.1-3.5-.4-5.2-.9-1.6-.4-3.1-1.2-4.4-2.3-.7-.6-1.3-1.4-1.8-2.3l-.6-.9c-.2-.2-.6-.3-.9-.3h-.6c-.6.1-1.2.3-1.7.5-1.8.9-3.6 1.9-5.3 3-1.2-.1-2.4-.1-3.6 0-1.3.2-2.5.5-3.7.9-2.4.8-4.8 1.7-7 2.9l-.5 1c.2 1.9.3 3.8.5 5.7.3 4 .5 8.1.5 12 0 3-.1 6.1-.1 9.2-.2-.1-.4-.1-.6-.1H15c-.3 0-.7-.1-1.1-.2-.5-.1-1.1-.2-1.6-.1-.7.1-1.3.4-1.8.9-.4.4-.6.9-.8 1.4l-.3 1.1c-.1.4-.2.8-.2 1.2.1.6.2 1.3.2 2v2.1s0 .1-.1.1c-.1.2-.3.5-.5.7-.4.4-.7.8-1.1 1.3l-.3.6-.6 1.2c-.1.3-.2.6-.3.8-.2.4-.5.8-.7 1.2l-.6 1.8-.1.3c0 .1-.1.1-.3.1h-.2c-.5.2-.9.6-1.2 1-.3.4-.5.8-.8 1.2-.2.4-.3.8-.4 1.2 0 .1-.1.3-.1.4-.2.8-.3 1.6-.3 2.4v1.7c.1.6.3 1.2.3 1.7v1.4c0 .5.1 1.1.2 1.6.2.9.6 1.8.9 2.7.1.3.3.5.3.9s.1.7.2 1.1c.1.5.1 1 .3 1.5.1.4.3.8.4 1.1.1.4.3.8.4 1.1.4.7.7 1.4.8 2.2.2.5.3 1 .5 1.5.1.4.2.9.3 1.4v1.1c0 .3 0 .6-.1.8-.1.3-.3.8 0 .8l-.2.3c.2-.2.4-.4.6-.7.3-.3.6-.6.7-1 .1-.4.1-.9 0-1.3 0-.6-.1-1.1-.2-1.6v-1.8c0-.2-.1-.4-.1-.5-.1-.6-.4-1.2-.8-1.6-.2-.1-.4 0-.6-.5.4 0 .3-.1.3-.2-.2-.4-.3-.8-.4-1.2-.1-.4-.1-.6-.2-1.2s-.2-.9-.3-1.6c-.1-.7-.2-1.4-.2-1.9l-.3-1.5c-.2-.5-.3-1.1-.4-1.7v-1.4c0-.9-.1-1.8-.4-2.6v-.1c.1-.7.2-1.4.4-2 .1-.3.1-.5.2-.8v-.6c0-.3.2-.6.4-.7.4-.2.7-.4 1-.7.1-.1.3-.3.4-.5l.2-.2c.1-.1.2-.2.2-.4l.1-.3c0-.1 0-.1.1-.2.1-.4.3-.5.4-.8.2-.4.3-.8.3-1.2 0-.3-.1-.5.3-.8 0-.1.1-.1.1-.2 0 0 0-.2.1-.3.4-.5.7-1 1-1.5.1-.1.2-.2.2-.3 0 .3-.1.7-.1 1.1-.1.4-.1.9 0 1.3.1.3.4.3 1-.2.2-.2.4-.4.5-.7.3-.8.4-1.7.4-2.6.1-1.1 0-2.1-.2-3.2-.1-.8-.1-1.6-.1-2.5-.1-.6 0-1.3.4-1.8.3-.8.9-1.3 1.5-1.3s1.3.4 2.4.4c.3 0 .7 0 1-.1.1 0 .2-.1.3-.1v.9c-.1 1.8-.2 3.6-.4 5.5l-.3 2.2v.2c.2 1 .4 2.1.4 3.2v.9c0 .3.1.6.2.9.2.6.4 1.1.6 1.6.2.5.4 1.1.5 1.5.1.5.2 1 .3 1.6.1 1.1.2 2.2.2 3.3V72c0 .1.1.2.1.4s.1.4.3.5c0 0 .1 0 .1.1.3.1.6-.1.6-.4 0-.1.1-.3.1-.4v-4.1c0-1.5-.1-3.1-.4-4.6l-.3-1.2-.4-1.1c0-.1-.1-.2-.1-.3v-.3c0-.4-.1-.9-.1-1.3v-1.4c0-.7.1-1.3.1-2 .1-1.3.5-2.5 1-3.7.2-.4.4-.7.6-1 .4-.5.8-.8 1.4-1.1.1 0 .2-.1.4-.1.3 0 .6.1.8.2.3.2.5.4.7.6l-.1-.1c-.3-.2-.7-.3-1.1-.1-.6.2-1.1.6-1.5 1.1-.3.4-.5.9-.6 1.5-.1.8.2 1.1.3.8.1-.3.2-.4.2-.6.3-.9.9-1.8 1.7-2.3.2-.1.5-.1.7.1.2.2.3.4.4.7.2.5.3 1 .5 1.5.4.9.5 1.8.5 2.8v.4h-.6c-.5 0-1.2.1-1.7.2l-.9.2c-.1 0-.3.2-.3.2s.1.2.2.2c.5-.1 1.1-.1 1.7-.1l1.6-.1c.1 0 .1-.1.2-.2s0-.1 0-.1h.1c0 .3.1.6.1.9l.3 1.6c.1.4.1.8.1 1.1.1 1.1.2 2.2.4 3.3 0 .3.1.6.1.8 0 .4.1.7.2 1.1.1.4.2.7.3 1.1l.2.5.1.4c.2.6.3 1.4.4 1.9.1.4.2.8.2 1 .1.4.1.8.1 1.1v1.2c-.2.8-.4 1.5-.5 2.3l-.3 1.2c0 .1-.1.5-.1.5-.1.5-.2 1.1-.4 1.6-.1.3-.3.7-.5 1-.3.6-.6 1.2-.8 1.8l-.2.5.3.4c-.2.5-.5 1.1-.7 1.6l-.2.6-.1.2-.1.2c0 .1-.1.2-.1.2 0 .2-.1.5-.2.7-.1.3-.1.5-.2.8-.1.5-.2 1.1-.3 1.6 0 .2 0 .3-.1.5 0 .2 0 .3-.1.5l-.3 1.8V91.2c0 .1 0 .9.2.5 0 .2.1.4.2-.1 0-.2.1-.3.1-.5 0-.1.1-.2.1-.3.2-.5.3-1 .5-1.4v-.1c.1-.4.2-.8.4-1.2.3-.6.5-1.4.8-2.3l.2-.7c.1-.4.3-.8.5-1.3l.2-.4c.1-.4.3-.8.5-1.3l.1-.2h.2l2.7-.1 2.8-.1 3.9-.2 7.8-.5 2.6-.1c1.4-.1 2.8-.1 3.9-.2h3c1.3 0 3.2 0 4.4.1h5.5c1.4.1 2.9.2 4.8.3l2.5.1c1.1 0 2.1.1 3.2.2l1 .1.5.1.3.1h1.1V81c.1-2.1-.1-4.2-.4-6.2l-.3-1.5c-.1-.7-.4-1.4-.7-2.1-.5-1.2-1.1-2.5-1.7-3.8-.6-1.2-1.1-2.4-1.4-3.7-.1-.6-.2-1.3-.2-1.9 0-.7.1-1.5.3-2.2l.1-.4.2-1c0-.3.1-.6.2-.9.5-1.5.9-3 1.3-4.5l.6-2.4c.1-.2.2-1 .2-1 0-.7.3-2.3.4-3.4.1.1.2.2.4.1.1 0 .1-.1.1-.1 0-.1.1-.2.2-.2s.3-.1.3-.1c.2-.1.4-.2.7-.3.1 0 .1.1.2.1.1.1.3.1.4.1h.5c.1 0 .1-.1.1-.1v-.1c-.1-.1-.1-.2-.2-.1-.1 0-.2-.1-.3-.1-.1-.1-.2-.1-.2-.1h-.2l-.1.1H75.5c-.1 0-.3 0-.4.1-.1.1-.3.1-.4.2-.1 0-.2.1-.2.2.1-.6.1-1.3.2-1.9 0-1.2.1-2.4.6-3.5.1-.2.3-.5.5-.6.1-.1.2-.1.4-.2h.5c-.1.1-.1.2-.1.2 0 .1 0 .2.1.2l.1.1-.1-.1c.1 0 .2.1.3.1.2.1.3.2.5.3 0 0 .1 0 .1.1.1-.1.1-.2 0-.4-.1 0-.2-.1-.2-.2-.1 0-.1-.1-.2-.1l-.2-.1c.1 0 .2 0 .4.1.4.2.8.5 1.2.9l.3.4.3.4c.1.1.1.2.2.3l.2.4c.1.1.1.3.2.4.2.4.3.8.3 1.2.1.5.1 1 .1 1.5 0 1.1-.1 2.1-.1 3.2v.6c0 .3 0 .6-.1 1-.1 1-.2 2-.4 3-.5.4-.8.9-1.1 1.4-.4.7-.4 1.4.2 1.6.7.2 1.1-.2 1.5-.6l.3-.3c.2-.2.5-.4.7-.7l.4-.4.2-.2.3-.3c.6-.7 1-1.5 1.2-2.4.3-1.2.7-2.4 1.2-3.5.5-1.3.7-2.8 1.1-4.2.1-.5.2-1.1.3-1.7-.1-.8-.1-1.7-.8-1.3zM23.8 53.1c.1.2.1.4.2.6.1.2.1.3.1.5v.3c0-.2-.1-.4-.1-.6-.1-.2-.2-.5-.2-.8zm58-2.9c-.3.7-.7 1.3-1.2 1.8l-.6.4c.2-.8.4-1.6.5-2.4v-.1c.2-1.3.3-1.8.4-2.5.1-.7.2-1.4.2-2.2.1-.9 0-1.8-.1-2.7l-.6-1.5c-.4-.9-1.1-1.7-1.8-2.3-.3-.2-.6-.4-.9-.5-.5-.2-1.1-.3-1.7-.2-.3 0-.6.1-.9.3-.1.1-.3.2-.4.2l-.3.3c-.3.3-.5.6-.6 1-.3.8-.4 1.7-.4 2.5 0 .6-.1 1.3-.1 1.9l-.3.5c-.2 1.4-.4 2.8-.6 4 0 .2-.1.6-.1.9-.2 1.2-.4 1.9-.5 2.8 0 .1-.1.4-.1.6-.2.7-.4 1.4-.6 2.2l-.6 1.8c-.1.5-.2.8-.4 1.4-.4 1.2-.6 2.5-.8 3.7v1.1c0 .2.1.5.1.9.2 1 .5 2 1 2.9l.4.9c.5 1 1 2.1 1.4 3l.6 1.5c.2.5.4 1 .5 1.5.3 1.1.4 2.1.5 3.2.1.7.2 1.3.1 2V80.3l-.9-.1c-.6 0-1-.1-1.5-.1l-.9-.1-1.7-.2-2.3-.2h-.5l-.6-.2c-2.2-.1-4.4-.2-6.8-.3H54c-1.5 0-3 .1-4 .2-.8.1-1.7.2-3 .2-1.5 0-3.1.2-4.6.4-.8.1-1.7.2-2.5.2h-2.4l-1.2.1-2.4.2c-2.5.2-4.5.4-6 .7l-.9.2c-.4.1-.9.1-1.3.2.1-.3.3-.6.4-.8.1-.3.3-.6.5-.8l.1-.2c.4-.7.6-1.4.8-2.1 0-.1.1-.3.1-.5.1-.5.2-1 .2-1.5 0-.1 0-.2.1-.3l.3-1.2.2-1c0-.2 0-.5.1-.8 0-.7.1-1.3.1-1.9v-.5c0-.1-.1-.3-.1-.4l-.3-1.5c0-.2-.1-.4-.2-.5l-.3-.9c-.1-.2-.2-.5-.3-.7-.3-1.1-.5-2.1-.7-3.2-.1-.3-.1-.6-.1-1v-.4c0-.6-.1-1.1-.2-1.7l-.4-.8c0-.2-.1-.4-.1-.6l-.1-.9c0-.4-.1-.8-.1-1.2v-.4c0-.6-.1-1.2-.1-1.8-.1-.7-.3-1.3-.5-1.9-.3-.9-.9-1.7-1.6-2.3-.4-.3-.8-.6-1.3-.7-.2-.1-.5-.1-.7-.1l-.6.1c-1.5.5-2.6 1.7-3.1 3.1-.1.4-.3.9-.5 1.3s-.3.8-.4 1.2c.3-2.7.5-5.4.7-8.1.2-2.9.3-5.8.2-8.7-.2-2.5-.2-5-.1-7.5.1-1.4.1-2.8-.1-4.2-.5-2.6-.8-5.2-.9-7.9 2.2-1 4.5-1.8 6.9-2.5 2.1-.7 4.3-1 6.5-.8l.6-.1c1.3-.9 2.7-1.9 4.1-2.7.2-.1.4-.2.7-.4 0 .7.1 1.3.1 2v.1c.2.7.3 1.5.4 2.3.2.7.3 1.4.4 2.2v.2c.2.6.4 1.3.6 2l.2.8c.1.3.3.5.3.8l.1.1c.1.1.2.3.2.4.2.4.3.7.5 1.1.4.9.9 1.7 1.3 2.7.1.1.1.2.2.3.4.6.8 1.2 1.1 1.8 0 .1.1.2.2.2.3.2.6.5.8.8.3.5.7.9 1.2 1.2.1 0 .2.1.2.2.2.2.5.4.7.5.2.1.4.2.6.4l.9.6c.1.1.1.1.2.1.5.2 1 .4 1.5.5.3.1.7.2 1 .2h1.1c.6-.3.7-.7.3-1.1l-.3-.4H49c-.4-.3-.9-.2-1.2-.3-.3 0-.6-.1-.9-.1-.3-.1-.7-.2-1-.3-.4-.1-.7-.4-.9-.7-.2-.5-.7-.7-1-1.1-.4-.2-.6-.6-1-.7v-.2c-.5-.4-.9-.8-1.4-1.2-.2-.2-.4-.4-.5-.6l-.2-.6c-.1-.1-.1-.3-.1-.4-.1-.6-.3-1.2-.6-1.8-.2-.3-.4-.6-.5-1 0-.1-.1-.2-.2-.3l-.2-.4c-.2-.5-.4-1-.6-1.4 0-.1-.1-.1-.1-.2 0-.2-.2-.4-.3-.6-.2-.2-.3-.4-.3-.7 0-.2 0-.4-.1-.6-.1-.3 0-.5.1-.8v-.9c-.2-.7-.3-1.4-.4-2.1 0-.1 0-.2-.1-.3-.1-.4-.2-.8-.2-1.2-.1-.7-.2-1.4-.5-2.1V11c.2-.1.3-.1.5-.2h.3c.1.2.3.3.4.5.2.4.5.8.8 1.3.6.8 1.4 1.6 2.2 2.2.9.6 1.8 1.1 2.8 1.5 3.4 1.2 6.9 1.7 10.5 1.5 3.6-.1 7.1-1 10.3-2.5.9-.5 1.8-1 2.7-1.6 0 .3-.1.6-.2.9-.2.6-.3 1.2-.3 1.8v.7c-.1.7-.1 1.4.1 2.1.1.2.1.4.4.4 0 0 .1.1.2.1l.3-.6c.3-.5.5-1.1.6-1.7 0-.4.1-.7.1-1 .1-.3.1-.6 0-.8v-.2c.1-.5.1-1.1.2-1.6 0-.1.1-.3.2-.4.1-.1.1-.3.1-.5-.1-.1-.1-.2-.1-.3v-.1l.5-.4c.1-.1.2-.2.3-.2.3-.1.6 0 .9.1.7.3 1.4.7 2 1.2 1 .9 2 1.8 2.9 2.9l.2.1c3 .5 5.8 1.5 8.5 2.8 1.1.5 1.9 1.3 2.4 2.4.3 1.1.3 2.3 0 3.4-.4 2.3-1.3 4.6-2 7.4-.2.7-.3 1.5-.3 2.2l-.1 2.3-.3 5.3c0 .5-.1.9-.1 1.4v.1c-.2.9-.3 1.8-.3 2.8-.2 1.5-1.3 2.5-1.7 3.9z"/><path d="M44.2 39.5c-.2-.1-.5-.2-.7-.4-.3-.3-.6-.5-1-.7l-1-.7c-.4-.3-.8-.5-1.1-.8l.1.1c-.4-.3-.8-.7-1.2-1-.2-.2-.4-.3-.6-.4l-.4-.1c-.3-.1-.6.1-.7.5v.2c.1.1.2.3.3.4.4.4.8.7 1.3 1 .4.2.7.5 1.1.7.3.2.7.5 1 .8.2.2.4.3.6.4.8.4 1.6.8 2.3 1.2.1 0 .1.1.2.1.3.1.5 0 .7-.2.1-.2 0-.3-.1-.5-.2-.3-.5-.5-.8-.6zM31.1 19.4c.1-.6.1-1.2-.1-1.9-.1-.5-.2-.9-.2-1.4v-.6c0-.4-.2-.7-.5-.7h-.2c-.2 0-.2.1-.3.3-.1.3 0 .5 0 .8-.1.7-.1 1.4 0 2.1v.1c0 .5.1 1.1.2 1.6 0 .4.1.7.2 1.1.2.5.3 1 .4 1.5 0 .2.1.4.2.6 0 .1.2.2.3.3.1 0 .2-.2.2-.3v-.6c0-.4-.2-.8-.2-1.2-.1-.6-.1-1.1 0-1.7zM35 31.2c-.1-.2-.2-.5-.3-.8-.1-.4-.2-.8-.5-1.2-.3-.4-.6-.8-.7-1.3-.1-.2-.1-.3-.2-.5s-.3-.3-.5-.4h-.2c-.1 0-.2.2-.2.3 0 .3.1.6.2.8.2.3.2.6.3.9 0 .1 0 .2.1.2.1.6.4 1.2.7 1.8.2.3.4.7.5 1 .2.3.4.7.5 1 .3.4.5.7.8 1 .1 0 .1.1.2.1s.2-.1.2-.2c0-.4-.1-.8-.3-1.2-.1-.4-.3-1-.6-1.5zM76 17c-.1.1-.2.2-.3.4-.2.6-.4 1.1-.6 1.7-.4 1-.8 2.1-1.2 3.1-.1.5-.6 1-.7 1.5 0 .1-.1.2-.2.2-.5.5-.7 1.2-.5 1.8 0 0 0 .1.1.1.1.1.2 0 .2 0l.9-.9c.1-.1.1-.2.2-.3.2-.5.4-1.1.6-1.6.1-.2.1-.3.1-.5l.3-1.2c.2-.3.4-.7.4-1.1.2-.5.4-1.1.6-1.6.2-.4.4-.9.5-1.3.1-.1 0-.3-.1-.4-.1 0-.2 0-.3.1zM65.9 35c-.2-.1-.5 0-.6.2-.1.1-.3.2-.4.2-.4.1-.7.4-1 .7-.3.3-.6.6-1 .7-.3.2-.5.4-.7.7-.1.1-.1.2-.1.3v.1c0 .1.1.2.3.2.4 0 .7-.1 1-.3.4-.3.9-.6 1.3-.9.1-.1.2-.2.4-.3.3-.4.7-.8 1-1.1.1-.3 0-.5-.2-.5zM49.3 40.5c-.5-.2-1-.3-1.5-.4-.4 0-.8-.1-1.2-.1s-.6.3-.4.5c.3.4.7.7 1.2.7.6.1 1.1.2 1.7.2.3 0 .7-.1 1-.1.2 0 .2-.2.1-.3-.2-.1-.6-.3-.9-.5zM56.3 40.4c-.3-.1-.6-.1-.9-.1-.2.1-.5.1-.7.1-.5.1-.9.1-1.4.1h-1c-.2 0-.4.1-.6.1h-.2c-.2 0-.3.3-.3.4.3.4.8.6 1.3.5.3-.1.7-.1 1-.2.4-.1.7-.1 1.1-.1.4 0 .8-.1 1.1-.2.1 0 .2-.1.4-.2.4-.1.4-.4.2-.4zM70 30c-.1.4-.4.7-.8.9-.4.3-.8.6-1.1 1-.2.3-.4.6-.6 1v.2c0 .1.2.1.3 0 .2-.1.4-.3.6-.5.4-.3.7-.7.9-1.1.2-.6.5-1.1.8-1.7H70c.1.1 0 .1 0 .2zM32 25c-.1 0-.2 0-.2.1-.1.4 0 .8.2 1.1l.1.1c.1.1.2 0 .2-.1.1-.2.1-.5 0-.7 0-.2-.1-.4-.3-.5zM59.4 39c-.2.1-.2.2-.2.3 0 .2.2.3.3.2.1 0 .2 0 .2-.1.1-.1.2-.3.1-.4 0-.1-.2-.1-.3-.1h-.1zM65.8 22.2c-.2 0-.3.1-.5.1-.2.1-.4.3-.6.4-.3.2-.2.5-.3.7v.1l-.2.6c-.2.6-.5 1.2-.9 1.7-.3.3-.5.7-.8 1-.4.4-.8.8-1.1 1.3-.2.5-.6.9-.3 1.3.1.2.1.4.4.2.3-.2.5-.4.7-.5.4-.3.8-.6 1.2-1 .3-.3.6-.7.9-1 .2-.2.4-.5.6-.8.3-.4.6-.9.9-1.4.2-.3.3-.6.4-.9.1-.4.1-.7.2-1.1 0-.3 0-.4-.2-.5-.2 0-.3-.1-.4-.2zM58.5 30.3c-.4 0-.8 0-1.2.2-.1 0-.2 0-.3.1-.4.2-.7.5-1.1.8-.3.3-.4.6-.4 1 0 .2.2.3.5.2.5-.2 1-.1 1.5-.5.1 0 .2-.1.3-.1.4-.1.8-.4 1.1-.8.5-.5.3-.9-.4-.9zM53.5 33.3c.6-.5.2-1.2-.8-1.2-.5-.1-.9-.1-1.4.1-.5.2-1 .4-1 .8-.1.4-.1.5.6.6h1.7c.4.1.7 0 .9-.3zM47.5 22.9c-.5-.3-1.1-.5-1.7-.7-.5-.1-1-.3-1.4-.7-.1-.2-.4-.2-.6-.3-.1-.1-.3-.1-.4-.2-.3-.3-.5-.6-.7-.9-.2-.4-.8-.4-1.2-.7-.1-.1-.2 0-.4.2l-.5.5c-.2.2-.4.4-.1.4.3 0 .3.2.5.4s.4.3.6.4c.9.6 1.9 1.1 2.9 1.5.2.1.4.2.5.3l2.4.9h.1c.1-.1.2-.2.2-.3v-.5c.1-.1 0-.2-.2-.3zM59.7 22.7c-.2-.2-.6-.2-.8-.1-.3.2-.5.4-.9.4-.6-.1-.9.2-1.6.2s-1.3.2-2 .2c-.3 0-.6.5-1 .7-.1.1-.1.2-.1.4 0 .1.1.3.1.3.2 0 .4 0 .6-.1l.9-.3h1.5v.1c.6-.1 1.1-.2 1.7-.3l1.6-.4c.1 0 .2-.1.2-.1v-.4c0-.1-.1-.3-.2-.4.1-.1.1-.2 0-.2zM51.1 23.6c0-.2-.1-.4-.2-.4s-.3-.1-.5-.1c-.2-.1-.4-.1-.6-.1-.2 0-.3.4-.4.8-.1.4 0 .7.1.7s.1.1.2 0c.4-.1.8-.1 1.1-.2.2 0 .3-.5.3-.7zM61.4 23.2c.5 0 1-.1 1.4-.3 0-.2 0-.4-.1-.6-.3-.4-.6-.7-.8-.6-.2.2-.4.3-.6.6-.1.1-.1.2-.1.3 0 .1 0 .3.1.4-.1 0 0 .2.1.2zM52.4 24.6h.1c.1 0 .2 0 .2-.3 0-.2 0-.4-.1-.6-.2-.2-.3-.3-.5-.2-.1 0-.1.1-.1.3v.5c.1.1.2.2.4.3zM19.5 56.2c-.1.1-.1.2-.1.4 0 .3 0 .5.1.8 0 .1.1.2.2.2.1.1.2-.3.1-.7-.1-.5-.2-.9-.3-.7zM78.3 41.3v-.2c-.1-.2-.1-.4-.2-.5l-.3-.3c-.1-.1-.2-.2-.3-.2-.1-.1-.1-.1-.1 0-.1 0-.1.1-.1.2 0 0 0 .1.1.1 0 .1.1.2.1.3 0 .1.2.3.2.3v.1c0 .1.1.3.1.4 0 .1 0 .2.1.3v2s-.1.1 0 .1h.3c.1-.1.1 0 .1-.1s.1-.1 0-.2c-.1 0 0-.1 0-.1.1 0 .1-.1.1-.2s.1-.1.1-.2V42.2c0-.1 0-.2-.1-.3v-.4c0-.1 0-.1-.1-.2v-.2.2zM78 44.8c.1-.1.1-.1 0 0 0-.2-.1-.2-.2-.2s-.2 0-.2.1c-.1 0-.1.1-.2.1l-.1.1c0 .1-.1.1-.2.2-.1 0-.1.1-.2.2 0 .1 0 .3.2.3h.1c.1 0 .2 0 .3-.1.1-.1.1-.2.2-.3h.1l.1-.1.1-.3z"/></g></svg>