<?xml version="1.0" encoding="utf-8"?>
<!-- Generator: Adobe Illustrator 26.0.2, SVG Export Plug-In . SVG Version: 6.00 Build 0)  -->
<svg version="1.1" id="Strokes" xmlns="http://www.w3.org/2000/svg" xmlns:xlink="http://www.w3.org/1999/xlink" x="0px" y="0px"
	 viewBox="0 0 240 240" style="enable-background:new 0 0 240 240;" xml:space="preserve">
<style type="text/css">
	.st0{fill:#25282D;}
</style>
<g>
	<path class="st0" d="M191.5,123.3c0.1-0.6-1.2-1.7-2-1.8s-2.1,1.1-1.9,1.8c0.2,0.7,0.4,1.4,0.6,2.1c0,0.1,0,0.2,0,0.2
		c-0.1-0.1-0.2-0.2-0.3-0.2c-0.1,0.2-0.2,0.3-0.3,0.5c-0.1,0.2-0.1,0.3-0.1,0.5c0,0.3,0,0.6,0,1c0.2,0.1,0.2,0.4,0,0.6
		c0,0.1,0,0.1,0,0.2c0.1,1,0.2,2.1,0.1,3.1c0,0.4,0,0.7,0,1c0,0.8,0,1.6-0.1,2.4c0,0.1,0,0.3,0,0.4c0,0.6,0,1.2,0,1.9c0,1-0.1,2,0,3
		c0,0.1,0,0.2,0,0.3v0.4c0,1.1,0,2.2,0,3.4c0,1.1-0.1,2.3-0.1,3.4c0,0.6-0.1,1.1-0.1,1.7c-0.1,0.4-0.2,0.8-0.2,1.2
		c0,0.4-0.1,0.9-0.2,1.3c0,0.1,0,0.1,0,0.2c-0.1,0.7-0.2,1.4-0.3,2.1c-0.2,0.9-0.2,1.7-0.3,2.5c-0.1,1.1-0.3,2.3-0.5,3.4
		c-0.2,0.6-0.3,1.2-0.5,1.8c-0.2,0.6-0.4,1.3-0.6,1.9l-0.5,1.2c-0.2,0.4-0.3,0.9-0.5,1.3c-0.2,0.4-0.4,0.9-0.5,1.3
		c-0.3,0.8-0.6,1.6-1,2.3c-0.3,0.5-0.6,1-1,1.5c-0.4,0.5-0.8,0.9-1.3,1.3l-0.4,0.4c-0.2,0.1-0.3,0.2-0.4,0.4
		c-0.3,0.2-0.5,0.5-0.8,0.8c-0.3,0.3-0.7,0.6-1.1,0.9c-0.3,0.2-0.7,0.5-1,0.7l-1.1,0.5c-0.2,0.1-0.4,0.2-0.7,0.3l-0.4,0.1
		c-0.1,0.1-0.1,0.2-0.2,0.3c-0.1,0.2-0.1,0.3-0.2,0.5c-0.1,0.2-0.2,0.4-0.2,0.6l-0.1,0.3c-0.1,0.1-0.2,0.1-0.2,0.1l-1.3,0.5
		c-0.7,0.3-1.4,0.5-2.1,0.6c-0.4,0.1-0.8,0.2-1.2,0.3l-1.2,0.2c-0.4,0-0.8,0.1-1.1,0.2l-1.2,0.1c-1.2,0-2.3-0.1-3.4-0.5
		c-0.1,0-0.2-0.1-0.2-0.1l-1-0.5l-0.5-0.2c-0.2-0.1-0.3-0.2-0.5-0.3c-0.5-0.2-1-0.4-1.4-0.7l-1.3-0.8c-0.2-0.1-0.4-0.2-0.6-0.3
		l-0.5-0.4c0-0.1-0.1-0.1-0.2-0.1l0.5,0.8l0.5,0.7l0.1,0.1c0.5,0.5,1,0.9,1.6,1.3c0.4,0.3,0.8,0.6,1.3,0.8c0.4,0.2,1,0.3,1.4,0.4
		l0.7,0.2c0.2,0.1,0.5,0.1,0.7,0.1l1.5,0.2c0.3,0.1,0.6,0,0.9,0.1c0.7,0.1,1.4,0.3,2.1,0.3c0.9,0,1.7-0.1,2.6-0.2
		c0.6-0.2,1.3-0.4,1.9-0.6c0.6-0.2,1.2-0.5,1.8-0.7l1.2-0.5c0.1-0.1,0.3,0,0.3-0.2l0.1-0.3c0.1-0.2,0.1-0.4,0.2-0.7
		c0.1-0.2,0.2-0.3,0.2-0.5c0-0.1,0.1-0.2,0.1-0.3c0-0.2,0.2-0.2,0.3-0.3l1.2-0.7c0.4-0.2,0.9-0.6,1.3-0.8c0.3-0.2,0.7-0.4,1-0.6
		l1-0.7c0.4-0.3,0.7-0.6,1.1-0.9c0.4-0.4,0.8-0.7,1.2-1.1c0.5-0.4,0.9-0.8,1.3-1.3c0.1-0.1,0.2-0.2,0.3-0.3c0.1-0.2,0.2-0.3,0.2-0.5
		c0.3-0.4,0.5-0.9,0.8-1.3c0.4-0.6,0.5-1.4,0.9-2c0-0.1,0-0.2,0-0.2c0-0.2,0.1-0.4,0.1-0.5c0.3-0.8,0.5-1.7,0.8-2.5
		c0.2-0.5,0.4-1.1,0.5-1.7l0.5-1.7c0.3-1.1,0.5-2.2,0.6-3.3c0.2-1.4,0.3-2.8,0.3-4.2c0-0.5,0-1,0-1.5c-0.1-0.7-0.1-1.3,0-2
		c0.1-1,0.2-1.9,0.2-2.9c0.1-0.8,0.1-1.5,0.1-2.3c0-0.3,0-0.6,0-0.9c0.1,1.7,0.1,3.5,0.2,5.3c0.1,0.4,0.1,0.8-0.1,1.1
		c-0.5,0.7-0.5,1.7,0,2.4c0.6,0.7,0.2,1.5,0.2,2.2c0.1,6.7-1.9,13.2-5.5,18.8c-0.4,0.6-0.7,1.2-1.2,1.7c-0.5,0.5-0.8,1.1-1.3,1.6
		c-0.5,0.5-0.9,1-1.4,1.5c-0.5,0.5-1,0.9-1.6,1.3c-0.6,0.4-1.3,0.5-1.6,1.2c-0.3,0.7-1.2,0.5-1.8,0.8c-1.1,0.6-2.3,1-3.5,1.2
		c-0.5,0-0.9,0.4-1,0.9c-0.1,0.4-0.4,0.3-0.6,0.1c-1.3-1.1-2.3-0.7-3.3,0.1s-2,1.3-3,0.1c-0.1-0.1-0.3-0.1-0.4,0.1
		c-0.3,0.6-0.6,0.4-0.9-0.1c-0.2-0.3-0.4-0.4-0.6-0.2c-1.1,1.1-2.1,0.6-2.9-0.3c-0.1-0.1-0.1-0.5-0.3-0.4c-0.5,0.5-0.8,0.2-1,0
		c-0.3-0.2-0.6-0.3-0.9-0.2c-0.3,0.1-0.7,0-1-0.1c-0.4-0.2-0.5-0.7-0.4-1.1c0.1-0.6-0.2-0.6-0.7-0.4c-0.3,0.1-0.7,0.1-0.9-0.1
		c-0.4-0.3-0.7-0.7-1-1.2c-0.3-0.4-0.6-0.8-0.9-1.3c-0.3-0.4-0.5-0.7-0.7-1.1c-0.2-0.3-0.4-0.5-0.7-0.7c-0.2-0.2-0.4-0.3-0.5-0.2
		c-0.3,0.2-0.7,0.4-0.9,0.6c-0.1,0.1-0.3,0.3-0.3,0.4c-0.1,0.3,0.1,0.5,0.2,0.7l0.9,1.5c0.3,0.5,0.7,1,1,1.5l0.5,0.7
		c0.2,0.2,0.4,0.5,0.6,0.7l0.7,0.6c0.2,0.2,0.5,0.4,0.8,0.5l1.1,0.8c0.3,0.3,0.7,0.5,1.1,0.7c0.9,0.5,2,0.4,2.8-0.2
		c0.1-0.1,0.3-0.1,0.4,0.1c0,0,0,0,0,0c0.4,0.4,0.8,1.2,1.3,1.2c0.5,0.1,1.1-0.4,1.6-0.7c0.1-0.1,0.3,0,0.4,0
		c2.6,0.2,5.3,0.1,7.8-0.4c2.6-0.4,5.1-1.3,7.5-2.6c1.6-0.9,3.2-2.1,4.5-3.4c1.3-1.3,2.5-2.8,3.6-4.4c2.1-3.1,3.8-6.6,4.8-10.2
		c0.7-2.2,1.1-4.5,1.3-6.8l0.1-1.8c0-0.6,0-1.2,0-1.8l-0.1-3.4l-0.4-15.4c-0.1-1.4-0.1-2.8,0-4.1c0.1-1.6-0.6-3.2,0.1-4.9
		C191.2,125.4,191.4,124.4,191.5,123.3z"/>
	<path class="st0" d="M147.8,163.6c0-0.1,0-0.2,0-0.3l-0.1-3c0.1,0.6,0.2,1.1,0.3,1.7c0,0.1,0.1,1,0.1,1.1c0,0.2,0,0.4,0.1,0.6
		c0.1,0.6,0.2,1.2,0.4,1.7c0.3,0.6,0.4,1.3,0.6,2c0,0.1,0,0.1,0.1,0.2c0.1,0.3,0.3,0.5,0.3,0.8c0.1,0.3,0.2,0.6,0.3,0.9
		c0,0.1,0.1,0.3,0.1,0.4c0.4,0.9,0.8,1.7,1.3,2.5c0.1,0.2,0.3,0.5,0.4,0.7c0.3,0.6,0.7,1.1,1.2,1.6c0.4,0.4,0.8,0.5,0.9,0.4
		s0-0.6-0.3-1.1c-0.2-0.3-0.3-0.6-0.4-0.9c-0.1-0.1-0.1-0.2-0.1-0.2c-0.2-0.4-0.5-0.8-0.6-1.2c-0.5-0.8-0.9-1.7-1.3-2.6
		c-0.2-0.6-0.5-1-0.7-1.6c-0.3-0.8-0.6-1.6-0.8-2.4c-0.3-1.1-0.6-2.2-1-3.3c-0.3-0.9-0.5-1.9-0.5-2.9c0-0.5-0.1-1-0.1-1.6
		c0-0.3,0-0.9-0.1-1.3c0-0.2-0.1-0.4-0.1-0.6l-0.1-2.5c0-0.4-0.5-0.8-0.8-1.2c-0.3-0.4,0.5-0.9,0.6-1.4c0.1-0.2-0.1-0.5-0.2-0.7
		c-0.3-0.1-0.5-0.1-0.8-0.1c-0.3,0-0.6,0.1-0.9,0.2c-0.2,0.2-0.3,0.5-0.3,0.8c0.1,2.1,0.1,4.2,0.2,6.3c0,2.3-0.1,4.6,0,6.9
		c0,0.2-0.1,0.5,1,0.5C147.1,164.3,147.7,164,147.8,163.6z"/>
	<path class="st0" d="M149.4,175.8c0.3-0.1,0.4-0.4,0.4-0.7c0-0.1,0-0.3-0.1-0.4c-1.1-2.9-1.7-6-1.8-9.2c0-0.2,0-0.4-0.1-0.5
		c-0.3-0.2-0.6-0.2-0.9-0.3c-0.4-0.1-1.3,0.2-1.3,0.4c0,0.2,0,0.5,0,0.7c0.1,3.3,0.7,6.6,1.8,9.7c0.1,0.3,0.2,0.5,0.5,0.6
		c0.2,0,0.4,0,0.5,0C148.7,176.1,149.1,176,149.4,175.8z"/>
	<path class="st0" d="M145.5,148.3c0.1,0,0.3,0,0.4,0c0.3,0,0.6,0,0.9-0.1c0.2-0.2,0.4-0.4,0.4-0.6c0-1.1-0.1-2.1-0.3-3.2l-0.1-1.5
		v-0.4l-0.2-1.1c-0.2-1.1-0.4-2.1-0.7-3.2c-0.2-0.9-0.6-1.8-1.1-2.6c-0.4-0.4-1-0.5-1.5-0.3c-0.5,0.2-1.1,0.8-1.1,1.2
		c0,1.3,0.3,2.6,0.8,3.8c0.3,0.5,0.6,1,0.8,1.5c0.2,0.5,0.4,1.2,0.4,1.2c0.1,0.3,0.1,0.5,0.2,0.8c0.2,1.3,0.4,2.7,0.6,4
		C145,147.9,145.3,148.1,145.5,148.3z"/>
	<path class="st0" d="M157.1,105.8c0.1,0,0.2-0.1,0.3-0.1l1.6-0.5c0.1,0,0.1-0.1,0.2,0c0.3,0.2,0.6-0.2,0.7-0.2
		c0.1-0.1,0.1-0.3-0.1-0.8c-0.2-0.5-0.3-0.8-0.5-0.8c-0.1,0-0.2,0-0.3,0c-0.1,0-0.2,0-0.2,0.1c0,0.1-0.1,0.1-0.2,0.1
		c-0.2,0.1-0.5,0-0.6,0.4c0,0,0.1,0.1-0.1,0c-0.2-0.1-0.3,0-0.4,0.2c0,0-0.1,0.1-0.1,0l-0.5-0.1l0,0.1c-0.1,0-0.2,0.1-0.3,0.1
		c0,0.1,0,0.2,0,0.3c0,0.3,0.1,0.7,0.3,0.9C156.8,105.7,156.9,105.8,157.1,105.8z"/>
	<path class="st0" d="M152.8,107.1c0.1,0,0.1,0,0.2,0c0.2-0.1,0.4-0.3,0.7-0.3c0.4,0,0.7,0,1-0.2c0.2,0,0.3-0.1,0.4-0.2
		c0,0,0-0.1,0-0.1c0.1-0.2,0.4-0.3,0.6-0.2c0,0,0,0,0,0c0.1,0,0.2,0,0.2-0.1c0-0.4-0.1-0.9-0.3-1.3c0-0.1-0.1-0.1-0.1-0.1
		c-0.2,0.1-0.4,0.2-0.6,0.4c-0.1,0.1-0.3,0.2-0.5,0.2c-0.1,0-0.2,0.1-0.2,0.1c-0.2,0.1-0.3,0.2-0.5,0.2c-0.4,0-0.7,0.2-0.9,0.5
		c0,0.1-0.1,0.1-0.2,0.1l0-0.1c-0.1,0-0.1,0-0.2,0.1c0,0,0,0.2,0.1,0.5S152.7,107.1,152.8,107.1z"/>
	<path class="st0" d="M148.1,108.4c0.1,0,0.1,0,0.2,0c0.2-0.1,0.5-0.1,0.7-0.2l0,0.1l0.7-0.2c0,0,0-0.1,0-0.3c0-0.2-0.1-0.3-0.1-0.5
		c0-0.1-0.2-0.2-0.2-0.2c-0.1,0-0.2,0-0.3,0c-0.1,0-0.1,0.2-0.2,0.2c-0.3,0.2-0.7,0.3-1,0.2c0,0-0.1,0-0.1,0c0,0.1,0,0.2,0,0.2
		c0,0.1,0.1,0.3,0.2,0.4C148,108.2,148,108.3,148.1,108.4z"/>
	<path class="st0" d="M151.5,107.5c0.1-0.1,0.1-0.2,0.2-0.3c0-0.2,0-0.4-0.1-0.5c0-0.1-0.1-0.3-0.2-0.4c-0.3-0.3-0.4-0.1-0.5,0.2
		c0,0.2,0.1,0.4,0.2,0.6C151.2,107.5,151.4,107.6,151.5,107.5z"/>
	<path class="st0" d="M132.1,112.2c-0.4,0.1-0.7,0.2-1.1,0.3c-0.5,0.2-0.9,0.4-1.3,0.6c-0.2,0.1-0.4,0-0.5,0.1
		c-0.1,0.1-0.3,0.2-0.4,0.2c-0.2,0.1-0.4,0.2-0.5,0.3c0,0.1,0,0.1,0,0.2c0.1,0.2,0.1,0.3,0.2,0.5c0.1,0.2,0.2,0.2,0.2,0.2
		c0.1,0,0.2-0.1,0.3-0.1c0.1,0,0.2,0,0.2,0c0.2-0.1,0.3-0.2,0.5-0.3c0.1,0,0.3,0,0.5,0c0.3-0.1,0.5-0.2,0.7-0.3
		c0.2-0.1,0.5-0.3,0.7-0.4l0,0c0.2-0.1,0.3-0.1,0.6-0.2s0.2,0,0.3-0.5c0-0.2-0.1-0.4-0.1-0.5C132.3,112.1,132.2,112.2,132.1,112.2z"
		/>
	<path class="st0" d="M126.2,114.9C126.2,114.8,126.2,114.8,126.2,114.9c-0.2-0.4-0.3-0.4-0.3-0.2c0,0.1-0.1,0.2-0.1,0.2
		c-0.4,0.2-0.8,0.4-1.3,0.6c-0.5,0.1-1,0.2-1.5,0.3c0,0-0.1,0-0.1,0.1c0,0,0,0.2,0.1,0.4c0,0.2,0.1,0.4,0.2,0.5c0,0,0.1,0,0.2,0
		l1-0.3l0.5-0.2c0.3-0.1,0.6-0.2,0.9-0.3c0.3,0,0.5,0,0.8,0.1c0.1,0,0.1-0.2,0-0.5C126.4,115.2,126.3,115,126.2,114.9z"/>
	<path class="st0" d="M134.3,111.7c-0.1-0.1-0.1-0.3-0.2-0.1c-0.1,0.2-0.4,0.1-0.5,0.1c-0.1-0.1-0.2-0.1-0.2-0.1
		c-0.1,0.1-0.2,0.1-0.2,0.2c0,0.2,0,0.4,0.1,0.6c0,0.1,0.1,0.3,0.2,0.4c0.1,0.1,0.2,0.1,0.2,0c0.3-0.1,0.5-0.2,0.8-0.1
		c0.1,0,0.1-0.2,0-0.4C134.5,112.1,134.4,111.9,134.3,111.7z"/>
	<path class="st0" d="M127.4,114.2c-0.3-0.3-0.3,0.1-0.5,0.3c0,0.1,0,0.2,0.1,0.3c0.1,0.3,0.2,0.4,0.3,0.4c0.1,0,0.1,0,0.2,0
		c0.1-0.1,0.1-0.1,0.2-0.2c0-0.2,0-0.3-0.1-0.5C127.5,114.5,127.4,114.3,127.4,114.2z"/>
	<path class="st0" d="M143.6,108.3c-0.1,0-0.2,0.1-0.3,0.2c-0.2,0.4-0.6,0.6-1.1,0.6c-0.1,0-0.2,0-0.3,0.1l0,0
		c-0.2,0.1-0.3,0.1-0.5,0.2c-0.2,0-0.3,0.2-0.3,0.3c0,0.2,0,0.2,0.1,0.7c0.2,0.6,0.4,0.7,0.4,0.7s0.1,0,0.1,0
		c0.3-0.1,0.6-0.3,0.9-0.3c0.2,0,0.3-0.1,0.5-0.1c0.2,0,0.4,0,0.5-0.2c0,0,0.1,0,0.1,0l0.6-0.2c0.2,0,0.4-0.1,0.6-0.1
		c0.2-0.1,0.4-0.1,0.4-0.2c0-0.1,0.1-0.1,0.2-0.1c0.2,0,0.4,0,0.5-0.1c0.2-0.2,0.5-0.1,0.7,0s0.3-0.1,0.4-0.2c0.1-0.1,0-0.6-0.2-1.3
		c-0.1-0.2-0.1-0.4-0.2-0.6c-0.1-0.4-0.3-0.7-0.4-0.7c-0.1,0-0.1,0.1-0.1,0.2c0,0.3-0.2,0.3-0.3,0.5c-0.4,0.4-0.9,0.3-1.3,0.4
		C144.6,108.1,144.1,108.2,143.6,108.3z"/>
	<path class="st0" d="M136.6,110.8c-0.1,0-0.1,0-0.2,0c-0.4,0.2-0.8,0.4-1.2,0.6l0,0l-0.2,0.1c-0.1,0-0.1,0.1-0.2,0.1
		c0,0,0,0.1,0.1,0.3c0.3,0.8,0.5,1,0.6,0.8c0.1-0.2,0.2-0.3,0.4-0.3c0.1,0,0.2,0,0.3-0.1c0.1-0.3,0.4-0.6,0.5-0.6
		c0.1,0,0.1-0.2,0-0.6C136.7,111,136.7,110.9,136.6,110.8z"/>
	<path class="st0" d="M138.4,110.5c-0.1,0-0.2,0-0.3,0c-0.1,0.1-0.1,0.1-0.1,0.2c0,0.1,0,0.2,0,0.2c0,0.1,0,0.2,0,0.3
		c0.1,0.1,0,0.2,0.2,0.3c0.2,0.1,0.3-0.1,0.4-0.4c0-0.1,0-0.2,0-0.2c0-0.1-0.1-0.2-0.1-0.2C138.5,110.6,138.5,110.6,138.4,110.5z"/>
	<path class="st0" d="M139.9,110c0,0-0.1,0.1-0.1,0.1l-0.1,0.1c0,0-0.1,0-0.1,0c0,0.2,0.1,0.4,0.2,0.6c0,0.1,0.1,0.2,0.1,0.2
		c0.1,0,0.2,0,0.4-0.1c0,0,0-0.4-0.2-0.6C140,110.1,139.9,110,139.9,110z"/>
	<path class="st0" d="M186.1,95.9c0,0.1,0.1,0.1,0.1,0.2c0.2,0.2,0.3,0.3,0.5,0.2c0.1-0.1,0.2-0.4,0.4-0.3c0.4,0.1,0.5-0.2,0.9-0.2
		c0.3,0,0.6-0.3,1-0.3c0.2,0,0.2-0.5,0.3-0.8c0-0.1-0.1-0.2-0.1-0.4c0-0.1-0.1-0.3-0.1-0.3c-0.1,0-0.2,0.1-0.3,0.2
		c-0.1,0.1-0.2,0.3-0.4,0.4c-0.3,0.1-0.5,0.1-0.8,0.1l0-0.1L186,95c-0.1,0-0.1,0-0.1,0.1c0,0.1,0,0.2,0.1,0.4
		C186,95.7,186,95.8,186.1,95.9z"/>
	<path class="st0" d="M190.9,94.8c0.1,0,0.2,0,0.3,0l0,0c0.1,0,0.2,0,0.3,0c0.1,0,0-0.5-0.1-0.8c-0.1-0.3-0.2-0.6-0.3-0.6
		c0,0-0.1,0-0.1,0l-0.4,0.5c0,0.3,0.1,0.5,0.2,0.7C190.7,94.7,190.8,94.8,190.9,94.8z"/>
	<path class="st0" d="M185.1,96.7c0.1-0.2,0.2-0.3,0.3-0.4c0-0.1,0-0.2,0-0.3c0-0.1-0.1-0.3-0.1-0.4c0-0.1-0.1-0.2-0.1-0.3
		c-0.3-0.2-0.5,0-0.8,0.1c0,0.2,0.1,0.4,0.1,0.6C184.8,96.5,185,96.8,185.1,96.7z"/>
	<path class="st0" d="M189.8,94.8c0.2,0.2,0.3,0.2,0.3,0.1c0-0.1,0-0.2,0-0.3c0-0.2-0.1-0.3-0.2-0.5c-0.1-0.1-0.2-0.2-0.3-0.3l0,0.1
		h-0.1c0,0-0.1,0.1,0,0.3C189.6,94.4,189.7,94.6,189.8,94.8z"/>
	<path class="st0" d="M178.6,98c0.1,0,0.2,0,0.2,0l0.8-0.3c0.1,0,0.2,0,0.3,0c0.2,0.1,0.5,0.1,0.6-0.1c0.3-0.2,0.7,0,1.1,0
		c0.2,0,0.3,0,0.4,0.1c0.3,0.2,0.5,0.1,0.8,0s0.6-0.3,0.9-0.3c0.2,0,0.2-0.4,0-1.1c0-0.1-0.1-0.3-0.2-0.4c0-0.1-0.1-0.1-0.1-0.2
		c-0.3-0.2-0.7-0.2-0.9,0c-0.1,0.1-0.2,0.1-0.4,0.1c-0.6,0.1-1.2,0.2-1.8,0.3c-0.3,0.1-0.6,0.2-1,0.3l-0.1-0.1h-0.1l-1.1,0.4
		c0,0-0.1,0-0.1,0.1c0,0.3,0.1,0.5,0.2,0.7C178.4,97.9,178.5,98,178.6,98z"/>
	<path class="st0" d="M172.5,100.7c0,0,0.1,0,0.1,0l0.8-0.2l0,0.1c0.2,0,0.5-0.1,0.7-0.1c0.1-0.1,0.2-0.1,0.3-0.2
		c0.1-0.1,0.3-0.2,0.4-0.4c0-0.1,0.1-0.2,0.1-0.3c0-0.1-0.1-0.3-0.1-0.4c-0.2-0.3-0.4-0.7-0.5-0.6c-0.2,0.3-0.5,0.5-0.8,0.5
		c-0.1,0.3-0.3,0.3-0.5,0.3c-0.1,0-0.3,0.1-0.4,0.2c-0.1,0.1-0.2,0.2-0.3,0.3c0,0.1,0,0.3,0.1,0.4
		C172.3,100.5,172.4,100.6,172.5,100.7z"/>
	<path class="st0" d="M177.1,99.2c0,0,0.1,0,0.1,0c0.1-0.1,0.2-0.1,0.3-0.2l0,0.1c0.1,0,0.2,0,0.3-0.1c0.1,0,0.1-0.4,0-0.6
		s-0.2-0.5-0.3-0.5c-0.3-0.1-0.4,0.3-0.6,0.6c0,0.1,0,0.2,0.1,0.4C177,98.9,177,99.1,177.1,99.2z"/>
	<path class="st0" d="M175.9,99.5l0.1-0.1c0.1,0,0.1-0.2,0-0.4c-0.1-0.1-0.1-0.3-0.2-0.4c-0.2-0.2-0.2-0.1-0.3,0c0,0.1,0,0.2,0,0.3
		c0,0.2,0.1,0.3,0.2,0.5C175.8,99.4,175.8,99.4,175.9,99.5z"/>
	<path class="st0" d="M166.9,102.2c0,0.1,0.1,0.1,0.2,0.2c0.1,0,0.2,0.1,0.4,0c0.2-0.1,0.3-0.2,0.5-0.3c0.4-0.2,0.8-0.2,1.2-0.4
		c0.3-0.1,0.5-0.2,0.8-0.3c0.3-0.1,0.7-0.2,1-0.2c0.3,0,0.5-0.1,0.8-0.1c0.1,0,0.1-0.1,0.1-0.1c0-0.2,0-0.4-0.1-0.6
		c-0.1-0.1-0.1-0.3-0.2-0.4c0-0.1-0.1-0.1-0.1-0.1c-0.2,0.2-0.5-0.1-0.7,0.3c0,0.1-0.1,0-0.2,0s-0.2,0-0.2,0
		c-0.3,0.1-0.6,0.1-0.9,0.2c-0.4,0.2-0.9,0.4-1.4,0.5l0.1,0l-0.3,0.1l-1.1,0.3c-0.1,0-0.1,0.2,0,0.4
		C166.7,101.8,166.8,102,166.9,102.2z"/>
	<path class="st0" d="M163.1,103.7c0.2,0,0.4,0,0.6,0c0.2-0.1,0.3-0.3,0.5-0.3c0.2-0.1,0.3-0.4,0.5-0.2c0.1,0,0,0,0.1-0.1
		c0.1-0.1,0.1-0.2,0.2-0.1c0.3,0.2,0.3-0.4,0.5-0.4c0,0,0-0.3-0.1-0.6c-0.1-0.2-0.2-0.4-0.3-0.4c0,0-0.1,0-0.1,0l-0.8,0.3
		c-0.1,0-0.3,0.1-0.4,0.1c-0.2,0.2-0.4,0.4-0.6,0.6c-0.1,0-0.1,0.1-0.2,0.1l0-0.1c-0.1,0-0.2,0.1-0.2,0.2c0,0,0.1,0.4,0.2,0.6
		C162.9,103.6,163,103.7,163.1,103.7z"/>
	<path class="st0" d="M160.2,104.6c0.1,0.1,0.2,0.2,0.2,0.2c0.1,0,0.2-0.1,0.3-0.1c0.2-0.2,0.4-0.4,0.6-0.7l0,0.1l0.3-0.2
		c0.1-0.1,0.1-0.4,0-0.6c-0.1-0.3-0.1-0.5-0.2-0.5c0,0-0.1,0-0.2,0l-1.2,0.6c-0.1,0-0.1,0.1-0.1,0.1c0,0.1-0.1,0.1-0.1,0.2
		c0,0.1,0,0.3,0.1,0.4C160.1,104.3,160.2,104.5,160.2,104.6z"/>
	<path class="st0" d="M166.5,102.6L166.5,102.6c0.1-0.2,0.1-0.3,0-0.5c-0.1-0.2-0.1-0.4-0.2-0.5c-0.1-0.1-0.2-0.1-0.3-0.2
		c0,0,0,0.1,0,0.2c0.1,0.3,0.2,0.6,0.4,0.9C166.4,102.6,166.5,102.6,166.5,102.6z"/>
	<path class="st0" d="M162.4,103.7c0.1,0.1,0.1,0.1,0.2,0.1h0c0.1,0.1,0.1-0.1,0-0.3c0-0.2-0.1-0.4-0.2-0.5
		c-0.1-0.2-0.3-0.2-0.3-0.1c0,0.2,0,0.4,0.1,0.5C162.3,103.5,162.3,103.6,162.4,103.7z"/>
	<path class="st0" d="M121.8,115.4c-0.2,0-0.3,0.1-0.5,0.1l-1.1,0.4c-0.1,0-0.2,0.1-0.3,0.2c-0.2,0.2-0.4,0.4-0.7,0.4l-0.8,0.1
		l0-0.1c-0.1,0.1-0.2,0.1-0.2,0.2c0,0.1,0,0.3,0,0.4c0,0.2,0.1,0.3,0.2,0.5c0.1,0.1,0.2,0.3,0.2,0.3c0.2,0,0.4,0,0.6,0
		c0.1,0,0.1,0,0.3-0.1c0.2,0,0.4,0,0.5-0.2c0.1-0.2,0.3,0.1,0.4,0c0.1-0.1,0.2-0.3,0.4-0.2c0.1,0.1,0.3,0.1,0.4,0
		c0.2-0.1,0.4-0.1,0.6-0.1c0.2,0,0.6-0.2,0.6-0.2c0,0,0-0.1,0-0.2c0-0.1,0-0.2,0-0.2C122.2,115.9,122,115.4,121.8,115.4z"/>
	<path class="st0" d="M117.5,117.1c-0.3,0.1-0.6,0.3-0.9,0.4c-0.1,0.1-0.3,0.1-0.4,0.1c0,0-0.1,0.1-0.1,0.1c0,0.2,0,0.5,0.1,0.7
		c0.1,0.2,0.2,0.4,0.2,0.4c0.1,0,0.3-0.1,0.4-0.1c0.3-0.2,0.7-0.3,1.1-0.3c0.1,0,0.1,0,0.1-0.1c0-0.3-0.1-0.6-0.2-0.8
		C117.6,117.1,117.5,117.1,117.5,117.1z"/>
	<path class="st0" d="M114.6,118.1c-0.4,0.1-0.7,0.2-0.9,0.5c-0.1,0.1-0.2,0.2-0.3,0.1c0,0-0.1,0-0.1,0c0,0-0.1,0,0,0.3
		c0,0.1,0.1,0.3,0.2,0.4c0.1,0.2,0.1,0.4,0.3,0.3c0.1-0.1,0.2-0.2,0.4-0.2l-0.1-0.1c0.1,0,0.2,0,0.3-0.1c0.2-0.1,0.3-0.2,0.5-0.3
		c0,0,0.1,0,0.1-0.1c0-0.1,0-0.2,0-0.3c0-0.1-0.1-0.3-0.2-0.4C114.7,118.1,114.6,118.1,114.6,118.1z"/>
	<path class="st0" d="M115.3,117.9c-0.1,0.1-0.1,0.1-0.2,0.2c0,0.2,0,0.3,0.1,0.5c0,0.1,0.1,0.2,0.1,0.2c0.1,0.1,0.2,0.1,0.3,0.2
		c0,0,0.1-0.1,0.1-0.1c0-0.1,0-0.2,0-0.2c0-0.1-0.1-0.3-0.2-0.4C115.5,118,115.4,117.9,115.3,117.9z"/>
	<path class="st0" d="M202,82.6L202,82.6C202,82.6,202,82.6,202,82.6z"/>
	<path class="st0" d="M222.3,184.4v-0.3v-0.5c0-1.4-0.1-2.8-0.1-4c-0.1-2.5-0.1-4.5-0.1-5.8c0.1-4.6-0.2-22.8-0.5-41.1
		c-0.2-9.1-0.3-18.3-0.5-25.8c-0.1-3.7-0.2-7-0.2-9.7c0-0.9,0-1.6,0-2.3c0.2,0,0.4-0.1,0.5-0.2c0.4-0.3-0.1-1.5-1.3-1.9l-0.3-0.1
		h-0.3l-0.8-0.1c-1-0.1-2-0.2-3-0.2c-2-0.1-4.1-0.2-6.2-0.2c-4.2-0.1-8.3-0.3-12.5-0.6l0.6-1.2l1.3-2.4l2.5-4.8
		c0.1-0.2,0.2-0.4,0.3-0.7l0-0.1c-0.1-0.2-1.6-1.8-0.9-1l-0.2,0.1l-0.4,0.1l-1.5,0.5l-3.1,1L182,88l-26.2,8.7
		c0.2-0.3,0.3-0.7,0.4-1.1c0.1-0.3,0.1-0.7,0-1c-0.1-0.2-0.2-0.5-0.4-0.7c-0.4-0.6-0.7-1.4-0.7-2.1c-0.3-3.1-1-11.5-1.3-14.6
		c0-0.6-0.2-1.2-0.5-1.7c-0.7-0.9-0.8-2.2-0.3-3.2c0.3-0.6,0.3-1.3,0.3-2c-0.1-0.5-0.7-0.9-0.7-1.4c0.1-0.6,0.2-1.2,0.5-1.7
		c0-0.1-0.1-0.3-0.2-0.4c-0.3-0.2-0.4-0.7-0.2-1c0.3-1.1,0.3-2.2,0.2-3.4c-0.3-1.1-1.2-5-0.5-6.3c0.2-0.3,0-0.7-0.1-1.1
		c-0.2-0.5-1.1-1-0.3-1.7c0.8-0.7-0.5-3.1-0.3-3.8c0.3-1-0.5-7.5-0.7-9l-0.1-0.9c0-0.2-0.4-0.4-0.8-0.5c0-0.1,0.1-0.1,0.1-0.2
		c0.3-0.3,0.3-0.8,0.1-1.1c-0.1-0.1-0.3-0.2-0.4-0.2c-0.8-0.3-1.6-0.9-2.6-0.5c-0.6,0-1.1,0-1.7-0.2l-1.2-0.6
		c-0.2-0.1-0.5-0.2-0.7-0.3l-0.9-0.2l-0.2-0.1c-0.6-0.2-1.2-0.4-1.7-0.5c-0.2-0.1-0.4-0.1-0.7-0.1c-0.4,0-0.8,0-1.2-0.1
		c-0.4-0.1-1-0.2-1.6-0.4c-0.5-0.1-1.2-0.2-1.8-0.3c-0.6,0-1.2-0.1-1.7-0.2c-0.7-0.3-1.4-0.5-2.1-0.6c0,0-0.1,0-0.1,0
		c-0.4-0.1-0.7-0.2-1.1-0.2c-0.1,0-0.2,0-0.4,0l1.2-1.5l0.9-1.3l0.5-0.6c0.1-0.1,0.2-0.2,0.2-0.4c0.1-0.2,0.1-0.3,0.1-0.5
		c0-0.3-0.2-0.6-0.5-0.8c-0.3-0.2-0.7-0.2-1-0.1l-0.4,0.1l-0.8,0.2l-1.5,0.5l-6,1.8l-12.1,3.7l-6.3,1.9c-0.2-0.7-0.4-1.3-0.6-2
		l-0.3-0.9c-0.4-1.2-0.8-2.3-1.3-3.4c-0.6-1.4-1.4-2.8-2.3-4.1c-0.5-1-1.1-1.9-1.9-2.6c-0.1-0.1-0.2-0.2-0.2-0.3
		c-0.9-1-1.7-2-2.6-2.9c-0.9-0.9-1.8-1.9-2.8-2.8c-1.4-1.2-2.6-2.4-3.9-3.7c-0.2-0.2-0.3-0.3-0.5-0.4c-0.9-0.6-1.8-1.3-2.6-1.9
		c-0.2-0.2-0.4-0.3-0.7-0.4c-1-0.6-2-1.2-3-1.7c-1.4-0.9-2.9-1.6-4.5-2.1c-1-0.3-2.2-0.7-3.3-1C73.6,6.1,73.4,6,73.1,6l-0.8-0.1
		c-0.5,0-1.1-0.2-1.6-0.4c-0.1,0-0.3,0-0.4,0c-0.7,0-1.5,0-2.2,0c-0.9,0-1.8,0-2.7,0.1l-0.9,0.1l-0.9,0.2L62,6.2
		c-0.5,0.1-1,0.3-1.5,0.4c-0.5,0.2-1.1,0.3-1.6,0.5l-1.5,0.7c-1,0.4-1.9,0.9-2.8,1.6c-0.4,0.3-0.9,0.6-1.3,0.8l-1.4,1.2
		c-0.7,0.7-1.4,1.4-2,2.1c-0.8,1.1-1.6,2.1-2.3,3.3c-0.5,0.7-0.9,1.4-1.2,2.2l-0.5,1.1l-0.2,0.6l-0.2,0.6L45,22.4
		c-0.3,1.1-0.6,2.2-0.7,3.3c-0.1,0.7-0.1,1.3-0.2,2c0,0.7,0,1.3,0.2,2c0.3,1.3,0.7,2.5,1.5,3.6c0.4,0.8,1.1,1.4,1.9,1.6
		c0.2-0.5-0.3-1.2-0.6-1.9c-0.2-0.6-0.5-1.1-1-1.5c-0.2-0.1-0.3-0.3-0.4-0.4c-0.3-0.3-0.4-0.8-0.3-1.2c0.1-0.3,0.1-0.5,0.1-0.8
		c0-0.3,0.1-0.6,0.2-0.9l0.1-0.4l0.2-0.5c0.2-0.5,0.4-1,0.5-1.5c0.1-0.5,0.2-1,0.4-1.6c0.1-0.5,0.3-1.1,0.5-1.5s0.2-0.9,0.4-1.3
		c0.2-0.4,0.4-0.9,0.5-1.3c0.3-0.8,0.7-1.5,1.2-2.2c0.5-0.7,1-1.4,1.5-2l0.6-0.8l0.7-0.7c0.3-0.3,0.7-0.6,0.9-0.9
		c0.6-0.6,1.3-1.1,2.1-1.6c0.5-0.3,0.9-0.6,1.4-0.9c0.8-0.6,1.7-1.2,2.6-1.6c0.5-0.2,1-0.4,1.5-0.5c0.5-0.2,1-0.3,1.5-0.5l1.2-0.2
		C64,8.2,64.5,8,65,8l1.7-0.1c0.7-0.1,1.5-0.1,2.2,0c0.4,0,0.7,0,1.1,0L71.1,8l1.3,0.2c0.4,0.1,0.8,0.2,1.3,0.3L75.2,9l1.5,0.5
		c0.2,0.1,0.4,0.2,0.6,0.3c0.4,0.2,0.8,0.5,1.2,0.6c0.6,0.3,1.2,0.5,1.8,0.8c1.6,0.9,3.1,1.9,4.5,3c0.5,0.3,0.9,0.7,1.3,1.1
		c0.4,0.4,0.9,0.8,1.4,1.2c0.9,0.7,1.8,1.5,2.7,2.4l2,2c0.6,0.5,1.1,1.1,1.6,1.7c0.7,0.9,1.4,1.8,2.1,2.6c1.1,1.4,2.1,2.8,3,4.4
		c0.4,0.8,0.8,1.6,1.2,2.5c0.6,1.3,1.1,2.7,1.5,4.1c0.1,0.3,0.2,0.7,0.3,1L86.5,42l-16.4,5.1c-0.4-0.3-0.8-0.6-1.2-0.8
		c-0.2-0.1-0.4-0.2-0.6-0.3l-0.6-0.2c-0.6-0.2-1.1-0.5-1.6-0.8c-0.5-0.3-1.1-0.6-1.7-0.8c-0.2-0.1-0.4-0.2-0.5-0.3
		c-1-0.6-2-1.1-3-1.5c-0.6-0.3-1.2-0.5-1.8-0.8c-1.4-0.7-2.7-1.5-4-2.3c-0.6-0.4-1.2-0.7-1.8-1c-0.4-0.2-0.9-0.3-1.4-0.2
		c-0.8,0.1-1.7-0.7-2.5-1.4c-0.3-0.3-0.6-0.6-0.9-0.8c-0.2-0.1-0.4-0.3-0.6-0.4c0.2,0.7,0.7,1.3,1.2,1.8c1,1,2,1.9,3.1,2.8
		c0.3,0.3,0.6,0.6,1,0.9c0.7,0.3,1.5,0.6,2.2,1c0.8,0.4,1.7,0.8,2.4,1.3c0.7,0.5,1.6,0.9,2.3,1.5c0.5,0.3,1,0.5,1.5,0.6
		c1.1,0.5,2.2,1.1,3.4,1.5c0.1,0,0.2,0.1,0.2,0.1c0.6,0.4,1.2,0.7,1.9,1l-13,4L40,56.3l-6.9,2.1H33c-1.2,1.6-0.3,0.4-0.6,0.8v0.4
		v0.5V61l0,2c-0.1,1.2-0.1,2.4-0.2,3.6c-0.8,16.2-1.5,33.2-2.5,55.1c-0.5,11.4-2,22.1-2.2,33c-0.1,4.5-0.2,9.1-0.3,13.6
		c-0.1,2.3-0.1,4.5-0.2,6.8l-0.1,3.4v0.4v0.3c-0.1-0.2,0.5,1.4,0.3,0.7l0.6,0.6l1.2,1.2l5.5,6l7.4,8l3.7,4l1.9,2l0.5,0.5l0.2,0.2
		l0.1,0.1l1.1,0.2h0.1l1.3-0.5c10.8-4.1,21.7-8.1,32.5-11.5c0.4-0.1,0.9-0.3,1.5-0.5l2.4-0.9c0.4-0.2,0.6-0.2,0.8-0.3l0.4-0.2
		c0.2-0.1,0.3-0.2,0.4-0.4c0.1,2.4,0.3,4.7,0.3,7.1c0,1.8-0.1,3.6-0.1,5.5v1.2v0.6v0.4c-0.1-0.3,0.1,0.4,0.1,0.3l0.1,0.1l1.5,1.8
		l3,3.5c0.8,0.9,1.7,1.7,2.6,2.5c2.2,2.1,4.3,4.3,6.2,6.6c1.4,1.6,3.4,3.8,6,6.8l0.8,0.9l0.4,0.5l0.2,0.2l0.1,0.1l0.8,0.2h0.1
		l2.5-0.9l5-1.9c3.4-1.3,6.5-2.4,8.7-3.3c9.2-3.7,41.6-16.3,51.1-19.2c2.7-0.8,5.9-2.2,8.8-3.3c4.5-1.8,8.4-4,13.6-5.2
		c2.9-0.7,10.8-3.8,18-6.6l2.1-0.8l1-0.4h0.1C222.8,183.7,222.1,184.7,222.3,184.4z M196.7,92.7C196.9,93.1,196.6,92.5,196.7,92.7
		L196.7,92.7z M189.2,87.2l6.5-2.2l3.1-1l0.9-0.3l-2.2,4.3l-1.2,2.3l-0.5,1l-0.2,0.4c0,0-0.1,0-0.1,0c-0.1,0-0.2,0-0.3,0.1l-1.5,0.6
		l0,0c-0.1,0-0.2,0-0.3,0l-1.2,0.4c-0.1,0-0.1,0-0.1,0c0,0.1,0,0.2,0,0.4c0,0.2,0.1,0.3,0.2,0.4c0.1,0.1,0.2,0.2,0.3,0.2
		c0.3,0,0.7,0,1-0.2c0.2-0.2,0.5-0.4,0.8-0.2c0.1,0.1,0.2-0.1,0.3-0.1c0.1,0,0.1-0.1,0.2-0.1c0.2,0,0.5,0.1,0.7,0.2
		c0.2,0.1,0.4-0.1,0.5-0.3c0,0,0,0,0,0h0.2l13.8,1l5.8,0.4c-0.3,0.2-0.7,0.4-1,0.6c-1.3,0.9-2.8,1.5-4.3,2l-30.3,10.5
		c-1.2,0.4-2.4,0.9-3.4,1.6c-2,1.3-4.3,2.1-6.7,2.3c-1.4,0.2-2.8,0.5-4.1,1c-1,0.4-1.9,1.3-2.9,1.6c-1.2,0.3-2.4,0.5-3.7,0.6
		c-0.3,0.1-0.6,0.3-0.8,0.5c-0.6,0.5-1.3,0.8-2.1,0.9c-2.4,0.4-4.7,1.1-7,1.9c-2.3,1-10.4,4.4-13,4.4c-0.8,0.1-1.6,0.4-2.2,0.8
		c-1.1,0.5-1.9,1.7-3.4,1.3c-1.5-0.3-6.4,2.5-7.9,2.7c-1.8,0.3-11.5,3.7-16.4,5.5c0.6-1.3,1.4-2.5,2-3.8c1.1-2,2.2-4,3.3-5.9
		l1.5-2.6l0.1-0.2c-1.4-2.4-0.4-0.7-0.7-1.2h-0.2c0,0,0-0.1,0-0.1c-0.1-0.1-0.2-0.1-0.3-0.2c-0.1,0-0.1,0.1,0,0.2h-0.4c0,0,0,0,0,0
		c0-0.2-0.1-0.2-0.1-0.2c-0.1,0-0.2,0-0.4,0c0,0-0.1,0.2-0.1,0.2c0,0,0,0,0,0h-0.7h-0.7h-0.3h-0.7L107,119l-5.9-0.1l-6.8-0.1l25-8.3
		c0.2,0.1,0.5,0.2,0.8,0.2c0.5,0,1.3-0.5,1.3-0.9l24.3-8.1l29.7-9.9L189.2,87.2z M105.7,177.4c0.1,0.8,0.7,1.5,0.8,2.3
		c0,0.9-0.2,1.8-0.4,2.7c0,0.2,0.1,0.5,0.3,0.6c0.3,0.5,0.4,1.1,0.3,1.6c-0.2,1.8-0.2,3.6,0,5.3c0.1,0.5,0.3,1.4,0.4,2.4l-0.3,0.1
		c-0.1,0-0.1,0.1-0.2,0.1c-0.2,0-0.3,0.1-0.5,0.1c-0.2,0.1-0.3,0.2-0.5,0.1c-0.1,0-0.1,0-0.1,0c-0.2,0.2-0.4,0.5-0.7,0.5
		c-0.1,0-0.2,0.1-0.3,0.1c-0.1,0.1-0.3,0.2-0.4,0.3c-0.2,0.2-0.3,0.4-0.4,0.5c-0.1,0.1-0.3,0.2-0.5,0.3c-0.1,0.1-0.3,0.3-0.5,0.4
		c-0.3,0.1-0.5,0.2-0.7,0.5c-0.1,0.1-0.2,0.1-0.3,0.1l-0.5,0l-0.6,0.5c-0.1,0.1-0.2,0.2-0.3,0.3c-0.2,0.1-0.4,0.2-0.6,0.3
		s-0.2,0.2-0.4,0.2c-0.4-0.1-0.6,0.2-0.9,0.5c-0.1,0.2-0.4,0.2-0.6,0.1c-0.2-0.1-0.2,0-0.4,0.1c-0.1,0.1-0.2,0.3-0.5,0.3
		c-0.3,0-0.5,0.1-0.6,0.4c-0.1,0.2-0.2,0.4-0.4,0.5c-0.3,0.2-0.5,0.5-0.8,0.7c-0.1,0.1-0.2,0.1-0.3,0.1c-0.2,0-0.4,0.1-0.6,0.1
		c-0.2,0-0.3,0.2-0.4,0.3c-0.2,0.1-0.5,0.3-0.7,0.4l-0.7,0.3c-0.1,0-0.2,0.1-0.2,0.2c0,0.1-0.1,0.2-0.1,0.3
		c-0.2,0.1-0.3,0.2-0.5,0.2c-0.1,0-0.2,0.1-0.3,0.1c-0.2,0.2-0.4,0.5-0.6,0.5c-0.1,0-0.1,0.1-0.3,0.2c-0.2,0.1-0.3,0.1-0.5,0.2v-1.2
		c0.1-3.5,0.2-7,0.3-10.6c0.3-9.8,0.3-20.4,0-30.1c-0.2-6.9-0.4-13.7-0.4-20.6c0-2.6,0-5.4,0-8.9v-10.3l0.5,0.1
		c1.2,0.2,2.5,0.3,3.7,0.3c2.3,0.1,5.2,0,7.5,0c2.3,0,4.5-0.2,6.7-0.7c0.8-0.1,1.6-0.1,2.3,0l0.2,0c-0.1,0.2-0.3,0.3-0.4,0.5
		c-0.6,1.1-1,2.3-1.4,3.5c-0.6,1.5-1.3,3.2-2,4.7c-0.9,1.8-2,3.3-3.4,4.7l-0.2,0.1c-0.1,0-0.2,0.2-0.2,0.3c-0.1,0.1-0.2,0.2-0.3,0.3
		l-0.1,0.1c-0.3,0.3-0.4,0.7-0.4,1.1c-0.3,0.4-0.6,0.9-0.7,1.5v0.5c0,0.6,0.1,1.3,0.5,1.8c0.5,1.1,0.7,2.2,0.7,3.4
		c0.4,5,1.5,18.3,1.9,23.3c0,0.9,0.2,1.8,0.6,2.7c0.7,1.6,0.9,3.4,0.4,5.1C105.7,175.3,105.6,176.3,105.7,177.4z M125.7,32
		c1.1-0.3,2.2-0.5,3.3-0.9l0.5-0.1c-0.5,0.7-0.9,1.4-1.4,2.1c0,0.4,0,0.8,0,1.2c-0.2,0.1-0.4,0.1-0.5,0.2c-0.9,0.6-1.9,1.1-3,1.3
		c-0.3,0.2-0.7,0.3-1.1,0.4c-0.5,0.2-1,0.4-1.6,0.5c-0.5,0.1-1.1,0.3-1.6,0.6c-1,0.2-2,0.4-3,0.6c-0.7,0.1-1.4,0.3-2.1,0.6
		c-0.7,0.4-1.5,0.6-2.3,0.7c-0.8,0.1-1.6,0.3-2.4,0.4c-0.2,0-0.3,0.1-0.5,0.2c-0.2,0.1-0.3,0.1-0.5,0.2c-1.4,0.4-2.8,0.9-4.2,1.4
		c-0.1,0-0.3,0.1-0.5,0.1c0-0.1,0.1-0.3,0.1-0.4c0-0.5,0-1,0-1.5c0-0.2-0.1-0.5-0.1-0.8c-0.1-0.3-0.2-0.6-0.2-1
		C111.7,35.8,118.7,33.7,125.7,32z M68.9,49.1c0.4,0.3,0.8,0.6,1.1,0.9c0.8,0.6,1.3,1.3,1.7,2.2c0.4,1,0.9,1.7,1.2,2.5
		c0.1,0.2,0.2,0.3,0.3,0.4l0.2,0.2l0.1,0.1v0.1l-1.9,0.2l2-0.1v-0.1v-0.1v-0.1V55c0-0.2,0-0.4,0.1-0.6c0-0.1,0-0.1,0-0.2
		c0.1,0,0.1,0,0.2,0c0.4,0.1,0.8-0.1,1-0.4c0.2-0.2,0.3-0.4,0.5-0.6c0.1-0.2,0.2-0.5,0.2-0.8c0-0.3-0.2-0.6-0.5-0.7
		c-0.3-0.1-0.7,0-0.9,0.2c-0.2,0.1-0.4,0.2-0.5,0.2c-0.1-0.5-0.2-1-0.5-1.4c-0.5-0.9-1-1.8-1.7-2.5l28.3-8.7
		c0.9-0.3,1.9-0.6,2.8-0.9c0.1,0.2,0.2,0.5,0.3,0.7c0.3,0.8,0.7,1.5,1.2,2.1l0.4,0.3l0,0c-0.5,0.1-1.1,0.3-1.6,0.4
		c-0.7,0.2-1.4,0.3-2.1,0.5c-0.1,0-0.1,0-0.2,0.1c-0.5,0.4-1.2,0.6-1.9,0.4c-0.3,0-0.7,0-1,0.1c-0.4,0.2-0.8,0.3-1.2,0.5
		c-0.3,0.1-0.6,0.3-0.9,0.5c-0.7,0.5-1.6,0.9-2.5,1.1c-0.8,0.2-1.6,0.7-2.2,1.3c-0.1,0.2-0.1,0.4,0.1,0.6c0,0,0,0,0,0
		c0.2,0.2,0.5,0.3,0.8,0.2l1-0.4c0.4-0.3,1.1-0.2,1.6-0.5c0.5,0,0.9,0,1.4,0c0.4,0,0.8-0.1,1.1-0.4c0.7-0.5,1.5-0.9,2.3-1.1
		c0.7-0.3,1.4-0.6,2.1-0.9c0.3-0.1,0.5-0.5,0.8-0.5c0.5,0,0.8-0.4,1.2-0.6c0.2-0.1,0.3-0.1,0.5-0.1c0.7,0,1.3,0,2,0
		c1.3,0.1,2.6-0.1,3.8-0.5c0.9-0.3,1.9-0.6,2.8-0.8c0.4-0.1,0.8-0.2,1.2-0.4c0.6-0.2,1.2-0.5,1.7-0.7c0.3-0.1,0.5-0.2,0.8-0.2
		c0.7-0.1,1.4-0.3,1.9-0.7c0.4-0.3,0.8-0.4,1.2-0.5c0.8-0.1,1.5-0.6,2.3-0.6c0.1,0,0.2-0.1,0.3-0.2c0.7-0.4,1.5-0.7,2.3-0.9
		c0.6-0.2,1.3-0.4,1.8-0.8c0.2-0.1,0.3-0.2,0.5-0.3c0.2-0.1,0.4-0.1,0.6,0c0.6,0.4,1.1,0.1,1.5-0.2c0.2-0.2,0.4-0.5,0.5-0.7
		c0-0.1,0.1-0.1,0.1-0.2c0.5,0.1,1.1,0.2,1.6,0.4c0.7,0.2,1.3,0.4,2,0.5c0.5,0,1.1,0.1,1.6,0.2c0.5,0.1,1,0.2,1.6,0.4
		c0.1,0,0.3,0.2,0.4,0.3c0.2,0.1,0.4,0.1,0.6,0.2c0.3,0,0.6-0.1,0.9-0.1c0.4,0.1,0.9,0.2,1.3,0.2c0.2,0,0.4-0.1,0.5,0
		c0.3,0.1,0.5,0.1,0.8,0.1c0.4-0.1,0.7,0,1,0.2c0.1,0.1,0.2,0.1,0.3,0.2c0.4,0,0.9,0,1.3,0.1c0.3,0.1,0.7,0.2,1,0.3
		c0.2,0.1,0.4,0.2,0.6,0.3c0.1,0.1,0.3,0.2,0.5,0.2c-0.2,0.1-0.4,0.2-0.5,0.4c-1.2,0.8-2.5,1.4-3.8,1.7l-26.8,8.6
		c-1.1,0.3-2.1,0.8-3,1.3c-1.7,1.2-3.8,1.8-5.9,1.9c-1.3,0.1-2.5,0.3-3.7,0.7c-0.9,0.3-1.6,1.2-2.5,1.5c-1.1,0.2-2.2,0.4-3.3,0.4
		c-0.3,0.1-0.5,0.2-0.7,0.5c-0.5,0.5-1.1,0.8-1.8,0.8c-2.1,0.3-4.2,0.8-6.2,1.5c-2,0.9-9.1,3.8-11.5,3.6c-0.7,0-1.4,0.3-2,0.7
		c-1,0.5-1.6,1.6-3,1.1c-1.3-0.4-5.7,2.1-7,2.2c-1.6,0.2-9.9,2.9-14.3,4.4c0-2,1.4-3.2,2.4-4.7c0.9-1.3,1.8-2.6,2.7-3.8h0h0.1l0-0.1
		c0.1-0.2,0.2-0.3,0.3-0.5l0,0c0,0,0,0,0,0c0.5-0.2,1-0.4,1.6-0.6c0.8-0.3,1.6-0.5,2.4-0.6c1.2-0.2,2.3-0.7,3.4-1
		c0.8-0.3,1.6-0.5,2.4-0.8c0.4-0.1,0.8-0.3,1.2-0.6c0.4-0.2,0.7-0.6,0.9-1.1c0.3-0.7,0.2-0.9-0.5-1c-0.5-0.1-1-0.1-1.5-0.1
		c-0.2,0-0.4,0-0.6,0.2c-0.7,0.5-1.5,0.8-2.3,1c-0.8,0.3-1.6,0.6-2.5,0.8c-1,0.2-2.1,0.5-3.1,0.8c-0.6,0.2-1.2,0.3-1.7,0.4
		c0-0.1,0-0.1,0,0c-0.2,0-0.4,0.1-0.6,0.1h0h-0.8l-0.1,0l0,0l0,0l-1.3-0.1l-0.9-0.1c-0.1,0-0.2,0-0.3,0c-0.2,0-0.4,0-0.6,0l-1.5-0.1
		L43.5,58l-3.4-0.1l2.8-0.9L68.9,49.1z M45.8,197l-5-5.4c-3.3-3.6-6.7-7.2-10.1-10.6l-1.2-1.4c0.1,0,0.2,0,0.3-0.1
		c0.3-0.1,0.6-0.2,0.9-0.3c0.3-0.1,0.4,0,0.4-0.3c0-0.2,0.2-0.4,0.4-0.4c0.1,0,0.2-0.1,0.3-0.2c0.1-0.3,0.4-0.5,0.6-0.5
		c0.1,0,0.2,0,0.3-0.1c0.1-0.2,0.4-0.3,0.6-0.3h0.1l0.7-0.5c0.1-0.1,0.3-0.2,0.4-0.3c0.2-0.2,0.6-0.4,0.9-0.5
		c0.3-0.1,0.6-0.2,0.9-0.4l0.5-0.3l0.6-0.3c0,0,0,0,0.1,0c0.4-0.1,0.7-0.2,1.1-0.3c0.2,0,0.3-0.2,0.4-0.4s0.1-0.5,0.4-0.5
		c0.2-0.2,0.5-0.3,0.7-0.5c0.2-0.1,0.3-0.1,0.5-0.2c0.2-0.1,0.5-0.2,0.7-0.3c0.2-0.1,0.2-0.2,0.4-0.2c0.4-0.1,0.8-0.4,0.9-0.9
		c0.1-0.2,0.1-0.6,0.2-0.7c0.2-0.2,0.5-0.3,0.8-0.4c0.3,0,0.7,0,0.9-0.2c0.2-0.2,0.2-0.1,0.4-0.2l0.4-0.2c0.2-0.1,0.4-0.3,0.7-0.3
		c0.3,0,0.3-0.3,0.2-0.9c-0.1-0.2-0.2-0.4-0.3-0.4c-0.2-0.1-0.4-0.1-0.6-0.1c-0.1,0-0.2,0.1-0.2,0.2c-0.1,0.1-0.3,0.2-0.5,0.3
		s-0.4,0.4-0.7,0.5c-0.3,0.1-0.5,0.3-0.8,0.4l-0.4,0.1c-0.3,0.2-0.7,0.3-1,0.4c-0.3,0.2-0.6,0.3-0.8,0.5c-0.3,0.2-0.3,0.1-0.4,0.3
		c-0.2,0.4-0.5,0.7-0.8,0.9c-0.2,0.1-0.5,0.2-0.8,0.3c-0.2,0.1-0.4,0.2-0.7,0.2c-0.3,0-0.6,0.1-0.8,0.3c-0.2,0.1-0.3,0.2-0.5,0.3
		l-0.3,0.2c-0.2,0.1-0.4,0.2-0.6,0.3c-0.1,0-0.2,0.1-0.3,0.1c-0.1,0-0.2,0.1-0.4,0.2s-0.3,0.3-0.7,0.1c0,0-0.1,0-0.1,0
		s-0.1,0.1-0.2,0.1c-0.3,0.2-0.7,0.5-1,0.7c-0.3,0.2-0.5,0.2-0.7,0.4c-0.2,0.1-0.4,0.2-0.6,0.4c-0.1,0.2-0.3,0.3-0.6,0.3
		c-0.3,0-0.5,0-0.8,0c0,0-0.1,0-0.1,0c-0.1,0.3-0.3,0.3-0.4,0.4c-0.2,0.1-0.1,0.1-0.1,0.1c-0.1,0-0.3,0.1-0.3,0.3
		c0,0.1-0.1,0.3-0.2,0.3c-0.2,0.1-0.4,0-0.5,0.2c0,0-0.1,0-0.1,0c-0.1,0-0.1,0-0.2-0.1v-0.7c0-2,0.1-4,0.1-6c0.1-4,0.2-7.9,0.4-11.9
		c0.3-7.9,0.9-15.8,1.7-23.7c0.3-3.2,0.5-6.9,0.6-10.4c0.7-14,1.1-23.5,1.8-37.5c0.2-4.2,0.5-8.8,0.4-12.5c-0.1-2.7-0.1-5.3,0-8
		c0-1.4,0.1-2.8,0.1-4.2l0-1.3c0,0,0.1,0,0.1,0.1l0.8,0.1c1,0.2,1.9,0.4,2.9,0.4c1.8,0.1,4.1,0,6,0c1.8-0.1,3.6-0.4,5.4-1
		c0.8-0.2,1.6-0.1,2.3,0.2c-0.1,0.2-0.1,0.4-0.2,0.6c-0.5,1.3-1.1,2.5-1.8,3.7c-1,1.6-2.5,2.8-4.3,3.5c-0.2,0.1-0.4,0.3-0.5,0.5
		c-0.1,0.2-0.2,0.4-0.3,0.7c-0.1,0.6,0,1.1,0.3,1.6c0.2,0.3,0.5,0.5,0.9,0.6c0,0.2,0,0.4,0,0.5c-0.6,0.2-1.4,0.9-1.6,2
		c0,0.2-0.1,0.3-0.1,0.5c0,0.9,0.1,1.8,0.4,2.7c0.4,1.6,0.6,3.3,0.6,5c0.2,7.2,0.7,26.5,0.9,33.7c0,1.3,0.1,2.7,0.5,4
		c0.7,2.4,0.7,5,0.2,7.4c-0.3,1.5-0.4,3-0.3,4.5c0,1.1,0.7,2.2,0.7,3.4c-0.1,1.3-0.3,2.6-0.5,3.9c0,0.3,0.1,0.7,0.2,1
		c0.3,0.8,0.4,1.6,0.2,2.4c-0.3,2.5-0.4,5.1-0.2,7.7c0.3,2.6,1.1,11.8,0.3,14.4c-0.1,0.8-0.1,1.7,0.1,2.5c0.2,1.3,1.1,2.5,0.3,3.8
		s0.4,7.2,0.2,8.8c-0.3,2,0.2,14.5,0.4,19.5L45.8,197z M87.3,185.9c-0.3,0.3-0.6,0.5-0.9,0.7l-0.2,0.1c-0.1,0.1,0,0-0.7,0.3
		l-3.1,1.2c-4.2,1.6-8.4,3.2-12.7,4.8l-19.1,7.2c0,0,0,0,0,0c-0.3-4.1,0-27.1-1.3-31.1c-0.1-0.3-0.2-0.7-0.1-1
		c1.2-3.6,0.1-13.9,0.2-17.6c0-1.9-0.1-3.8-0.5-5.7c-0.8-3.6-0.8-7.3-0.2-10.9c0.4-2.7,0.3-5.4-0.2-8c-0.4-1.8-0.6-3.6-0.6-5.4
		c-0.2-10.4-0.7-32.9-0.9-43.3l-0.1-2.5l-0.1-1.4c0-0.1,0-0.1,0-0.2c0.3,0.1,0.6,0.1,0.9,0l0.2-0.1c3.2-1.3,21.7-6.2,24.6-8.4
		c0.2-0.2,0.5-0.3,0.8-0.3c3.2,0.3,11.2-3.1,14.2-3.8c1.5-0.4,3-1,4.4-1.7c2.6-1.6,5.6-2.5,8.7-2.7c2.2-0.2,4.4-0.9,6.3-2
		c1.3-0.8,2.7-1.4,4.2-1.9l34.5-10.8l2-0.7l0.8-0.3c0,0,0,0,0,0.1c0,0.1,0,0.1,0,0.2c0.4,1.8,0.3,11.8,1.7,13.5
		c0.1,0.1,0.2,0.3,0.1,0.4c-1.1,1.7,0.1,6.1,0,7.7c0,0.8,0.2,1.7,0.5,2.4c0.8,1.4,0.9,3.2,0.3,4.7c-0.4,1.1-0.3,2.4,0.2,3.5
		c0.4,0.7,0.6,1.5,0.7,2.3c0.3,4.5,1.1,14.3,1.5,18.8l0.1,0.9l0.2,1.6c0,0.3,0.1,0.5,0.3,0.7l-4.6,1.5l-27.7,9.2
		c0.1-0.8,0.1-1.6-0.2-2.3c-0.2-0.5-0.4-1.1-0.5-1.7c-0.1-0.5-0.2-1.4-0.2-1.2c-0.1-0.1,0-0.2,0-0.2c-0.1-0.4-0.1-0.8-0.1-1.1
		c0-0.1-0.3-0.1-0.5-0.2c-0.1,0-0.3,0-0.4,0l-1.1,0c-0.2,0-0.3,0.1-0.5,0.2c0,0.3,0,0.6,0,0.9c0,0.1,0,0.3,0,0.4v0.1v1l0.1,3.2
		c0,0.7,0.1,1.3,0.3,2l-28.1,9.4l-0.9,0.3l-0.4,0.1l-0.5,0.6v3.4c0,2.9,0,5.9,0.1,8.8c-0.1,0-0.2-0.1-0.2-0.1
		c-0.6,0-1.2-0.2-1.7-0.5c-0.2-0.2-0.4-0.4-0.6-0.5l-0.1-0.1c-0.3-0.1-0.3-0.3-0.4-0.4c-0.6-1.1-1-2.3-1.2-3.6
		c-0.3-1.3-0.4-2.7-0.5-4c0-0.1-0.1-0.3,0.1-0.4c0.4-0.4,0.6-0.7,0-0.9c-0.7-0.3-0.2-0.6-0.2-0.9c0-2.7,0.1-5.5,0.2-8.2
		c0-0.3,0-0.6,0-0.9l0.1-0.9l0.1-0.9l0.1-0.9c0-0.3,0.4-0.6,0-0.9c-0.4-0.3,0.2-0.6,0.2-0.9c0-0.5,0-1.1,0.1-1.6
		c0-0.2,0.1-0.3-0.6-0.5c-0.3-0.1-0.2-0.2,0.1-0.3c1.3-0.4,1.1-0.9,0.4-1.4c-0.7-0.5-1.1-0.9,0.1-1.2c0.1,0,0.1-0.1-0.1-0.2
		c-0.6-0.2-0.4-0.3,0-0.4c0.3-0.1,0.4-0.2,0.1-0.3c-1.1-0.5-0.8-0.9-0.1-1.3c0.1,0,0.5-0.1,0.3-0.1c-0.7-0.2-0.4-0.3-0.2-0.4
		s-0.5-0.7-0.4-0.9s0.2-0.3,0.8-0.4c0.6-0.1,0.3-0.2,0-0.4c-0.3-0.2-0.5-0.3-0.5-0.4c0-0.5,0.1-0.9,0.1-1.3c0-0.2,0-0.4,0-0.6
		c0-0.3-0.2-0.6-0.5-0.6c-0.4,0-0.7,0-1.1,0c-0.2,0-0.3,0-0.5,0.1c-0.2,0.1-0.2,0.2-0.2,0.3C82.1,96,82,96.9,82,97.8
		c0.1,0.7-1,1.2,0.8,2c0.1,0.1,0.1,0.1,0,0.2c-0.3,0.2-1,0.3-1,0.5s0.6,0.4,0.9,0.7c0.1,0.1,0,0.1,0,0.2l-0.5,6.2
		c-0.2,3-0.5,5.9-0.6,8.9c-0.1,1.8-0.1,3.7,0,5.5c0.1,2.1,0.4,4.3,0.9,6.3c0.2,0.6,0.4,1.2,0.5,1.8c0.2,0.4,0.4,0.8,0.6,1.1
		c0.1,0.2,0.2,0.4,0.2,0.7c0,0.1,0,0.1,0,0.2v0.1c0,0.1-0.1,0,0.2,0.3c0.7,1.1,1.7,2,2.8,2.7c0.5,0.2,1,0.2,1.5-0.1
		c0.2-0.1,0.3-0.2,0.5-0.3c0,1.1,0.1,2.1,0.1,3.2c0.5,9.5,0.4,18.6,0,28.1c-0.2,5.5-0.3,11.2-0.3,16.9c0,1,0,1.9,0.1,2.9
		C88.3,185.5,87.7,185.5,87.3,185.9z M98.7,212.6c-1.7-1.9-3.5-3.7-5.2-5.6l-2.5-2.8l-0.1-0.1c0.1,0,0.1,0,0.2,0
		c0.1,0,0-0.2,0.3-0.2c0.2,0,0.3-0.2,0.4-0.3c0.1-0.1,0.2-0.2,0.4-0.2c0.2,0,0.3-0.1,0.4-0.2c0.1-0.1,0.1-0.2,0.2-0.3
		c0.2-0.1,0.5-0.1,0.6-0.3c0.1-0.2,0.3-0.3,0.5-0.3c0.1,0,0.3-0.1,0.4-0.2c0.2-0.1,0.2-0.2,0.4-0.3s0.5-0.2,0.6-0.2
		c0.1,0,0.3-0.1,0.3-0.3c0-0.2,0.1-0.3,0.3-0.5c0.2-0.1,0.4-0.2,0.7-0.3c0.1-0.1,0.2-0.1,0.2-0.2c0.1-0.2,0.2-0.4,0.4-0.5
		c0.1-0.1,0.1-0.1,0.2-0.2c0.1-0.1,0.3-0.2,0.5-0.3c0.2,0,0.4-0.2,0.5-0.3c0.1-0.1,0.1-0.2,0.2-0.2c0.1-0.1,0.2-0.1,0.3-0.1l0.6-0.2
		c0.2-0.1,0.5-0.2,0.7-0.2c0.1-0.1,0.3-0.2,0.4-0.3s0.3,0,0.4-0.1c0.2-0.1,0.5-0.3,0.7-0.5c0.3-0.2,0.6-0.4,0.9-0.5
		c0.1,0,0.2-0.1,0.2-0.1c0.2-0.2,0.2-0.4,0.5-0.4c0.4,0,0.7-0.4,1-0.8c0-0.1,0.1-0.1,0.2-0.1c0.3,0,0.5,0,0.6-0.4l0.5-0.3
		c0.1-0.1,0.2-0.2,0.4-0.3l0.1-0.1c0.1-0.1,0.2-0.1,0.3-0.2c0.1-0.2,0.2-0.3,0.2-0.5c0.1-0.4,0.4-0.4,0.5-0.6c0,0,0.1-0.1,0.1-0.1
		c0.4,2.6,0.7,5.9,0.2,7.2c-0.1,0.6-0.1,1.2,0.2,1.7c0.2,0.9,1.1,1.6,0.4,2.6s0.6,5,0.4,6.1c-0.2,1.4,0.5,9.4,0.9,13
		C105.6,219.9,102.2,216.3,98.7,212.6z M217.9,184.4c-11.5,4.4-20.5,7.9-24.4,9.7c-1.1,0.5-2.3,1-3.5,1.3c-13,3.9-49.4,18.3-62.4,23
		c-2,0.8-6,2.2-9.9,3.8l-5.7,2.2l-0.1,0c0,0,0,0,0,0c-0.5-2.9-0.8-18.8-2.2-21.5c-0.1-0.2-0.2-0.4-0.1-0.7c1.1-2.6-0.3-9.6-0.3-12.2
		c-0.1-1.3-0.3-2.6-0.6-3.9c-0.9-2.4-1.1-5-0.5-7.5c0.3-1.8,0.2-3.7-0.4-5.5c-0.4-1.2-0.7-2.5-0.8-3.7c-0.5-7.2-1.7-22.7-2.2-29.9
		c0-0.6-0.1-1.2-0.2-1.8l-0.1-0.7c0.3-0.1,0.6-0.3,0.9-0.6l0.1-0.1c0.1-0.1,0.2-0.2,0.3-0.4c4.5-1.7,24.3-7.6,27.5-10
		c0.2-0.2,0.6-0.3,0.9-0.4c3.6,0.1,12.6-3.9,16-4.8c1.7-0.5,3.4-1.2,5-2c3-1.7,6.4-2.9,9.8-3.3c2.5-0.4,4.9-1.2,7.2-2.4
		c1.5-0.9,3.1-1.6,4.7-2.2l39-13.2l2.3-0.8l0.9-0.4c0.1,6.1,0.3,20.7,0.5,37.7c0.1,8.8,0.2,18.2,0.4,27.4c0.1,4.6,0.1,9.2,0.2,13.5
		c0,2.2,0.1,4.3,0.1,6.4v1.6v0.2L217.9,184.4z"/>
	<path class="st0" d="M85.1,83.8c-0.6-0.1-1.1-0.1-1.7,0c-0.2,0.1-0.4,0.2-0.4,0.3l-0.2,2.5c-0.1,0.9-0.2,1.8-0.3,2.8
		c0,0.1-0.1,0.2,1,0.3c0.8,0.1,1.4,0,1.5-0.2c0-0.1,0-0.1,0-0.2c0.1-1.4,0.2-2.8,0.2-4.2c0-0.2-0.5-0.3-0.7-0.5
		c-0.3-0.2,0.5-0.3,0.7-0.5S85.3,84,85.1,83.8z"/>
	<path class="st0" d="M84.9,90.1c-0.3-0.1-0.5-0.1-0.8-0.2c-0.5-0.1-1,0-1.4,0.1c-0.1,0.1-0.1,0.2-0.1,0.3l-0.4,3.8
		c0,0.1,0,0.2,0.2,0.3c0.2,0.1,0.3,0.1,0.5,0.1c0.4,0.1,0.8,0.1,1.1,0.1c0.2,0,0.5,0,0.7-0.2c0,0,0.1-0.1,0.1-0.2
		c0.1-1.3,0.2-2.6,0.2-4C85,90.2,85.1,90.2,84.9,90.1z"/>
	<path class="st0" d="M82.7,79.9c0.1,0.4,0.2,0.8,0.3,1.2c0.1,0.1,0,0.2,0,0.3c0,0.5,0,1.1,0.1,1.6c0,0.1,0.3,0.2,0.5,0.3H84
		c0.3,0,0.8,0,0.9,0c0.3-0.1,0.5-0.1,0.5-0.2c0-0.4,0.1-0.9,0.1-1.3c0-0.2,0-0.4,0.1-0.6v-0.4V80c0-1.1-0.1-2.2-0.2-3.3
		c-0.1-1-0.4-2-0.9-2.8c-0.4-0.4-1-0.5-1.5-0.4c-0.4,0.2-1.1,0.8-1.1,1.1c0.1,1.2-0.1,2.6,0.4,3.7C82.4,78.8,82.6,79.4,82.7,79.9z"
		/>
	<path class="st0" d="M117.2,67c0.1,0.4,0.1,0.7,0.1,1.1v0.1c0,0.2-0.1,0.3-0.1,0.3c0,2,0,3.7,0,5.7c0,0.1,0.1,0.2-0.1,0.3
		c-0.4,0.2-0.7,0.5,0,0.7c0.7,0.2,0.1,0.4,0.1,0.6l-0.1,5.7c0,0.2,0,0.4,0,0.6v1.8c0,0.2-0.4,0.4,0.1,0.6c0.5,0.2-0.2,0.4-0.1,0.6
		c0,0.4,0,0.7,0,1.1c0,0.1,0,0.2,0.7,0.3c0.3,0,0.2,0.1,0,0.2c-1.3,0.4-1,0.7-0.3,1c0.7,0.3,1.2,0.5,0,0.9c-0.1,0-0.1,0.1,0.1,0.1
		c0.6,0.1,0.5,0.2,0,0.3c-0.3,0.1-0.3,0.1-0.1,0.2c1.2,0.2,0.9,0.5,0.2,0.9c-0.1,0-0.5,0.1-0.3,0.1c0.7,0.1,0.5,0.2,0.3,0.3
		s0.5,0.4,0.5,0.6c0,0.2-0.2,0.2-0.7,0.3c-0.6,0.1-0.3,0.2,0.1,0.3c0.4,0.1,0.5,0.1,0.5,0.2c0,0.3,0,0.6,0,0.9c0,0.1,0,0.2,0.1,0.4
		c0.1,0.2,0.3,0.4,0.6,0.4c0.3,0,0.8,0,1.1-0.1c0.2,0,0.3,0,0.5-0.1c0.2-0.1,0.1-0.1,0.1-0.2c0.1-0.6,0.1-1.2,0-1.8
		c-0.1-0.4,0.9-0.9-1-1.3c-0.1,0-0.1-0.1,0-0.1c0.3-0.2,1-0.3,1-0.4s-0.6-0.2-0.9-0.4c-0.1,0,0-0.1,0-0.1c0-1.4,0-2.9,0-4.3l0.1-6.1
		l0.1-3.8v-4.3c0-0.4,0-0.8,0.1-1.1c0.1-0.3-0.1-0.5-0.1-0.8c0-0.2,0.1-0.3,0.2-0.4c0,0,0.1-0.1,0.1-0.1h0.1c0,0,0.1,0.1,0.1-0.3
		c0.1-1,0.2-2,0.4-3c0.1-0.6-1.2-1.7-2-1.8c-0.8-0.1-2.2,1-1.9,1.8C116.9,65.6,117.1,66.3,117.2,67z"/>
	<path class="st0" d="M119.4,97c-0.5-0.1-1,0-1.5,0.2c0,0,0.1,0.1,0.1,0.1v2.9c0,0.1,0.5,0.2,0.8,0.3c0.3,0.1-0.5,0.3-0.7,0.4
		c-0.2,0.1,0,0.1,0.2,0.2s0.5,0,0.8,0l0.9-0.1c0.2-0.1,0.4-0.2,0.4-0.2c0-0.6,0-1.2,0-1.8c0.1-0.6,0.1-1.3,0.1-1.9
		C120.4,97.1,120.5,97,119.4,97z"/>
	<path class="st0" d="M120.3,93.8c-0.2,0-0.3,0-0.5,0c-0.4,0-0.8,0-1.1,0c-0.2,0-0.4,0.1-0.6,0.2c0,0-0.1,0-0.1,0l0.1,2.7
		c0,0-0.1,0.1,0.1,0.1c0.3,0,0.6,0.1,0.8,0.1c0.5,0,0.9,0,1.4-0.1c0-0.1,0.1-0.1,0.1-0.2l0.1-2.6C120.5,93.9,120.5,93.8,120.3,93.8z
		"/>
	<path class="st0" d="M79.3,52.7c0.1,0.1,0.2,0.2,0.3,0.1c0.3,0,0.7-0.1,1-0.3c0.8-0.6,1-1.7,0.5-2.6c-0.1-0.1-0.2-0.2-0.3-0.3
		c-0.5-0.4-1.3-0.4-1.8,0.2c-0.1,0.1-0.2,0.2-0.2,0.4c-0.3,0.4-0.3,1,0.1,1.4C78.8,52,79,52.4,79.3,52.7z"/>
	<path class="st0" d="M84.9,49.7C84.9,49.8,84.9,49.8,84.9,49.7c0.7,0.2,1.4,0.1,1.9-0.4c0.1-0.1,0.2-0.1,0.2-0.2
		c0.2-0.2,0.5-0.4,0.3-0.8c-0.2-0.4-0.4-0.2-0.7-0.2c-0.3,0-0.5,0.1-0.8,0.1c-0.3,0.2-0.6,0.3-0.9,0.5c-0.1,0.1-0.2,0.1-0.2,0.2
		C84.6,49.3,84.6,49.6,84.9,49.7z"/>
	<path class="st0" d="M70.5,55.2c0.4-0.2,0.6-0.7,0.4-1.1c0-0.1-0.1-0.2-0.2-0.3c-0.4-0.3-0.9-0.3-1.3,0c-0.2,0.4-0.2,0.9,0.1,1.2
		C69.9,55.2,70.2,55.4,70.5,55.2z"/>
</g>
</svg>
