<?xml version="1.0" encoding="utf-8"?>
<!-- Generator: Adobe Illustrator 26.0.2, SVG Export Plug-In . SVG Version: 6.00 Build 0)  -->
<svg version="1.1" id="Strokes" xmlns="http://www.w3.org/2000/svg" xmlns:xlink="http://www.w3.org/1999/xlink" x="0px" y="0px"
	 viewBox="0 0 240 240" style="enable-background:new 0 0 240 240;" xml:space="preserve">
<style type="text/css">
	.st0{fill:#25282D;}
</style>
<g>
	<path class="st0" d="M116.5,26.3l-0.2,0.1c-0.1,0-0.2,0-0.3,0h-0.2c-0.3-0.1-0.5,0.1-0.8,0.3l-0.2,0.1c-0.3,0.1-0.7,0.1-1,0h-0.2
		c-0.2,0-0.3,0.1-0.5,0.1c-0.1,0-0.1,0-0.2,0l-0.2,0.2c-0.3,0.2-0.6,0.4-1,0.4l-0.2,0c-0.2,0.1-0.2,0.2-0.2,0.6
		c0,0.1,0.1,0.3,0.1,0.4c0,0.1,0.1,0.2,0.1,0.3c0.7,0.8,1.3,0.5,1.9,0.6c0,0,0.2,0.2,0.2,0.1c0.2-0.5,0.5-0.1,0.8-0.2l0.1-0.1
		l0.1-0.1c0.3-0.2,0.5-0.4,0.8-0.6l0.2-0.1c0.1,0,0.2,0,0.2,0c0.1,0,0.1,0,0.2,0c0.1,0,0.1-0.1,0.2-0.1c0.1,0,0.3,0,0.4,0
		c0.1,0,0.1-0.2,0.1-0.2c0,0,0-0.1,0-0.1h0.2c0.3,0,0.5-0.2,0.4-1C117.7,27,117.5,25.9,116.5,26.3z"/>
	<path class="st0" d="M106.6,29.3c-0.6,0.1-1.2,0.3-1.8,0.5c-0.5,0.2-1,0.4-1.4,0.6c-0.4,0.2-0.8,0.4-1.3,0.3c-0.2,0-0.5,0-0.7,0
		c-0.5,0.1-1,0.2-1.4,0.3c-0.3,0.1-0.6,0.3-0.9,0.5c-0.2,0.1-0.3,0.2-0.5,0.2c-0.3,0-0.5,0-0.8,0c-0.7,0-1.5,0.2-2.1,0.6
		c-0.2,0.1-0.4,0.1-0.6,0.2c-0.8,0.1-1.6,0.2-2.4,0.3c-0.3,0-0.5,0.2-0.8,0.3c-0.9,0.2-1.9,0.3-2.8,0.5c-0.5,0.1-1.1,0.1-1.2,0.6
		c0,0-0.1,0.1-0.1,0.1c-0.4,0.1-0.8,0.1-1.2,0.2c-0.7,0.1-1.3,0.3-1.8,0.7c-0.2,0.1-0.4,0.2-0.6,0.1c-0.5-0.2-1.1-0.2-1.7,0
		c-0.4,0.1-0.8,0.2-1.2,0.3c-0.3,0.1-0.6,0.2-0.9,0.4c-0.4,0.3-0.7,0.7-0.8,1.2c0,0.1,0,0.2,0.1,0.2c0.3,0.2,0.7,0.3,1,0.4
		c0.7,0.2,1.5,0,2.1-0.3c0.5-0.3,1.1-0.4,1.7-0.5c0.5,0,0.9-0.1,1.3-0.3c0.7-0.4,1.5-0.6,2.3-0.6c0.4,0,0.9-0.1,1.3-0.2
		c0.8-0.4,1.6-0.6,2.5-0.7c0.4,0,0.8-0.1,1.1-0.4c0.3-0.2,0.7-0.4,1.1-0.3c0.6,0,1.3-0.2,1.8-0.5c0.5-0.3,1.1-0.4,1.8-0.5
		c0.6,0,1.2-0.2,1.7-0.4c0.6-0.3,1.2-0.6,1.9-0.7c0.3-0.1,0.6,0,0.9,0c0.6-0.1,1.2-0.3,1.8-0.5c0,0,0.1,0,0.1,0
		c0.5-0.2,0.8-0.6,1.4-0.5c0,0,0.1,0,0.1-0.1l1.5-0.9c0.3-0.2,0.5-0.5,0.5-0.9C107.6,29.3,107.1,29.2,106.6,29.3z"/>
	<path class="st0" d="M68.3,123.5c1,5.7,2.4,11.4,4.1,16.9c0.8,2.8,1.7,5.6,2.5,8.4c1,3.3,1.7,6.8,2.6,10.1c1.6,6,3,11.8,4,17.5
		c0.2,0.9,0.3,1.7,0.5,2.6c0.5,2.3,1,4.5,1.7,6.9c0.7,2.4,1.4,4.9,2.2,7.2c1.6,4.7,2.9,9.4,3.8,14.2c0.6,2.7,1.1,5.5,1.8,8.2
		c0.3,1.4,0.6,2.7,1.1,4.1c0.5,1.3,1.2,2.5,2.1,3.6c1.4,1.6,3.2,2.9,5.2,3.6c2,0.7,4.2,1,6.3,0.7c0.4-0.1,0.8-0.2,1.2-0.2
		c0.4-0.1,0.8-0.2,1.3-0.4l2.5-0.7l5-1.5l10-3c3.8-1.1,7.8-2.2,11.7-3.2c9.5-2.4,18.5-5,27.5-8c1.5-0.5,2.9-1.1,4.3-1.6
		c1.2-0.5,2.7-1,2.3-1.3c-0.4-0.3-2.2,0.1-3.8,0.5c-5.7,1.4-11.4,2.7-17.1,4.3l-12.3,3.4l-22.4,6.2l-5.6,1.5l-2.8,0.8l-0.7,0.2
		c-0.2,0.1-0.4,0.1-0.6,0.2c-0.4,0-0.7,0.2-1.1,0.2c-3,0.4-6-0.7-8.2-2.8c-0.8-0.8-1.5-1.7-2-2.7c-0.5-1.1-0.9-2.3-1.2-3.6l-2.1-8.6
		c-1.5-6.2-3.1-12.5-4.9-18.7c-2-6.6-3.9-13.3-5.5-20.2c-0.8-3.2-1.7-6.3-2.7-9.5c-1.9-6-3.6-12.2-5.2-18.5
		c-0.9-3.6-1.7-7.1-2.8-11.6c-0.3-1.3-0.9-3.4-1.5-5.5c-0.3-1.2-0.6-2.5-1-3.7c-0.2-0.7-0.5-1.3-0.8-1.9c-0.3-0.4-0.3,0.2-0.2,1.1
		C67.8,120.3,68,121.8,68.3,123.5z"/>
	<path class="st0" d="M52.3,33.3c1.9-1.2,4-2.1,6.1-2.7l1.6-0.5l1.7-0.4l3.4-0.8l13.7-3.4c7.5-1.9,15-4,22.3-6
		c5.8-1.6,11.6-3.2,17.4-4.7l8.8-2.3l4.4-1.1c0.7-0.2,1.5-0.4,2.2-0.5c0.4-0.1,0.8,0,1.1-0.1s0.8,0,1.1,0c3,0.4,5.6,2.1,7.4,4.5
		c1.8,2.4,3,5.1,3.6,8c0.8,3.2,1.6,6.4,2.4,9.6c2.2,8.3,4.5,16.7,6.7,25.1c0.7,2.5,1.4,5,2.2,7.2c0.2,0.5,0.3,0.9,0.5,1.4
		c-0.1-0.6-0.2-1.2-0.3-1.8c-0.6-3.2-1.4-6.4-2.2-9.6c-1-4.3-2.1-8.7-3-12.9c-0.8-4-1.8-7.9-2.8-11.7c-0.3-1.4-0.7-2.6-1-3.9
		c-0.2-1-0.5-2.1-0.7-3.1l-0.4-1.5c-0.1-0.5-0.3-1.1-0.5-1.6c-0.7-2.1-1.8-4.1-3.2-5.9c-0.9-1.2-2-2.2-3.3-3.1
		c-1.3-0.9-2.8-1.6-4.3-1.9l-0.7-0.1l-0.7,0c-0.5,0-0.9,0-1.4,0c-0.2,0.1-0.5,0.1-0.7,0.1l-0.7,0.1l-0.7,0.1l-0.6,0.2l-4.8,1.2
		l-9.6,2.5c-4.1,1.1-8.2,2.1-12.4,2.9c-2.3,0.5-4.7,1.1-7,1.7c-3.7,1-7.4,2.1-11.1,3.1c-5.3,1.5-10.5,3-16,4.2L59.8,28
		c-1.9,0.5-3.8,1.1-5.7,1.9c-1.9,0.8-3.6,1.9-5.2,3.3c-2.2,2.3-3.3,5.3-3,8.5c0.1,2.9,0.7,5.8,1.7,8.5c1.4,4.4,2.7,9,4,13.6
		c0.9,3.2,1.7,6.4,2.4,9.6c0.6,3.1,1.4,6.1,2,9.1c1.1,5.1,2.6,10.1,4.4,15c0.2,0.5,0.4,0.9,0.5,1.3c0.9,2.1,1.4,1.6,0.9-1
		c-0.3-1.7-0.7-3.6-1.2-5.3l-7.4-27.8c-0.1-0.4-0.2-0.7-0.3-1.1c-1.2-4-2.2-8-3.3-12c-0.6-2-1-4-1.4-6c-0.4-1.9-0.4-3.9-0.2-5.9
		C48.5,37,50.1,34.7,52.3,33.3z"/>
	<path class="st0" d="M167.2,96.8c1.7,6,3.3,12,5,18c1.2,4,2.3,8.1,3.4,12.2c0.8,2.8,1.6,5.6,2.4,8.3c0,0.1,0.1,0.2,0.1,0.3
		c0,0,0.1,0.1,0.1,0.1c0.1,0.1,0.2,0.1,0.3,0.2c0.1,0.1,0.2,0,0.2,0c0-0.1,0.1-0.2,0.1-0.3c0,0,0-0.1,0-0.1v-0.1l-0.1-0.4l-4.1-17.6
		c-0.2-0.7-0.4-1.4-0.6-2.1c-1.9-6.2-3.6-12.6-5.2-19.1c-1.1-4.1-2.3-8.1-3.5-11.9c-0.6-1.8-1.2-3.7-1.8-5.5c-0.5-1.5-1-2.8-1.5-4.1
		c-0.2-0.3-0.4-0.5-0.5-0.3c0,0.4,0,0.8,0.1,1.2l1.9,7.5l-0.1,0C164.6,87.7,165.9,92.2,167.2,96.8z"/>
	<path class="st0" d="M186.8,145.7C186.8,145.7,186.8,145.7,186.8,145.7L186.8,145.7C186.8,145.7,186.8,145.7,186.8,145.7z"/>
	<path class="st0" d="M139.1,195.1l-3.7-3.4c-1.1-1-2.3-1.9-3.6-2.7c-0.4-0.2-0.9-0.3-1.4-0.3c-0.4,0-0.8,0.2-1.1,0.6
		c-0.1,0.1,0.1,0.7,0.4,0.9c0.2,0.2,0.5,0.4,0.7,0.5c1.3,1,2.6,1.9,3.8,3c1.7,1.4,3.1,2.8,4.6,4.1l0.1,0.1l1.6-0.4v-0.1l0.1-0.2
		l0.2-0.5c0.2-0.4,0.3-0.7,0.5-1.1c0.3-0.7,0.6-1.5,0.9-2.2c0.5-1.2,1-2.4,1.5-3.6c1.1-2.7,2.1-5,3.1-7.3c0.5-1.2,0.9-2.3,1.3-3.6
		c0.2-0.6,0.4-1.2,0.6-1.9l0.3-1l0.1-0.5v-0.2c0.1-0.6,0.1-1.2-0.5-1.5c-0.6-0.3-1.2,0.1-1.5,0.9l-0.5,1.2l-0.5,1.2l-0.9,2.5
		c-0.9,2.4-1,3.2-2,5.6c-1.3,3.3-2.5,6-3.9,9.3L139.1,195.1z"/>
	<path class="st0" d="M141.1,179.1c-0.3-0.1-0.6-0.2-0.9-0.3c-0.2,0-0.4-0.1-0.7-0.1c-4-0.1-7.8,1.6-10.4,4.6
		c-1.3,1.5-2.3,3.3-2.9,5.3c-2.1,7.3,2.1,15,9.4,17.1c1.3,0.4,2.6,0.7,3.9,1c1.3,0.2,2.7,0.1,4-0.3c1.3-0.6,2.6-1.3,3.7-2.2
		c1.1-0.9,2.1-1.8,3.1-2.9c0.7-0.9,1.3-1.8,1.8-2.8c0.5-1,0.8-2.1,1.1-3.2c0.4-2.2,0.6-4.5,0.5-6.8c-0.1-0.4-0.2-0.7-0.3-1.1
		c-0.2-0.5-0.3-0.7-0.4-1c-0.1-0.1-0.1-0.3-0.2-0.4c0,0,0-0.1-0.1-0.1c-0.6-0.8-1.7-1-2.5-0.5c-0.9,0.5-1.1,1.3-0.5,1.8
		c0.4,0.3,0.7,0.7,0.9,1.1c0.5,1.1,0.7,2.2,0.8,3.4c0.1,2.4-0.6,4.8-1.9,6.8c-0.2,0.4-0.5,0.8-0.8,1.2s-0.6,0.8-0.9,1.2
		c-1,1.4-2.4,2.4-4,3c-1.6,0.6-3.3,0.7-4.9,0.2c-0.3-0.1-0.7-0.2-1-0.2s-0.7-0.1-1-0.2c-1.2-0.3-2.4-0.8-3.4-1.5
		c-1.1-0.6-2-1.5-2.8-2.4c-0.6-0.6-0.9-1.5-1.5-2c-1.2-1.3-1.8-3-1.8-4.8c-0.1-2.1,0.3-4.1,1.2-6c0.9-1.9,2.2-3.5,3.9-4.7
		c1.5-1.2,3.3-1.8,5.2-1.6c0.9,0.1,1.8,0,2.6-0.3c0.3-0.2,0.7-0.4,1-0.6c0.1-0.1,0.2-0.1,0.2-0.3
		C141.3,179.4,141.3,179.1,141.1,179.1z"/>
	<path class="st0" d="M86.1,110.4L86.1,110.4C86,110.2,86,110.2,86.1,110.4z"/>
	<path class="st0" d="M139.9,91.9c-0.1,0-0.2,0-0.3,0c-0.3,0.1-0.7,0.1-1,0.1c-0.5-0.1-0.9-0.2-1.4-0.2c-0.2-0.1-0.4,0-0.6,0.1
		c-0.3,0.2-0.6,0.2-0.9,0c-0.1-0.1-0.2-0.1-0.3,0c-0.2,0.4-0.4,0.8-0.3,1.3c0,0.1,0.1,0.2,0.1,0.2c0.3,0.1,0.7,0.1,1,0
		c0.2-0.1,0.5-0.1,0.7,0c0.1,0.1,0.3,0,0.4,0c0.3,0,0.6,0,0.8,0c0.5,0.1,1,0,1.5-0.2c0.1,0,0.2-0.1,0.3-0.1l0-0.2c0.1,0,0.2,0,0.3,0
		c0,0,0.1-0.2,0-0.5S140,91.9,139.9,91.9z"/>
	<path class="st0" d="M141.7,93c0.3,0.3,0.6,0.1,0.8-0.3c0-0.2,0-0.4-0.1-0.6c-0.2-0.4-0.4-0.5-0.5-0.4c-0.1,0.1-0.2,0.2-0.3,0.3
		c-0.1,0.2-0.1,0.4,0,0.5C141.5,92.7,141.6,92.8,141.7,93z"/>
	<path class="st0" d="M129.1,135c0-0.2-0.1-0.4-0.1-0.6c0.1-0.4-0.1-0.8,0-1.2c-0.1-0.3-0.1-0.6-0.1-0.8c0-0.5-0.1-1-0.2-1.5
		c-0.1-0.6-0.3-1.3-0.6-1.8c-0.1-0.2-0.3-0.4-0.5-0.4c-0.1,0-0.3,0.1-0.3,0.2c-0.1,0.2-0.1,0.3-0.1,0.5c0,0.1,0,0.3,0,0.4
		c-0.1,0.4-0.1,0.8,0,1.2c0,0.2,0,0.4,0.1,0.5c0.1,0.3,0.2,0.5,0.1,0.8c0,0.2,0,0.5,0.1,0.7c0.2,0.5,0.3,1.1,0.4,1.7
		c0.1,0.4,0.2,0.8,0.2,1.2c0,0.2,0.1,0.3,0.2,0.4c0.1,0.2,0.3,0.2,0.4,0.1C129.1,135.9,129.2,135.5,129.1,135z"/>
	<path class="st0" d="M130.4,141.7c-0.2-0.7-0.2-1.5-0.2-2.2c0-0.3,0-0.6-0.2-0.8c-0.1-0.2-0.2-0.4-0.3-0.6c0-0.3-0.3-0.5-0.6-0.5
		c-0.2,0.1-0.3,0.3-0.3,0.5c0,0.4,0,0.9,0.1,1.3c0.1,0.5,0.2,1,0.1,1.5c0,0.4,0,0.8,0.1,1.2c0.1,0.4,0.1,0.7,0.1,1.1
		c0,0.5,0.2,0.9,0.5,1.2c0.1,0.1,0.2,0.1,0.3,0.1c0.3,0,0.7-0.6,0.7-1c0,0,0-0.1,0-0.1c-0.2-0.4-0.2-0.8-0.2-1.2
		C130.5,142.1,130.5,141.9,130.4,141.7z"/>
	<path class="st0" d="M123.6,104c0-0.5-0.1-1-0.3-1.5c-0.1-0.2-0.2-0.4-0.2-0.6c-0.1-0.2-0.1-0.5-0.2-0.7c-0.2-0.5-0.5-1-0.8-1.5
		c-0.1-0.2-0.3-0.3-0.5-0.2c-0.2,0-0.2,0.2-0.3,0.5c0,0.2,0.1,0.4,0.1,0.7c0,0.2,0,0.4,0,0.7c0,0.1,0,0.1,0.1,0.2
		c0.2,0.4,0.4,0.9,0.5,1.3c0.2,0.6,0.7,1.1,0.9,1.8c0,0.1,0.1,0.1,0.1,0.2c0.2,0.2,0.3,0,0.5,0s0-0.3,0-0.4V104z"/>
	<path class="st0" d="M127.5,127.2c0.2-0.2,0.2-0.5,0.2-0.8c-0.1-0.5-0.1-1.1,0-1.6c0-0.1,0-0.2,0-0.4c-0.1-0.4-0.3-0.7-0.5-1.1
		c-0.1-0.2-0.2-0.2-0.4-0.2l-0.2,0c-0.2,0-0.4,0.1-0.5,0.3c-0.1,0.1,0,0.3,0,0.5c0,0.2,0,0.5,0,0.7c0,0.2,0,0.3,0.1,0.5
		c0.1,0.2,0.2,0.4,0.2,0.6c0.1,0.3,0.1,0.6,0.2,0.9c0.1,0.2,0.1,0.4,0.2,0.6c0,0.1,0.1,0.1,0.1,0.2
		C127.2,127.4,127.4,127.3,127.5,127.2z"/>
	<path class="st0" d="M126.7,119.8c0-0.5,0-1.1-0.2-1.6c-0.1-0.4-0.2-0.7-0.3-1.1c-0.1-0.3-0.3-0.6-0.5-0.9
		c-0.2-0.2-0.4-0.1-0.4,0.2c-0.1,0.3-0.1,0.6,0,0.8c0.1,0.1,0.1,0.2,0.1,0.4c0,0.6,0,1.2,0.2,1.8c0.1,0.5,0.2,1,0.4,1.5c0,0,0,0,0,0
		c0,0.1,0.1,0.1,0.2,0C126.5,120.7,126.7,120.2,126.7,119.8z"/>
	<path class="st0" d="M120.7,95.9l-0.1-0.2l-0.1-0.1c-0.2-0.3-0.4-0.6-0.5-1c0,0-0.1-0.1-0.1-0.1c-0.1-0.1-0.3-0.2-0.6-0.2
		c-0.2,0-0.3,0.2-0.3,0.4c0,0.4,0.1,0.7,0.3,1c0.2,0.3,0.2,0.7,0.3,1c0.1,0.3,0.4,0.6,0.5,0.9c0,0.1,0.1,0.2,0.2,0.4l0.1,0.1
		c0.1,0.1,0.2,0.2,0.3,0.1c0.3-0.1,0.4-0.3,0.3-0.6C121,97,120.9,96.5,120.7,95.9z"/>
	<path class="st0" d="M125,109.5c0-0.3-0.2-0.6-0.4-0.8c-0.2-0.2-0.5-0.1-0.5,0.2c0,0.2,0,0.4,0,0.6c0,0.1,0,0.3,0.1,0.4
		c0.1,0.4,0.4,0.5,0.6,0.2C124.9,110,125,109.7,125,109.5z"/>
	<path class="st0" d="M125.6,113.2c0-0.4-0.2-0.8-0.5-1c-0.2-0.1-0.4,0-0.4,0.3v0.5c0,0.1,0.1,0.2,0.1,0.3c0.1,0.4,0.3,0.5,0.6,0.2
		C125.5,113.5,125.5,113.4,125.6,113.2z"/>
	<path class="st0" d="M118.7,92h-0.2c-0.1,0-0.3,0.1-0.3,0.2c0,0.1,0,0.3,0,0.4c0,0.2,0.1,0.3,0.2,0.4c0.1,0.2,0.3,0.2,0.5,0.1
		c0.1-0.1,0.2-0.2,0.2-0.3s0-0.2,0-0.4C119.1,92.3,118.9,92.1,118.7,92z"/>
	<path class="st0" d="M125.6,115.3c0.2-0.2,0.2-0.4,0.2-0.6c0-0.1,0-0.2-0.1-0.2l-0.2-0.1c-0.2-0.1-0.5,0-0.5,0.3c0,0.1,0,0.2,0,0.3
		C125.2,115.5,125.3,115.6,125.6,115.3z"/>
	<path class="st0" d="M91.6,95.8c0.2,0.3,0.2,0.6,0.2,0.9c0,0.1,0,0.3,0,0.4c0,0.2,0.1,0.5,0.1,0.7c0,0.2,0.1,0.3,0.2,0.5
		c0.1-0.1,0.1-0.1,0.1-0.1c0-0.4,0-0.8-0.1-1.2c-0.1-0.5-0.2-0.9-0.2-1.4c0,0,0-0.1,0-0.1c-0.1-0.3-0.1-0.7-0.1-1
		c0.1-0.4,0.1-0.8-0.1-1.2L91,90.3c0-0.2-0.1-0.5-0.1-0.7c-0.1-0.4-0.2-0.7-0.3-1.1c-0.1-0.6-0.4-1.2-0.6-1.8
		c-0.1-0.2-0.1-0.5-0.1-0.7c0-0.3,0-0.7-0.1-1c0-0.2-0.1-0.2-0.2-0.6s-0.2-0.7-0.3-1c-0.2-0.4-0.3-0.9-0.3-1.3
		c0-0.7-0.2-1.3-0.4-1.9c-0.1-0.2-0.2-0.4-0.2-0.6c-0.1-0.4-0.2-0.8-0.3-1.2l-0.6-1.9l-0.8-0.7l0,0.1c-0.3,0.5-0.2,1-0.3,1.5
		c0,0,0,0.1,0,0.1c0,0.1,0.1,0.2,0.1,0.3c0.1,0.4,0.2,0.8,0.4,1.1c0.2,0.3,0.3,0.7,0.4,1.1c0,0.2,0.1,0.4,0.1,0.6
		c0.1,0.6,0.2,1.1,0.3,1.6c0.1,0.4,0.3,0.9,0.4,1.3c0.1,0.4,0.2,0.9,0.4,1.3c0.1,0.2,0.2,0.4,0.2,0.7c0,0.2,0.1,0.3,0.2,0.5
		c0.2,0.4,0.3,0.8,0.3,1.2l0.1,1c0,0.1,0,0.1,0,0.1l0.2,0.6l0.4,1.3c0.1,0.5,0.3,0.9,0.4,1.4c0.1,0.7,0.3,1.4,0.5,2.1
		c0.1,0.3,0.3,0.5,0.4,0.8C91.1,94.7,91.5,95.1,91.6,95.8C91.6,95.7,91.6,95.8,91.6,95.8z"/>
	<path class="st0" d="M92.7,103c0-0.4,0-0.7,0-1.1s0-0.9,0-1.3c0-0.2-0.1-0.3-0.1-0.5c0-0.1-0.1-0.1-0.2-0.1c0,0.1,0,0.2,0,0.3
		c-0.1,0.4-0.1,0.9-0.1,1.3c0,0.3,0.1,0.6,0.2,0.9c0,0,0,0.1,0,0.1c0,0.2,0,0.5-0.1,0.7c-0.2,0.4-0.3,0.8-0.3,1.2
		c0,0.2,0.1,0.4,0.1,0.6c0.1,0.4,0,0.8-0.2,1.1c-0.1,0.2-0.2,0.5-0.3,0.8c-0.1,0.7-0.2,1.3-0.2,2c0,0.1,0,0.3,0.1,0.3
		c0.2-0.2,0.4-0.4,0.5-0.7c0.1-0.2,0.1-0.3,0.1-0.5c0-0.3,0.1-0.6,0.2-0.9c0.1-0.4,0.2-0.8,0.2-1.2c0-0.6,0.1-1.1,0.3-1.6
		c0.1-0.2,0.1-0.4,0-0.5C92.8,103.5,92.7,103.3,92.7,103z"/>
	<path class="st0" d="M100.8,64.3c-0.3-0.9-0.8-1.7-1.1-2.6c-0.1-0.3-0.3-0.7-0.5-1c-0.4-0.7-0.9-1-1-0.1c0,0.2,0,0.3,0.1,0.5
		c0.2,0.5,0.4,0.9,0.6,1.3c0.3,0.6,0.6,1.1,1,1.6c0.6,0.8,0.4,1.7,0.8,2.6c0.1,0.5,0.2,0.9,0.3,1.4c-0.3,0.1-0.6,0.1-0.9,0.3
		l-0.6,0.2l-0.6,0.3h-0.1L98.5,69c-0.1,0.1-0.2,0.1-0.2,0.1C98,69,97.8,69,97.7,69c-0.2,0.1-0.3,0.1-0.5,0.2
		c-0.1,0.1-0.3,0.1-0.4,0.2c-0.3,0.2-0.6,0.3-0.9,0.4c-0.3,0.1-0.5,0.2-0.8,0.3l-0.3,0.1c-0.1,0-0.3,0.1-0.4,0.2c0,0-0.2,0-0.2,0.1
		c-0.3,0.2-0.7,0.4-1,0.6c-0.2,0.1-0.4,0.2-0.6,0.3l-0.8,0.3c-0.1,0-0.1,0.1-0.2,0.1c0,0-0.1,0-0.1,0.1c-0.4,0.1-0.8,0.2-1.2,0.3
		c-0.2,0.1-0.4,0.1-0.5,0.1c-0.2,0.1-0.5,0.2-0.7,0.3l-0.1,0.1c-0.1,0-0.1,0.1-0.2,0.1c-0.1,0.1-0.2,0.1-0.3,0.1
		c-0.2,0-0.3,0-0.5,0.1c-0.1,0-0.2,0.1-0.3,0.1c-0.3,0.1-0.6,0.3-0.9,0.4c-0.1,0.1-0.3,0.2-0.4,0.2L85,74.1l-0.8,0.3l-0.7,0.3
		c-0.1,0-0.1,0.1-0.2,0.2c0,0,0,0.1,0,0.1c0,0.1,0,0-0.1,0L83,75.2l0-0.1c-0.2,0.1-0.4,0.2-0.6,0.3c-0.2,0.1-0.2,0.3-0.2,0.4
		l0.1,0.1c0.1,0.1,0.3,0,0.4-0.1c0.2-0.1,0.3-0.1,0.5-0.2c0.1,0,0.1,0,0.2,0c0.2,0,0.4,0,0.5-0.1l0.8-0.3c0.1,0,0.1,0,0.2,0
		c0.2,0,0.3,0,0.5-0.1c0.3-0.1,0.5-0.2,0.8-0.3c0.1,0,0.2-0.1,0.3-0.1c0.1,0,0.2-0.1,0.3-0.1c0.1,0,0.2-0.1,0.2-0.1
		c0.3-0.1,0.5-0.2,0.8-0.4c0.1-0.1,0.2-0.1,0.3-0.1c0.3,0,0.6-0.1,0.9-0.2l0.4-0.1c0.1-0.1,0.3-0.1,0.4-0.1c0.1,0,0.3-0.1,0.4-0.2
		c0.2-0.2,0.5-0.3,0.8-0.4l0.5-0.1l0.5-0.1h0.3l0.3-0.1c0.1-0.1,0.3-0.1,0.4-0.2c0.1-0.1,0.2-0.1,0.3-0.2c0.1-0.1,0.2-0.1,0.3-0.1
		c0.1,0,0.1,0,0.1,0c0.1-0.1,0.2-0.1,0.2-0.1c0.2,0,0.4-0.1,0.6-0.1c0.1,0,0.3-0.1,0.5-0.2c0.2-0.1,0.2-0.1,0.4-0.1l0.6-0.3l0.3-0.1
		c0.1,0,0.2-0.1,0.3-0.1c0.1-0.1,0.3-0.1,0.4-0.1c0.2,0,0.4,0,0.6-0.1c0.1,0,0.2-0.1,0.2-0.1c0.2,0,0.4-0.1,0.6-0.2
		c0.2-0.1,0.3-0.2,0.4-0.3c0.1-0.1,0.2-0.1,0.3-0.2l0.9-0.3l0.5-0.2l0.4-0.1c0.1,0,0.2-0.1,0.2-0.2s0,0,0-0.1c0,0,0-0.1,0-0.1
		c0,0.1,0,0.2,0,0.3c0,0.1,0,0.3,0.1,0.5c0.1,0.4,0.2,0.8,0.7,0.8c0.5,0,0.6-0.5,0.7-0.9c0-0.1,0-0.2,0-0.3c0-1.1-0.3-2.1-0.8-3
		C101.3,65.9,101,65.1,100.8,64.3z"/>
	<path class="st0" d="M81.5,228.1c-0.3,0.1-0.5,0.1-0.7,0.2c-1,0.4-2,0.6-3,0.7c-1.1,0.1-2.1-0.1-3.1-0.5c-1.1-0.3-2.1-0.8-3-1.4
		c-1.1-0.7-1.8-1.9-1.7-3.2c0.1-1,0.4-2,0.9-2.9c0.6-0.8,1.4-1.4,2.4-1.7c0.3-0.1,0.6-0.3,0.9-0.5h0.1l0.5-0.5v-0.2
		c0-0.3-0.1-0.4-0.3-0.4c-0.1,0-0.2,0.1-0.3,0.1c0,0,0,0,0,0H74c-0.4-0.1-0.9-0.1-1.3,0c-0.6,0.1-1.2,0.3-1.8,0.5
		c-0.4,0.2-0.7,0.4-1,0.7c0.4-0.8,0.8-1.6,1.3-2.4c0.1-0.2,0-0.7-0.1-0.7c-0.3-0.1-0.6,0-0.9,0.2c-0.5,0.5-0.9,1.1-1.3,1.7
		c-0.9,1.2-1.4,2.5-1.7,3.9c0,0.4,0,0.8,0,1.2c0,0.1,0,0.2,0,0.3v0.1v0.1l0.1,0.3c0.1,0.3,0.4,0.4,0.7,0.4c0.2,0,0.4-0.1,0.5-0.3
		c0.1,1.5,0.8,2.9,1.8,4.1c0.7,0.8,1.6,1.4,2.5,1.7c0.9,0.2,1.9,0.4,2.8,0.5c1.8,0.2,3.7,0.3,5.5,0.2c0.2,0,0.5-0.1,0.7-0.1l0.3-0.2
		c0.5-0.1,0.8-0.6,0.8-1.2c0,0,0,0,0-0.1C82.6,228.3,82.1,227.9,81.5,228.1z"/>
	<path class="st0" d="M213.8,175.8c0,0,0,0-0.1-0.1c-0.1-0.1-0.2-0.2-0.3-0.4c-0.4-0.5-0.8-1-1.3-1.5c-0.5-0.4-0.9-0.9-1.2-1.4
		c-0.2-0.3-0.3-0.6-0.5-0.9l-1.4-2.2c-0.4-0.6-0.9-1.2-1.3-1.9s-0.8-1.2-1.2-1.9c-0.2-0.3-0.5-0.6-0.7-0.9c-0.1-0.3-0.3-0.5-0.5-0.7
		c-0.5-0.5-0.9-1-1.1-1.7c-0.2-0.6-0.4-1.1-0.7-1.7l-0.1-0.1l-0.5-0.8l-1.2-1.9c-0.4-0.7-0.9-1.3-1.2-2l-1.5-3.1
		c-0.2-0.5-0.6-0.8-0.9-1.2c-0.5-0.8-1.2-1.4-1.7-2.3c0,0,0-0.1-0.1-0.1c-0.4-0.4-0.6-0.8-0.6-1.3c-0.1-0.2-0.1-0.4-0.2-0.6L195,146
		c-0.1-0.3-0.3-0.5-0.5-0.6c0,0.1,0,0.2,0,0.2c0.2,0.6,0.5,1.3,0.8,1.9c0.4,0.7,0.7,1.4,0.9,2.2c0,0.1,0,0.1,0.1,0.2
		c0.2,0.5,0.4,1.1,0.5,1.7c-0.1,0.7,0.1,1.4,0.6,1.9v0c0.7,1.5,1.5,3,2.2,4.4c0.2,0.3,0.3,0.7,0.5,1c0.3,0.6,0.7,1.1,0.9,1.6
		c0.6,0.9,1.1,1.8,1.8,2.6c0.2,0.3,0.4,0.7,0.5,1.1c0,0.1,0.1,0.2,0.1,0.3l-2.2-2.6c-0.5-0.6-0.9-1.1-1.3-1.6c-1-1.4-2-2.7-3.1-4.1
		c-0.4-0.5-1-1.1-1.5-1.7c-1-1.2-2-2.3-3-3.2c-0.7-0.7-1.5-1.4-2.4-2c-0.5-0.4-0.5-0.1-1.8-1.4c0-0.3-0.1-0.5-0.2-0.8
		c-0.3-0.4-0.7-0.8-1-1.2v-0.1l-0.1-0.3l-0.1-0.6l-0.3-1.2l-1.9-7.1l-0.5-2c0.4,0.2,0.7,0.4,1.1,0.7c0.5,0.4,0.9,0.8,1.4,1.1
		c0.7,0.5,1.2,1.1,1.7,1.8c0.1,0.2,0.4,0.4,0.6,0.5c0.4,0.1,0.8,0.3,1.1,0.6c0.4,0.5,0.7,0.8,1.1,1.4s0.8,1.1,1.1,1.7
		c0.1,0.2,0.3,0.4,0.5,0.6c0.2,0.2,0.3,0.2,0.4,0c-0.1-0.1-0.1-0.3-0.2-0.4c-0.1-0.7-0.5-1.3-1-1.8c-0.3-0.3-0.6-0.8-1.1-0.9
		c-0.1,0-0.1-0.1-0.2-0.2c-0.2-0.3-0.4-0.6-0.6-1c-0.2-0.7-0.6-1.3-1.1-1.7l-0.8-0.5c-0.6-0.2-1-0.6-1.3-1.2
		c-0.2-0.4-0.5-0.7-0.8-0.9c-0.7-0.5-1.4-0.9-2.3-1.2l-13.4-51.6c-3-11.5-6.2-24-9.6-36.8l-5.1-19.6c-0.9-3.4-1.7-6.6-2.6-10
		c-0.5-1.8-1.2-3.4-2.2-5c-1-1.5-2.2-2.9-3.6-4.2c-2.8-2.4-6.2-4-9.9-4.5c-1.8-0.2-3.7-0.2-5.5,0c-1.9,0.3-3.5,0.8-5.1,1.2l-19.6,5
		l-36.8,9.5l-16.6,4.3l-2,0.5c-0.7,0.2-1.3,0.4-2,0.7c-1.3,0.5-2.5,1.1-3.7,1.9c-6.3,4.2-9.6,11.8-8.2,19.3c0.1,0.5,0.2,1.1,0.3,1.5
		s0.2,1,0.4,1.4c0.2,0.9,0.5,1.8,0.7,2.7c0.5,1.8,0.9,3.5,1.3,5c3.3,12.8,6.3,25.8,10.4,38.1c1,3.1,1.9,7.1,2.8,10.6
		c0.9,3.6,1.8,7.1,2.8,10.7c-0.4-0.1-0.9-0.1-1.1-0.2c-0.3-0.1-0.3-0.2-0.7-0.2c-1.4,0.2-2.9,0.4-4.3,0.9c-0.7,0.2-1.5,0.6-2.1,1
		c-0.4,0.2-0.7,0.5-1,0.8c-0.3,0.3-0.6,0.6-0.9,1l-0.3,0.5c-0.1,0.2-0.2,0.4-0.3,0.6c-0.4,1.3-0.6,2.8-0.5,4.2c0,0.7,0.1,1.3,0.2,2
		c0.1,0.6,0.3,1.3,0.5,1.9c0.6,2,1.7,3.7,3.2,5.2c1.8,1.8,3.9,3.3,6.2,4.4c0.6,0.3,1.2,0.6,1.8,0.9s1.3,0.5,1.9,0.7
		c0.6,0.2,1.5,0.4,2.2,0.6l0.7,0.2c0.1,0,0.1,0.1,0.1,0.2l0.1,0.3c0.3,1.2,0.6,2.4,0.9,3.6c-0.1,0.1-0.2,0.3-0.3,0.4l-0.6,0.8
		l-1.1,1.5c-0.7,1-1.4,2.1-2.1,3.2c-0.3,0.5-0.6,1.1-0.9,1.7c-0.1,0.3-0.3,0.7-0.4,1c-0.1,0.2-0.1,0.4-0.1,0.5v0.2l-1,0.9
		c-0.9,0.9-1.7,1.8-2.5,2.7s-1.7,2.2-2.6,3.2c-0.8,1-1.5,2-2.2,3.1c-0.3,0.6-0.6,1.1-0.9,1.8c-0.1,0.3-0.2,0.7-0.3,1
		c-0.1,0.4-0.1,0.8-0.1,1.2c0.2,1.4,0.9,2.7,2,3.7c0.9,0.9,2,1.7,3.2,2.3c2.1,1,4.5,1.5,6.9,1.4c1.6-0.1,3.3-0.4,4.8-0.9
		c1.6-0.5,3.1-1.2,4.5-2l0.2-0.1l0.1-0.1c0.1,0,0.1-0.1,0.1,0l0.3,1.2l0.1,0.5v0.1v0.1l-0.1,0.1l-0.5,0.6l-0.9,1.2
		c-0.6,0.8-1.2,1.6-1.8,2.5l-0.2,0.3c-1.3,1.9-2.2,4-2.7,6.2c-0.1,0.5-0.1,0.9,0,1.4c-0.1,0.1-0.2,0.1-0.4,0.2l-0.2,0.3l-0.4,0.6
		c-0.2,0.4-0.4,0.8-0.6,1.2c-0.4,0.7-0.6,1.4-0.9,2c-0.7,1.6-1.6,3.1-2.5,4.5c-0.2,0.4-0.4,0.9-0.4,1.4c-0.1,1.3-0.2,2.4-0.2,3.6
		c0,0.6,0,1.2,0,1.8c0,0,0,0.1,0,0.1c0,0.2,0,0.3,0,0.5c0.1,0.4,0.1,0.4,0.1,0.6c0,0.2,0.1,0.3,0.3,0.5c0,0.1,0,0.1,0.1,0.2
		c0.1,0.1,0.1,0.2,0.3,0.2c0.2,0.1,0.4,0.2,0.7,0.2c0.2,0,0.3-0.1,0.3-0.1c0,0,0-0.1-0.1-0.2c0,0,0,0,0,0c0.2-0.3,0.3-0.6,0.4-0.9
		c0,0,0,0,0.1,0c0,0,0-0.1,0-0.1c0,0,0-0.1,0-0.1c0-0.1,0-0.2,0-0.3v-0.1c0,0,0-0.2,0-0.2c0-0.3,0-0.6,0.1-0.8
		c0.1-0.7,0.6-1.3,1.1-1.7c0.5-0.4,1.1-0.7,1.7-0.9c1.4-0.6,2.6-1.6,3.6-2.9c0.8-1.1,1.4-2.2,1.9-3.4c0.3-0.8,0.4-1.7,0.3-2.5
		c-0.1-0.6-0.4-0.8-0.7-0.2c-0.4,0.7-0.6,1.4-0.8,2.2c-0.3,2.2-1.5,4.2-3.2,5.6c-0.9,0.5-1.8,0.9-2.8,1.2c-0.6,0.2-1.1,0.5-1.6,0.9
		c0-0.1,0-0.2,0-0.3c0.2-1.2,0.5-2.3,0.9-3.4c0.9-2.5,2.1-4.9,3.5-7.2c0.2-0.3,0.4-0.6,0.5-1l0-0.1h0c0.2,0,0.5-0.1,0.7-0.2
		c0.8-0.3,1.1-0.7,1.2-0.9s-0.1-0.4-0.6-0.4c-0.5,0-0.9,0-1.4,0c0.1-0.1,0.1-0.2,0.2-0.3c0.4-0.5,1.1-2.1,1.9-3.6
		c0.8-1.4,1.6-2.8,2.6-4.1c0.7-0.9,1.4-1.9,2.2-2.8c1.6,6.2,4,15.7,6.7,25.9c-0.4,0.2-0.7,0.3-1.1,0.5l-0.5,0.3l-0.3,0.1l-0.6,0.3
		c-0.4,0.2-0.8,0.4-1.2,0.7c-0.2,0.1-0.4,0.3-0.5,0.5c-0.2,0.2-0.1,0.2-0.6,0.4c0,0-0.1,0-0.1,0.1l-0.3,0.2
		c-0.1,0.1-0.2,0.1-0.3,0.1c-0.5,0-1,0.1-1.5,0.2c-0.3,0.1-0.5,0.1-0.8,0.1c-0.1,0-0.2,0-0.3,0.1c-0.2,0.2-0.7,0.3-1,0.4
		c-0.3,0.1-0.5,0.1-0.8,0.2l-1.2,0.3c-0.1,0-0.2,0-0.3,0c-0.1,0-0.1,0-0.2,0l-1.1-0.1c-0.1,0-0.2,0-0.4-0.1h-0.1h-0.2H65
		c-0.1,0-0.3,0-0.4,0l-0.5-0.1c-0.3,0-0.7-0.1-1-0.2c-0.1,0-0.2,0-0.3,0c-0.1,0-0.2,0-0.4,0c-0.3-0.1-0.7-0.3-1-0.5c0,0-0.1,0-0.1,0
		c0,0,0,0-0.1,0s-0.6-0.1-0.4,0.1c-0.2,0-0.3,0-0.1,0.3c0.1,0.1,0.2,0.2,0.2,0.3l0.2,0.2l0.8,0.8c0.3,0.1,0.6,0.3,0.8,0.5
		c0.2,0.2,0.5,0.3,0.7,0.4c0.3,0.1,0.6,0.2,0.9,0.2l0.5,0.1c0.3,0.1,0.7,0.1,1,0.1h0.3c0.3,0,0.7,0,1,0c0.1,0,0.2,0,0.4,0
		c0.3,0,0.6,0,0.9-0.1c0.2-0.1,0.5-0.1,0.7-0.1h0.2c0.5,0,1-0.1,1.5-0.3l0.3-0.1c0.3-0.1,0.7-0.2,1-0.4c0.1,0,0.1-0.1,0.2-0.1
		l0.8-0.1c0.2,0,0.5-0.1,0.7-0.2c0.2,0,0.3-0.1,0.5-0.1c0.4-0.1,0.8-0.3,1.2-0.4c0.1,0,0.2-0.1,0.3-0.2c0.1-0.1,0.1-0.1,0.2-0.2
		l0.8-0.6c0.1-0.1,0.2-0.1,0.3-0.2c0.4-0.2,0.7-0.4,1.1-0.5l0.4-0.1h0.2c0,0.1,0,0.2,0,0.2c0,0,0,0,0,0.1v0.1c0,0,0,0,0.1,0.1
		c0.1,0.1,0.2,0.3,0.3,0.5c0.1,0.1,0.1,0.2,0.1,0.4c0,0.2,0.1,0.4,0.1,0.6c0.1,0.3,0.1,0.5,0.2,0.8v0.1l-0.1,0.1
		c0,0.4,0.1,0.8,0.2,1.1v0.1h-0.1h-0.1l-0.3,0.2c-0.4,0.3-0.8,0.6-1.1,0.9c-0.2,0.3-0.5,0.5-0.8,0.7c-0.5,0.3-0.9,0.7-1.1,1.2
		c-0.1,0.3-0.4,0.5-0.7,0.6c-0.3,0.1-0.5,0.2-0.8,0.4c-0.1,0.1-0.2,0.2-0.3,0.3c-0.2,0.2-0.4,0.4-0.6,0.6c-0.5,0.5-0.9,1.2-1.2,1.9
		c0,0.1-0.1,0.2-0.1,0.3c-0.1,0.2-0.1,0.4-0.2,0.7c0,0.4,0.1,0.4,0.3,0.4c0.1,0,0.2-0.1,0.3-0.2l0,0c0.2,0.1,0.4,0.1,0.6,0.2
		c0.6,0,1.2-0.1,1.7-0.5c0.3-0.2,0.5-0.4,0.8-0.7l0.2,0.4c0,0,0,0,0,0.1c0,0,0.1,0.1,0.1,0.1l-0.5-0.8h-0.1l-0.2,0
		c-0.4,0-0.9,0-1.3,0.1c0,0,0,0,0,0c0.2-0.2,0.6-0.5,1-0.8c0.6-0.6,1.3-1.1,2-1.7l0.6-0.5c0.4-0.3,0.7-0.6,1-0.9
		c0.1-0.1,0.2-0.1,0.2-0.2l0.7-0.3c0.3-0.1,0.6-0.3,1-0.5c1.1,4.3,2.2,8.6,3.3,12.8l0.4,1.6c0.2,0.5,0.3,1.1,0.5,1.6
		c0.4,1,0.8,2,1.4,2.9c1,1.8,2.3,3.3,3.8,4.7c1.4,1.2,2.9,2.2,4.5,2.9c0.7,0.3,1.5,0.6,2.2,0.8l1.1,0.4l1,0.2c2,0.4,4,0.4,6,0.1
		c0.7-0.1,1.5-0.3,2.2-0.4l2-0.6l4-1.1l7.8-2.2l15.2-4.2l29.2-8.2l5.7-1.6c-0.1,0.2-0.2,0.5-0.2,0.7c-0.1,0.2-0.1,0.5-0.2,0.7
		c-0.2,0.6-0.2,1.3-0.1,1.9c0.1,0.7,0,1.4-0.3,2l0.2,0.5c0.1,0.5,0.6,0.8,1.1,0.6c0.4-0.1,0.6-0.4,0.7-0.8c0-0.1,0.1-0.2,0.1-0.3
		c0.1-0.2,0.1-0.4,0-0.5c-0.1-0.1-0.1-0.3-0.1-0.4c0-0.5,0.1-1.1,0.1-1.7c0-0.1,0-0.1,0.1-0.2c0.2-0.2,0.3-0.5,0.2-0.8
		c0-0.4,0.1-0.7,0.2-1.1c0.1-0.5,0.1-0.9,0-1.4c0,0,0,0,0.1,0c0.2-0.1,0.3-0.6,0.3-1c0-0.1-0.4-0.4-0.6-0.4c-0.3,0-0.5,0-0.8,0.1
		l-0.4,0.1h-0.1l-0.4,0.1l-1.1,0.3l-58.5,16.5l-4.1,1.1c-1.3,0.4-2.6,0.6-4,0.7c-5.6,0.3-10.9-2.1-14.3-6.5
		c-0.8-1.1-1.5-2.3-2.1-3.6c-0.1-0.4-0.3-0.7-0.4-1l-0.3-1c-0.2-0.6-0.4-1.4-0.6-2.1c-1.1-4.3-2.2-8.6-3.3-13l0.1,0
		c-0.1-0.5-0.3-1-0.5-1.5c-0.1-0.2-0.1-0.3-0.1-0.5c0-0.6-0.1-1.1-0.3-1.6c-0.1-0.3-0.2-0.5-0.3-0.8c-0.1-0.2-0.2-0.4-0.3-0.6
		c-0.2-0.8-0.4-1.7-0.6-2.5c-0.1-0.5-0.2-1.1-0.4-1.7l0,0c-1.1-4.2-2.2-8.5-3.3-12.7C64.7,138.6,52.6,91.8,43.9,58.1
		c-1.1-4.2-2.3-8.7-3.5-12.5c-0.5-1.5-0.8-3.1-0.9-4.8c-0.1-2.4,0.3-4.8,1.3-7c1.7-4.2,5-7.5,9.2-9.3c0.7-0.3,1.5-0.6,2.3-0.8
		l2.4-0.6c12.8-3.3,25.5-6.4,30.1-7.3c6.5-1.2,22.3-5.2,28.3-7.2c3.8-1.2,7.6-2.4,11.5-3.4l5.8-1.5c1.9-0.5,3.9-0.6,5.8-0.5
		c1.8,0.1,3.5,0.6,5.2,1.3c2.1,0.9,4,2.2,5.6,3.8c0.9,0.9,1.8,2,2.5,3.1c0.7,1.2,1.3,2.5,1.7,3.8c0.2,0.7,0.4,1.4,0.6,2.2
		s0.4,1.5,0.6,2.3c0.4,1.5,0.8,3.1,1.2,4.7c3.3,12.8,7.2,28,11.2,43.1c7.8,30.2,15.7,60.4,18.8,72.6l1.2,4.3l0.1,0.5l-1.8-1.8
		c-1.1-1.1-2.2-2.3-3.4-3.4c-1.6-1.6-3.4-3-5.3-4.2c-0.6-0.4-1.3-0.7-2.1-0.8c-0.4,0-0.8,0-1.2,0.1c-0.4,0.1-0.7,0.2-1.1,0.3
		c-1.3,0.6-2.5,1.3-3.6,2.1c-1.7,1.3-3.4,2.7-5.1,3.9c-0.9,0.7-1.9,1.2-2.9,1.7c-0.3,0.1-0.5,0.2-0.8,0.2c-0.3,0-0.5,0.1-0.8,0.1
		c-0.6,0-1.2,0-1.8,0.1c-2.1,0.1-4.1,0.7-5.8,1.9l-0.3,0.3h-0.1c-0.1,0-0.1,0-0.2,0L148,145l-1.4-0.1c-0.2,0-0.3,0-0.5,0
		c0,0,0-0.1,0.1-0.1c0.4-1.2,0.8-2.5,1-3.8c0.5-2.6,1-5.3,1.5-8c0.3-1.8,0.3-3.6,0.1-5.4c0-0.7,0.1-1.3,0.3-2
		c0.3-1.5,0.6-3.1,0.9-4.7c0.3-1.6,0.6-3.3,0.8-5.1c0.4-3.5,0.6-7.1,1.2-10.6c0.1-0.8,0.3-1.7,0.6-2.5c0.1-0.2,0.1-0.4,0.1-0.6
		c0-0.3-0.1-0.5-0.3-0.7c0,0,0.1-0.1,0.1-0.1l0.1-0.1c0-0.1,0.1-0.2,0.1-0.2c0.1-0.2,0.2-0.5,0.2-0.7c0.1-0.5,0.2-0.9,0.3-1.3
		c0.6-3.3,1.1-6.6,1.3-10c0-0.7,0.1-1.3,0.2-2c0.1-0.7,0.2-1.3,0.3-2.1c0-0.2,0-0.4,0-0.6c0-0.2-0.1-0.3-0.1-0.5v-0.1
		c-0.1-0.1-0.1-0.2-0.2-0.2c-0.1-0.1-0.3-0.3-0.4-0.4c-0.3-0.2-0.6-0.3-0.9-0.5c-0.5-0.2-1-0.3-1.6-0.4c-1-0.1-2.1-0.2-3.1-0.2
		c-0.4,0-0.8,0-1.2,0c0-0.6,0-1.1,0-2c0-0.4-0.1-0.8-0.3-1.2c-0.1-0.2-0.1-0.4-0.2-0.6c0-0.1,0-0.2,0-0.3c0-0.1,0-0.1,0-0.2
		s0-0.1,0-0.2c0-0.4-0.1-0.8-0.4-1.1c-0.4-0.4-0.9-0.6-1.4-0.5c-0.1,0-0.1,0-0.2,0.1h-0.1h-0.1c-0.1,0-0.2,0.1-0.2,0.1
		c-0.1,0.1-0.3,0.2-0.5,0.3c-0.8,0.4-1.7,0.7-2.5,1c-0.4,0.1-1,0.5-1.7,0.7c-0.5,0.2-1,0.4-1.5,0.5c-0.2,0-0.5,0-0.7,0
		c-0.2,0-0.5-0.1-0.7-0.1c-0.8-0.1-1.5-0.4-2.2-0.8c-0.8-0.4-1.4-1.3-2.4-1.2c-0.7,0.1-1.4,0-1.9-0.4c0.2,0,0.5,0,0.7-0.1
		c0.7,0,1.4-0.5,2.2-0.5c0.7,0,1.4,0.8,2.1,0.6c0.6-0.2,1.4-0.2,2,0c0.4,0.2,0.9,0.2,1.3,0c0.4-0.1,0.8-0.3,1.2-0.5
		c0.7-0.2,1.4-0.4,2.1-0.4h0.1c0.1,0,0.3,0,0.4,0c0.3,0,0.6,0.1,0.9,0.1c0.6,0.1,1.2,0.2,1.8,0.1c0.5,0.1,1.6-0.3,1.1-1.1
		c-0.5-0.9-2.4-0.6-3.4-0.6h-0.6H142h-0.4c-0.3,0-0.5,0-0.8,0.1c-0.9,0.2-1.6,0.1-2.2,0.7c-0.2,0.3-0.5,0.5-0.8,0.6
		c-0.1,0.1-0.3,0.1-0.5,0.1c-0.2,0-0.4,0-0.6,0c-0.8,0-1.6-0.4-2.4-0.4c-0.5,0-0.9-0.4-1.3-0.5c-0.5-0.1-0.8,0.3-1.2,0.4
		c-0.9,0-1.8,0-2.7-0.1c-0.5,0-1,0.1-1.5,0.1c-0.1,0-0.2,0.1-0.3,0.1c-0.3-1.1-0.6-2.1-0.9-3.2c-0.4-1.1-0.9-2.2-1.4-3.2
		c-0.5-1-1.1-2.1-1.7-3.2c-0.4-0.6-0.8-1.3-1.2-1.9c-0.2-0.3-0.4-0.6-0.7-0.9c-0.2-0.3-0.5-0.7-0.7-0.8c-0.1-0.1-0.1-0.1-0.2-0.2
		c0,0,0,0,0,0c0.1-0.1,0.2-0.3,0.2-0.4c0-0.1,0-0.3,0-0.4c-0.1-0.3-0.2-0.5-0.4-0.8l-1.7-2.4c-0.5-0.7-0.9-1.5-1.2-2.3
		c-0.1-0.4-0.1-0.8-0.1-1.1c0-0.5,0-1.1-0.1-1.6l-0.2-0.7c0-0.2-0.1-0.4-0.1-0.6v-0.7c0-0.1,0-0.2,0-0.3c0-0.1-0.1-0.3-0.1-0.4
		c-0.2-0.4-0.6-0.6-1-0.7c-0.3,0-0.6,0-0.9,0.1l-0.6,0.1l-1.1,0.3c-0.7,0.2-1.4,0.4-2.1,0.7c-1.4,0.5-2.8,1-4.1,1.5
		c-0.5,0.1-0.8,0.5-0.9,0.9c-0.1,0.5-0.6,0.4-1,0.3c-0.4-0.2-0.6-0.4-0.9,0c-0.3,0.4-0.4,1.2-1.2,0.5c-0.1-0.1-0.1,0-0.1,0.2
		c0,0.8-0.3,0.7-0.6,0.8c-4.3,1.9-7.8,3.5-12,5.6c-0.5,0.2-1.3,0.3-1.3,0.3c-0.1,0.1-0.3,0.1-0.4,0.1c-0.3,0.1-0.7,0.1-1.1,0.2
		c-1.9,0.3-3.9,0.5-5.9,0.8c-1,0.2-2,0.4-3,0.6c-1.1,0.3-2.2,0.7-3.1,1.3c-0.5,0.3-1,0.7-1.4,1.2c-0.2,0.3-0.4,0.6-0.5,1
		c-0.1,0.2-0.1,0.4-0.2,0.6l-0.1,0.3v0.1c0,0.1,0,0.3,0,0.4c0,0.3,0,0.5,0.1,0.8c0.2,0.9,0.7,1.8,1.5,2.3c0.1,0.1,0.3,0.1,0.4,0.1
		c0.5,0.9,0.9,1.8,1.5,2.7V73l0.1,0.3l0.1,0.5l0.3,1l0.6,2.1c0.4,1.5,0.8,2.9,1.2,4.5c0.8,3.1,1.6,6.3,2.3,9.6s1.5,6.6,2.2,9.9
		c0.4,1.6,0.8,3.2,1.1,4.8l1.2,4.5v0.1v0c0.1,0.2,0.4,0.7,0.3,0.6l0.2,0.2l0.4,0.4l0.7,0.7c0.5,0.4,0.9,1,1.3,1.4
		c0.8,0.9,1.5,1.9,2.2,2.7c1.1,1.5,2.1,3.1,2.8,4.9c0.1,0.2,0.1,0.4,0.2,0.6c0.1,0.2,0.1,0.5,0.2,0.7c0.2,0.4,0.4,0.9,0.6,1.3
		c1.2,1.8,3.5,10.9,3.4,13c0,2.1,0.5,4.2,1.5,6.2c0.9,1.5,1.5,3.2,1.8,4.9c0.2,0.7,0.4,1.6,0.7,2.7c0.4,1.3,0.8,2.5,1.4,3.7
		c0.6,1.5,1.4,2.8,2.4,4.1c0.5,0.7,1.1,1.4,1.8,1.9c0.2,0.2,0.4,0.3,0.6,0.4c0.2,0.1,0.5,0.2,0.8,0.3c0.3,0.1,0.6,0.1,0.9,0
		c0.1,0,0.2,0,0.4-0.1l0.3-0.1c3.2-0.6,6.6-1,9.5-1.3c2.8-0.3,5.2-0.5,6.6-0.5c0.6,0,1.2-0.1,1.8-0.1c0,0.1,0.1,0.2,0.1,0.2
		c0.2,0.5,0.4,0.9,0.7,1.3c0.2,0.4,0.5,0.9,0.8,1.3c1.1,1.5,2.4,2.8,4,3.8c0.4,0.2,0.8,0.5,1.2,0.8l0.7,0.5l0.7,0.5
		c0.5,0.3,1,0.6,1.5,0.9c0.4,0.2,0.8,0.4,1.2,0.6l1.3,0.5c0.4,0.2,0.8,0.3,1.2,0.4l1.2,0.2c0.6,0.1,1.1,0.2,1.6,0.3
		c0.5,0.1,1.1,0.2,1.8,0.5c0.1,0,0.6,0.1,0.9,0.2c0.6,0.1,1.4,0.2,1.8,0.3c2.6,0.4,5.3,0.6,7.9,0.4c1.3-0.1,2.7-0.3,4-0.5
		c0.7-0.1,1.3-0.2,2-0.4l1-0.2c0.3-0.1,0.6-0.1,0.9-0.2c0.1,0.4,0.3,0.8,0.5,1.1c0.2,0.4,0.4,0.8,0.6,1.1c0,0.1,0.1,0.2,0.2,0.2
		c0.5,0.5,0.8,1.2,1.3,1.7c0.2,0.2,0.4,0.4,0.6,0.7c0.3,0,0.5,0.1,0.7,0.3c0.1,0.1,0.3,0.3,0.5,0.4c0.2,0.1,0.4,0.3,0.5,0.6
		c0.1,0.2,0.2,0.4,0.4,0.6c0,0,0.1,0.1,0.2,0.2c0.3,0.4,0.7,0.8,1.1,1.2l0.3,0.3c0.1,0.1,0.2,0.2,0.2,0.2c0.2,0.1,0.4,0.2,0.6,0.4
		l0.1,0.1c0.1,0.1,0.2,0.1,0.3,0.2l0.2,0.1c0,0,0,0.1,0,0.1c-0.1,0.2-0.1,0.4,0,0.6c0,0.1,0,0.1,0,0.2c0,0.1,0,0.2,0,0.3
		c0,0.2,0,0.5,0,0.7c0.1,0.3,0.1,0.6,0,0.8c-0.2,0.7-0.2,1.3-0.2,2c0,0,0,0.1,0,0.1c-0.2,0.4,0.1,0.9,0,1.3c0.3,0.5,0.2,1.1,0.7,1.5
		c0.3,0.3,0.5,0.7,0.5,1.2c0,0.4,0.1,0.7,0.1,1.1c0,0.3,0,0.7,0.1,1c0.1,0.4,0,1,0.5,1.3c0.1,0.1,0.1,0.2,0.1,0.3
		c0.2,0.1,0.3,0.1,0.5,0.2c0.5,0.2,1.1,0.3,1.2-0.5c0-0.1,0-0.1,0-0.2c0-0.6-0.2-1.2-0.3-1.8c-0.2-0.5-0.3-0.9-0.4-1.4
		c0-0.1,0-0.1-0.1-0.2c-0.2-0.3-0.4-0.6-0.4-0.9c-0.1-0.2-0.1-0.4-0.1-0.6c0-0.3,0-0.6-0.1-0.8c0-0.1,0-0.2,0-0.3
		c0-0.5-0.1-1.1-0.2-1.6c-0.1-0.3-0.1-0.7,0-1c0-0.1,0-0.2,0-0.2c-0.2-0.5-0.2-1.1-0.1-1.7c0-0.1,0-0.2,0-0.3c0,0,0-0.1,0-0.1
		c-0.1-0.5-0.1-1-0.1-1.4c0.1-0.2-0.1-0.3-0.1-0.6c-0.1-0.3-0.2-0.5-0.3-0.8c-0.2-0.1-0.4-0.3-0.6-0.4l-0.4-0.3l-0.2-0.2l-0.4-0.3
		c-0.1-0.1-0.2-0.2-0.3-0.3c-0.1-0.1-0.1-0.1-0.1-0.1c-0.3,0-0.4-0.3-0.6-0.5c-0.2-0.1-0.4-0.4-0.6-0.5c-0.5-0.4-0.9-0.9-1.2-1.5
		l-0.1-0.1c-0.5-0.5-0.9-1-1.3-1.5c-0.5-0.5-0.9-1.1-1.2-1.7l-1-1.6c-0.1-0.2-0.3-0.4-0.4-0.5c0-0.3,0.1-0.7,0.1-1v-1
		c0-0.6,0-1.3,0-1.9c0-1.2-0.1-2.4-0.1-3.5c-0.1-0.8-0.2-1.6-0.4-2.4c-0.2-1-0.8,1.7-1,4.1c-0.1,1.3-0.2,2.7-0.3,4.1
		c0,0.5-0.1,1.1-0.1,1.6l-0.7,0.2l-1.1,0.2c-0.8,0.1-1.5,0.3-2.3,0.4c-0.8,0.1-1.6,0.3-2.4,0.4c-1.7,0.2-3.4,0.3-5.1,0.2
		c-1.2,0-2.4,0-3.5-0.1c-1.8-0.3-3.7-0.6-5.4-1.2c-0.6-0.2-1.2-0.3-1.8-0.5l-1.8-0.7l-0.9-0.3c-0.3-0.1-0.5-0.3-0.8-0.4l-1.6-0.9
		c-0.5-0.3-1-0.7-1.5-1c-0.4-0.3-0.8-0.6-1.1-1.1c-0.1-0.2-0.1-0.2-0.4-0.6c-0.3-0.3-0.6-0.6-0.9-1l-0.8-1.1l-0.4-0.6
		c-0.1-0.2-0.2-0.4-0.4-0.6l-0.8-1.3c-0.8-1.4-1.4-3-1.8-4.5c-0.4-1.3-0.6-2.6-0.6-3.9c0-0.5,0-0.9,0.1-1.4c0.2-0.5,0.6-0.8,1.1-1
		c0.6-0.3,1.3-0.5,2-0.6c1.5-0.3,2.9-0.5,4.4-0.5c2.2-0.1,4.4,0,6.6,0.1l3.4,0.1l1.7,0.1l0.6,0c-0.1,0.1-0.1,0.1-0.2,0.3
		c-0.2,0.2-0.3,0.5-0.4,0.7c-0.1,0.2-0.2,0.3-0.2,0.5c-0.1,0.3-0.2,0.7-0.3,1c-0.1,0.1-0.1,0.3,0,0.4c0,0,0,0.1,0,0.1
		c-0.1,0.2,0.1,0.4,0.1,0.6c0,0.1,0.1,0.1,0.1,0.1c0.1,0,0.3,0,0.4-0.1c0.1-0.1,0.1-0.1,0.2-0.2c0.1-0.1,0.2-0.1,0.3-0.3
		c0-0.1,0.1-0.1,0.1-0.2c0-0.1,0-0.2,0.1-0.2c0.1-0.1,0.1-0.1,0.1-0.2c-0.1-0.2-0.1-0.3,0-0.5c0-0.2,0.1-0.5,0.1-0.7
		c0-0.1,0.1-0.2,0.1-0.3c0.2-0.2,0.4-0.4,0.5-0.6c0.1-0.1,0.1-0.2,0.1-0.3l0.4,0h0.1c0.4-0.4,0.8-0.7,1.3-1c0.4-0.2,0.8-0.4,1.2-0.5
		c0.8-0.3,1.7-0.5,2.6-0.6c0.5-0.1,1-0.1,1.5-0.1c0.3,0,0.5,0,0.8,0c0.3,0,0.7,0,1-0.1c1.2-0.2,2.4-0.7,3.4-1.4
		c1.7-1.1,3.3-2.3,4.8-3.7c1.4-1.3,2.9-2.3,4.5-3.2c0.3-0.2,0.5-0.2,0.7-0.3c0.2-0.1,0.4-0.1,0.6-0.2c0.6,0,1.2,0.2,1.7,0.6
		c1.2,0.8,2.4,1.7,3.4,2.6c1.5,1.4,3,2.9,4.5,4.4l3.5,3.4c1.1,1.1,2.4,2.6,3.4,3.4c1.1,1,2.2,2.1,3.3,3.2c1.1,1.2,2.2,2.4,3.3,3.6
		l4.4,5l4.1,4.6c1.1,1.3,2.4,2.8,3.4,3.8c0.4,0.8,0.9,1.5,1.5,2.1c0.3,0.3,0.5,0.5,0.7,0.8c0.4,0.5,0.8,1.1,1.2,1.7
		c0.7,0.9,1.4,1.7,2.1,2.5l1.6,0.6c0-0.1,0-0.1,0.1-0.1C214.5,177.4,214,176.6,213.8,175.8z M70.1,167.5c-0.4,0.2-0.8,0.5-1.3,0.8
		l-0.7,0.4c-0.5,0.2-0.9,0.5-1.4,0.6c-1.8,0.9-3.8,1.4-5.8,1.5c-1.4,0.1-2.8-0.1-4.2-0.4c-1.5-0.3-3-1-4.2-2
		c-1.2-0.9-2.2-2.3-2.1-3.4v-0.3l0.1-0.3c0.1-0.2,0.1-0.5,0.2-0.7c0.2-0.5,0.4-1,0.7-1.4c0.8-1.4,1.7-2.6,2.8-3.8
		c0.8-1,1.7-1.9,2.5-2.8l1.3-1.3l1.7-1.6l0.1-0.6v-0.3v-0.1c0.1-0.2,0.1-0.4,0.2-0.5c0.2-0.4,0.4-0.8,0.6-1.2
		c0.8-1.4,1.7-2.8,2.6-4.1l1-1.3l0.3-0.3c2,7.7,4.1,15.9,5.9,22.9L70.1,167.5z M62.4,136.5l-1-0.3c-1.1-0.3-2.1-0.8-3.2-1.2
		c-2-0.9-3.9-2.1-5.6-3.5c-2-1.7-3.5-4-4.3-6.5c-0.5-1.3-0.7-2.8-0.6-4.2c0-0.3,0.1-0.6,0.1-0.9c0-0.1,0.1-0.3,0.1-0.4
		c0.1-0.1,0.1-0.2,0.1-0.3c0.3-0.5,0.7-0.9,1.1-1.1c1.7-1,3.5-1.9,5.3-2.6c0.8-0.4,1.5-0.7,2.2-1c0.5,2,1.1,4,1.6,6
		C59.3,124.3,60.7,130,62.4,136.5z M151.5,99.6L151.5,99.6C151.7,99.5,151.5,99.6,151.5,99.6z M151.1,102.9
		C151.1,102.9,151.1,102.9,151.1,102.9C151.1,102.9,151.2,102.9,151.1,102.9C151.2,102.9,151.2,103,151.1,102.9z M128,75.9
		c-0.1,0-0.1,0-0.2,0C127.9,75.9,128,75.9,128,75.9z M115,50.6C115,50.6,115,50.7,115,50.6C114.9,50.7,114.9,50.7,115,50.6z
		 M87.9,109.7L87.9,109.7C87.9,109.7,87.9,109.7,87.9,109.7z M138.2,144.8c-1.5,0-3.1,0-4.6,0.1c-1.6,0.1-3.2,0.4-4.7,0.9
		c-0.8,0.3-1.5,0.8-2,1.4c-0.2,0.2-0.3,0.5-0.4,0.7c0,0.1-0.1,0.3-0.1,0.4c0,0.1,0,0.2,0,0.3c-0.1,0.4-0.1,0.8-0.1,1.2
		c0,1.1,0.2,2.3,0.5,3.3c0.3,0.9,0.8,2.8,1.1,3.8c0,0,0,0.1,0,0.1c-0.6,0-1.3,0-1.9,0.1c-2.8,0.2-7.2,0.5-12.3,1.2l-2,0.3
		c-0.3,0.1-0.6,0.1-1,0.2c-0.2,0-0.4,0.1-0.5,0.1l-0.3,0.1h-0.1c-0.3,0-0.6-0.2-0.9-0.4c-0.5-0.4-0.9-0.9-1.2-1.3
		c-1.6-2.3-2.8-4.8-3.6-7.5c-3-11.6-6-23.2-7.4-28.5c-0.4-1.5-1.1-2.9-1.9-4.2c-0.8-1.3-1.9-2.4-3.2-3.3c-0.6-0.5-1.2-1.1-1.6-1.8
		c-0.4-0.5-0.8-0.9-1.2-1.3l-0.6-0.6l-0.3-0.3l0,0l-0.1-0.2c-0.2-1-0.8-2.7-1.2-4.5s-0.9-3.9-1.3-5.6l-2-8.9
		c-0.9-3.9-1.8-7.7-2.1-8.7c-0.4-1.7-0.9-3.4-1.3-4.9l-0.6-2.3l-0.3-1.1l-0.1-0.5l-0.1-0.3v-0.1v-0.1L78.6,72
		c-0.7-1.1-1.3-2.2-1.8-3.2l-0.6-1.2c-0.1-0.2-0.2-0.4-0.3-0.7c0,0,0,0,0,0c0.1-0.8,1.6-1.6,3-2c0.3-0.1,0.6-0.3,0.7-0.7
		c0.1-0.4,0.4-0.4,0.7-0.1c0.7,0.6,1.2,0.5,1.5-0.3c0.2-0.4,0.4-0.2,0.7,0s0.7,0.3,1,0c0.7-0.7,0.8-0.8,1.7-0.2
		c0.1,0.1,0.2-0.1,0.3-0.2c0,0,0.1-0.1,0.1-0.1c0.4-0.4,1.1-0.5,1.6,0c0.3,0.3,0.7,0.4,0.9,0c0.2-0.4,0.5-0.8,0.9-0.3
		c0.1,0.1,0.2,0.2,0.2,0c0.2-0.8,0.6-0.6,1-0.7c0.5-0.2,1-0.4,1.5-0.6L93,61l2.4-1.2c1.6-0.8,3.2-1.5,5-2.3l1.2-0.5l1.2-0.5l1.2-0.5
		l1.2-0.5l1.2-0.5l1.2-0.5l1.2-0.5l1.2-0.4l1.2-0.4l1.2-0.4c0.4-0.1,1,0,1.2-0.5c0.2-0.5,0.8-0.2,1.2-0.2c0.1,0,0.2,0,0.2-0.1
		c0,0.2,0.1,0.4,0.1,0.6c0.1,0.2,0.1,0.5,0.1,0.8c0,0.3,0,0.6,0,0.8c0,0.4,0,0.7,0.1,1.1c0.2,1.1,0.7,2.1,1.3,3
		c0.5,0.8,1,1.5,1.5,2.2l-0.1,0c-1,0.4-1.9,0.7-2.8,1c-0.2,0.1-0.6-0.1-0.6,0.4c-0.1,0.8-0.5,0.8-0.8,0.9c-0.2,0.1-0.4,0.2-0.6,0.2
		c-0.3,0-0.9,0.4-1.4,0.5c-0.3,0-0.6,0.1-0.9,0.2c-0.2,0.2-0.6,0.1-0.9-0.1c-0.3-0.2-0.5-0.1-0.5,0.2c0,0.2-0.1,0.4-0.2,0.4
		c-0.1,0-0.1,0-0.2,0c-0.1,0,0-0.1-0.5-0.1c-1,0-1.9,0.5-2.4,1.4c-0.1-0.4-0.3-0.9-0.5-1.3c-0.4-0.7-0.7-1.4-0.8-2.2
		c-0.3-0.9-0.8-1.7-1.1-2.6c-0.2-0.3-0.3-0.6-0.5-0.9c-0.4-0.6-0.8-1.1-1-0.1c0,0.2,0,0.3,0.1,0.5c0.2,0.5,0.3,0.9,0.6,1.3
		c0.3,0.6,0.6,1.1,1,1.5c0.6,0.8,0.4,1.8,0.8,2.6c0.2,1,0.4,2,0.4,3c0,0.2,0,0.3,0.1,0.5c0.1,0.4,0.2,0.8,0.7,0.8
		c0.5,0,0.6-0.5,0.7-0.9c0-0.1,0-0.2,0-0.4c0.1,0.1,0.3,0.1,0.5,0.1c1-0.2,1.9-0.6,2.8-0.9c2.5-0.9,5-1.9,7.5-2.8
		c0.2-0.1,0.4,0.1,0.4-0.3c0.1-0.8,0.3-0.7,0.7-0.8c0,0.3,0,0.6,0.2,0.9c0.2,0.2,0.3,0.4,0.5,0.6l0.5,0.7c0.3,0.4,0.6,0.9,0.8,1.3
		c0.5,0.8,1,1.6,1.4,2.4c1,1.7,1.8,3.6,2.5,5.4c0.3,1,1,3.2,1.2,4.3c0.3,1.4,0.5,2.7,0.7,3.8c-0.4,0-0.7,0.1-1.1,0.2l-0.6,0.1h-0.1
		h-0.2h-0.3l-0.8,0.1H123h-0.7H122h-0.7c-0.2,0-0.5-0.4-0.7,0.1c-0.2,0.5-0.6-0.2-0.7-0.1s-0.2-0.1-0.2,0.1
		c-0.2,0.7-0.4,0.5-0.6,0.5c-1.3,0-2.5-0.2-3.8-0.5c-1.1-0.5-2-1.3-2.7-2.3c-0.8-1-1.5-2.1-2.2-3.2c-0.1-0.1,0-0.2-0.2-0.2
		c-0.9,0.2-0.8-0.3-1-0.6c-0.5-0.9-1-1.8-1.5-2.7c0,0-0.1-0.1-0.1-0.1l-0.6-0.8c-0.2-0.3-1.1,0-1.2,0.2s-0.2,0.8-0.1,0.9
		c0.2,0.1,0.3,0.3,0.5,0.4h0.2c0.1,0,0.1,0,0.2,0.1c0.1,0.1,0.1,0.2,0.1,0.3c0.6,1.1,1.2,2.2,1.9,3.2c0.1,0.1,0.1,0.3,0.4,0.2
		s0.5,0.1,0.5,0.2c0.5,0.8,1,1.6,1.5,2.3c0.8,1.3,1.9,2.3,3.3,3c-0.2,0.1-0.3,0.2-0.3,0.4c-0.1,0.2-0.1,0.4,0,0.6
		c0.1,0.3,0.2,0.5,0.4,0.8c0.2,0.4,0.4,0.7,0.6,1.1c0.2,0.5,0.4,1,0.7,1.5c0.2,0.3,0.4,0.7,0.5,1.1c0,0.1,0.1,0.3,0.2,0.4l0.5,0.7
		c0.2,0.3,0.4,0.4,0.6,0.3c0.3-0.1,0.5-0.5,0.4-0.8c-0.1-0.5-0.3-1-0.5-1.4c-0.2-0.3-0.3-0.6-0.4-0.9c0-0.2-0.1-0.4-0.2-0.6
		c-0.4-0.6-0.6-1.2-0.8-1.8c-0.1-0.2-0.2-0.3-0.2-0.4c0-0.1-0.1-0.1-0.1-0.2c0.1,0,0.2,0.1,0.3,0.1c0.4,0,0.7,0.1,1.1,0.2
		c0.9,0.1,1.7,0.2,2.6,0.1c1.8,0,3.7-0.1,5.5-0.3l0.7-0.1c0.4-0.1,0.7-0.1,1.1-0.2c0.4,1.9,0.9,3.8,1.9,6.2c0.2,0.5,0.4,1,0.3,1.5
		c-0.3,2.2,0.5,4.3,0.9,6.5c3.5,16.9,4.9,24.5,8.5,41.4c0.1,0.4,0.2,0.8,0.3,1.2c0.1,0.4,0.2,0.7,0.4,1.1c0.1,0.3,0.5,0.5,0.6,0.4
		c0.3-0.2,0.8-0.5,0.7-0.8c0-0.3-0.1-0.7-0.1-1c-0.1-0.6-0.2-1.2-0.4-1.8c-1.7-7.5-2.9-14-4.4-21.6c-1.5-7.6-1.3-6.9-3-14.4
		c-0.5-2.4-0.2-4.7-0.8-7c-0.3-1-0.6-2-0.9-3c0.2,0.1,0.4,0.1,0.6,0c0.1,0,0.1,0,0.2,0.1c0.1,0.2,0.4,0.2,0.6,0.2c0.1,0,0.1,0,0.2,0
		l0.6,0.4l0.1,0c0.2,0.1,0.3,0.1,0.5,0.1c0.1,0,0.2-0.1,0.3-0.3c0.2-0.3,0.2-0.7,0.2-1c0-0.1-0.1-0.3-0.2-0.4
		c-0.1-0.1-0.3-0.1-0.4-0.1c-0.7-0.2-1.5-0.4-2.2-0.6c-0.1,0-0.2,0-0.2-0.1c-0.2-0.4-0.5-0.3-0.8-0.3c-0.1-0.4-0.3-0.8-0.4-1.1
		c-0.3-0.9-0.5-1.8-0.5-2.7c0.2-3.5-0.4-4.5-1.2-7.9c-0.1-0.5-0.2-1-0.3-1.4c0.6-0.1,1.2-0.3,1.8-0.2c1.8,0.4,3.5,1.2,5,2.2
		c0.2,0.1,0.3,0.1,0.5,0.1c0.2,0,0.5,0,0.7,0c0.5,0,1-0.1,1.2-0.1c0.9,0.1,1.9,0.1,2.8,0c1.8-0.2,3.6-0.8,5.2-1.8
		c0.3-0.2,0.9-0.4,0.9-0.2c0,0,0,0.1,0,0.2c0,0,0,0,0,0.1c0,0.1,0.1,0.2,0.1,0.3c0.5,0.8,0.1,1.7,0,2.5l-0.2,5.9
		c0,0.9-0.1,1.9-0.1,2.8c0.1,0.4,0,0.7-0.2,1.1l-0.6,0.4l0,0l-0.9,0.5c0,0-0.1,0.1,0,0.3c0,0.2,0.1,0.3,0.2,0.5
		c0,0.1,0.2,0.2,0.2,0.2c0.2,0,0.3-0.1,0.5-0.2c0.1-0.1,0.2-0.2,0.3-0.3c0.2-0.1,0.3-0.2,0.5-0.3c0,0,0,0.1,0,0.1
		c0.1,1.8-0.2,3.4-0.2,5.3v1.2c0,0.4,0,0.8,0,1.2c0,0.4-0.2,3.2-0.5,6.1c-0.3,2.9-0.7,5.9-0.8,6.9c-0.3,1.6,0.9,3.5-0.4,5
		c-0.3,0.4-0.2,0.5,0,0.9s0,0.8,0,1.2l-0.4,3c-0.5,3.8-0.8,7.6-1.2,11.3c-0.2,1.9-0.4,3.8-0.6,5.6c-0.1,0.9-0.3,1.7-0.4,2.5
		c-0.2,0-0.4,0-0.6,0.1c0,0-0.1,0-0.1,0.1c-0.3,0.3-0.4,0.8-0.3,1.3c0,0.4,0.2,0.8,0.4,1.1c0,0.1,0.1,0.1,0.1,0.2
		c0.1,0.1,0.2,0.1,0.3,0.2c0.1,0,0.2,0,0.3,0c-0.8,0-1.7,0-2.5,0.1H138.2z M141.5,144.7c0.1,0,0.3-0.1,0.4-0.2
		c0.2-0.2,0.4-0.4,0.5-0.7c0.1-0.2,0.1-0.4,0.2-0.6c0.1-0.2,0-0.2,0.1-0.3v-0.2c0-0.1,0-0.2,0.1-0.4c0-0.2,0-0.4,0-0.5
		c0.2-1,0.3-2,0.5-3c0.2-1.8,0-3.8,0.6-5.6c0.1-0.4,0.7-0.7,0.8-1.1s-0.4-0.7-0.5-1.1c-0.1-0.3,0-0.7-0.2-1.1
		c-0.3-0.6-0.4-0.7,0-1.2c0.7-0.8,0.4-1.7,0.5-2.5l0.4-3c0.2-1.9,0.5-3.8,0.8-5.6c0.1-0.9,0.2-1.8,0.4-2.7s-0.3-1.7-0.2-2.5l0.4-2.6
		c0.1-0.4,0.4-3.2,0.6-5.9c0.3-2.8,0.4-5.6,0.4-6.1v-2.6c0-0.9,0.3-5.5,0.3-7.1c0.1-1.5,0.1-3,0.2-4.5c0.2,0.1,0.5,0.2,0.8,0.3
		l2.5,0.4l1.2,0.4c0.3,0.1,0.5,0.2,0.8,0.3c0,0.1,0,0.2,0,0.4c0,0.4,0,0.8,0,1.3c0,0.9-0.1,1.8-0.1,2.7c-0.2,1.8-0.4,3.7-0.6,5.6
		c-0.1,0.9-0.3,1.9-0.5,2.8c-0.1,0.5-0.2,0.9-0.3,1.3l-0.1,0.5l-1,0.3l-0.7,0.2l-0.2,0.1h-0.1c-0.3,0.1-0.5,0.3-0.7,0.5
		c0,0-0.9,0.9,0.6,2c1.1,0.2,0.4,0.1,0.6,0.1h0.2h0.3c0,0,0.1,0,0.1,0c0,0.1,0,0.1-0.1,0.2c-0.1,0.3-0.1,0.5-0.2,0.8
		c-0.1,0.5-0.2,1-0.2,1.5c-0.1,1-0.2,1.9-0.3,2.9c-0.2,1.9-0.4,3.7-0.5,5.5c-0.1,0.9-0.2,1.8-0.3,2.6c0,0.4-0.1,0.8-0.2,1.2
		c-0.1,0.4-0.1,0.8-0.2,1.2c-0.2,0.6-0.3,1.3-0.2,2c0.6,2.3-0.1,4.5-0.5,6.8c-0.4,2.3-1.3,4.7-1,6.8c0.4,2.7-1.3,4.7-1.6,7.1
		c-0.1,1-0.2,1.9-0.2,2.9c0,0.1,0,0.2,0,0.2c-0.3,0-0.6,0-0.9-0.1C143.1,144.7,142.3,144.7,141.5,144.7z M186.8,145.7L186.8,145.7
		C186.8,145.7,186.8,145.7,186.8,145.7c0,0.1,0.1,0.1,0.1,0.2C186.8,145.8,186.8,145.8,186.8,145.7L186.8,145.7
		C186.8,145.7,186.8,145.6,186.8,145.7z"/>
	<path class="st0" d="M174.1,204.1c-0.5,0-0.8,0.5-1,1c-0.3,0.6-0.5,1.2-0.5,1.8l-0.2,1.4c-0.1,0.7-0.3,1.3-0.5,2
		c-0.1,0.2-0.1,0.4-0.2,0.7c0,0,0,0.1,0,0.1c0,0.3-0.3,0.5-0.2,0.8c0.1,0.3,0.2,0.5,0.4,0.7c0.1,0.2,0.2,0.3,0.3,0.5
		c0.1,0,0.3-0.1,0.4-0.1c0.2,0,0.4-0.2,0.5-0.4c0.2-0.3,0.4-0.7,0.5-1c0.1-0.3,0.1-0.7,0.2-1c0,0,0,0,0-0.1c0.1-0.5,0.2-1.1,0.3-1.6
		c0.1-0.3,0.1-0.6,0.1-0.9c0-0.4,0.1-0.9,0.2-1.3c0.1-0.5,0.2-1,0.1-1.5c0-0.3,0-0.5,0.1-0.8C174.5,204.1,174.4,204.1,174.1,204.1z"
		/>
	<path class="st0" d="M175.5,198.1c-0.4-0.1-0.9,0.1-1.2,0.4c-0.3,0.4-0.5,0.8-0.7,1.2c0,0.1,0,0.2,0,0.3c-0.2,0.4-0.1,0.9,0.1,1.3
		c0.3,0.7,0.8,0.7,1.1,0.2c0.3-0.4,0.4-0.8,0.5-1.3c0-0.1,0-0.2,0-0.3c0.3-0.4,0.2-1,0.3-1.4C175.8,198.3,175.7,198.1,175.5,198.1z"
		/>
	<path class="st0" d="M177.3,193c-0.5,0.1-1,0.4-1.4,0.9c-0.4,0.4-0.4,0.9-0.5,1.4c-0.2,1,0.6,1.5,1.2,1c0.3-0.1,0.5-0.4,0.6-0.7
		c0.1-0.4,0.2-0.9,0.3-1.3c0,0,0.1-0.2,0.1-0.3C177.9,192.9,177.8,192.9,177.3,193z"/>
	<path class="st0" d="M132.3,152c0.2,0.2,0.3,0.3,0.5,0.3c0.1,0,0.1,0,0.2,0c0.1,0,0.1,0.1,0.2,0c0.1-0.1,0.3-0.1,0.4-0.1
		c0.2-0.1,0.4-0.1,0.6-0.2l0.4-0.1l0.5-0.1l0.6-0.1c0,0,0.1,0,0.1,0c0.1,0,0.1,0,0.2-0.1c0.1,0,0.1,0,0.3,0c0.2,0,0.5,0.1,0.7,0.1
		c0.2,0.1,0.4,0.1,0.6,0.1c0.2,0,0.5,0,0.7,0l0.5-0.1c0,0,0.1,0,0.2,0c0.2,0.1,0.4,0.3,0.7,0.4c0.2,0.1,0.3,0.2,0.5,0.1
		c0,0,0.1,0,0.1,0c0.1,0,0.1,0,0.2,0c0.3-0.1,0.5-0.2,0.8-0.2c0.1,0,0.2,0,0.2,0c0.1,0.1,0.2,0.2,0.4,0.2c0.1,0,0.2,0,0.3,0.1
		c0.1,0,0.2,0,0.2,0l0.1,0c0.3-0.1,0.5-0.3,0.5-0.6c0-0.2-0.1-0.4-0.2-0.4c-0.1,0-0.2,0-0.3-0.1h-0.1h-0.2c-0.1,0-0.2-0.1-0.3-0.1
		c-0.1,0-0.3,0-0.4,0c-0.3-0.1-0.6-0.1-0.9-0.1c-0.2,0-0.3,0-0.5,0c-0.1,0-0.3,0-0.4,0c-0.1,0-0.2,0-0.3,0.1c0,0-0.1,0-0.1,0
		c-0.2,0-0.4-0.1-0.6-0.1c-0.2-0.1-0.4-0.1-0.6-0.1c-0.2,0-0.4-0.1-0.7,0h-0.1h-0.4c-0.1,0-0.3,0-0.5,0l-1-0.1h-0.6
		c-0.2,0-0.4,0.1-0.7,0.1c-0.2,0-0.4,0-0.5,0.1c-0.1,0-0.3,0.1-0.4,0.1c-0.1,0-0.3,0-0.4-0.1c0,0,0,0,0,0c-0.1-0.1-0.3,0-0.3,0.1
		c-0.1,0.1-0.1,0.2-0.1,0.2c-0.1,0.1-0.1,0.3,0,0.5c0,0.1,0,0.1,0,0.2l-0.1,0C132.3,151.9,132.1,151.8,132.3,152z"/>
	<path class="st0" d="M147,151.4h-0.1h-0.1c-0.1,0-0.1,0-0.2,0c-0.1,0-0.2,0-0.3,0c-0.1,0-0.4,0.1-0.4,0.1c0,0,0,0,0,0
		c-0.1,0.1-0.2,0.1-0.3,0.1c0,0-0.1,0-0.1,0.1c-0.2,0.1-0.2,0.4-0.1,0.6c0.1,0.1,0.1,0.2,0.2,0.2c0,0,0.1,0,0.1,0.1
		c0.2,0.2,0.5,0.3,0.7,0.2c0.1,0,0.3,0,0.4-0.1c0.1,0,0.3-0.1,0.4-0.2c0.2-0.1,0.3-0.4,0.3-0.7c0-0.1-0.1-0.3-0.3-0.3
		C147.1,151.4,147,151.4,147,151.4z"/>
</g>
</svg>
