<?xml version="1.0" encoding="utf-8"?>
<!-- Generator: Adobe Illustrator 26.0.2, SVG Export Plug-In . SVG Version: 6.00 Build 0)  -->
<svg version="1.1" id="Strokes" xmlns="http://www.w3.org/2000/svg" xmlns:xlink="http://www.w3.org/1999/xlink" x="0px" y="0px"
	 viewBox="0 0 240 240" style="enable-background:new 0 0 240 240;" xml:space="preserve">
<style type="text/css">
	.st0{fill:#25282D;}
</style>
<g>
	<path class="st0" d="M36.6,178.6C36.7,178.6,36.7,178.6,36.6,178.6C36.7,178.6,36.6,178.5,36.6,178.6
		C36.6,178.5,36.6,178.6,36.6,178.6z"/>
	<path class="st0" d="M142.2,73.5h0.3c0.9,0,1.9-0.2,2.7-0.5c0.9-0.3,1.7-1,2.2-1.8c0.1-0.3,0.1-0.7,0.1-1c-0.1-0.3-0.3-0.5-0.4-0.4
		c-0.2,0.1-0.5,0.2-0.8,0.3c-0.2,0-0.4,0.1-0.6,0.1c-0.8,0.5-1.7,0.7-2.5,0.9c-0.3,0.1-0.6,0.1-0.9,0.1h-0.2h-0.7
		c-0.1,0-0.1-0.4-0.2,0.5c0,0,0-0.1,0-0.1c0-0.5,0-0.4-0.1,0c0,0,0,0,0,0c0-0.5,0-0.4-0.1-0.4c-0.1,0-0.1,0-0.1,0c0,0,0,0.1-0.1,0.3
		s-0.1,0.2-0.1,0.1c0-0.1,0-0.2,0-0.3c0,0-0.1,0-0.1,0c-0.5-0.1-1.1-0.2-1.6-0.4l-0.9-0.3c0,0,0-0.1,0-0.1c-0.1,0.3-0.3,0.5-0.4,0.8
		c0,0,0.2-0.2,0,0.2c-0.3,0.8-0.1,0.7-0.1,0.7c0.4,0.2,0.8,0.4,1.3,0.5c0.8,0.2,1.6,0.3,2.4,0.3c0.1,0,0.2-0.4,0.3,0.7h0.3H142.2z"
		/>
	<path class="st0" d="M136,71c-0.1,0.3,1-0.9,0.4,0c0,0.1,0,0,0.1-0.1c0.4-0.5,0.3-0.2,0.3-0.3c0,0,0,0,0.1,0c0,0,0.2-0.1,0.3-0.3
		l0.2-0.3c-0.5-0.3-0.6-0.7-0.6-0.8l-0.3-0.1l0.2,0.1h0.1c0.3-0.4,0.8-0.7,1.3-0.9l0.1-0.1c0,0,0,0,0-0.1l-0.1-0.2l-0.1-0.2
		c0-0.1,0-0.3-0.1-0.4c-0.1-0.2-0.2-0.4-0.3-0.6c-0.1-0.2-0.1-0.1-0.1-0.1c-0.1,0-0.2,0-0.2,0.1c0,0,0.1,0.5,0,0.3
		c-0.3-0.5-0.2-0.2-0.4-0.2c-0.1,0-0.1,0-0.2,0.1l-0.2,0.1c-0.1,0-0.1,0.1-0.2,0.1l-0.2,0.1c-0.1,0-0.1,0.1-0.1,0.1l-0.2,0.1
		c-0.1,0-0.3-0.1-0.1,0.2c0.2,0.2-0.2,0.1-0.2,0.1c-0.4,0.4-0.6,0.9-0.5,1.5c0,0.5,0.3,1,0.6,1.4C135.9,70.8,136.2,70.7,136,71z"/>
	<path class="st0" d="M140.6,67.3c0.1,0.8,0.1,0.6,0.1,0.6c0,0,0.1,0,0.2-0.2s0.1,0.2,0.2,0.3c0,0,0.1-0.3,0.1-0.3s0.1-0.5,0.2-0.4
		c0.2,0.1,0.5,0.1,0.7,0.1h0.3h0.1h0.1h0.2l0.4,0.1c0.3,0.1,0.6,0.1,0.8,0.2c0.5,0.2,1,0.4,1.4,0.6c0.4,0.2,0.8,0.6,1,1
		c0.2,0.2,0.4,0.3,0.6,0.4c0.3,0.1,0.7-0.2,0.6-0.5c-0.1-0.6-0.4-1.3-0.8-1.7c-0.4-0.4-0.8-0.7-1.2-0.9c-0.5-0.2-0.9-0.4-1.4-0.5
		c-0.2-0.1-0.5-0.1-0.7-0.2l-0.3-0.1H143h-0.1h-0.1l-0.3-0.1c-0.2,0-0.4,0-0.6,0c-0.1,0-0.2-0.6-0.4,0.5c0,0,0-0.1,0-0.2
		c0-0.4-0.1-0.4-0.1-0.4c0,0-0.2,0.8-0.3,0.8c-0.1,0-0.1-0.1-0.1-0.1l-0.5,0.1c0,0,0,0,0,0.1v0.2L140.6,67.3l-0.1,0.2
		C140.5,67.1,140.5,66.9,140.6,67.3z"/>
	<path class="st0" d="M139.2,67.6c0,0.1,0.1,0.3,0.2,0.4c0.1,0,0.2,0,0.3,0h0.3c0,0,0.1,0.3,0.1-0.1s0.1,0,0.1,0v-0.4
		c0-0.2,0-0.5,0-0.7c0-0.1,0-0.3-0.1-0.4c-0.1-0.4-0.2,0.4-0.3,0c0,0,0,0.1,0,0.2c0.1,1-0.2-0.8-0.1,0.3c0,0.2,0-0.2-0.1-0.2
		s-0.1-0.3-0.1-0.3c-0.2,0-0.4,0-0.5,0.1c0,0,0,0.1,0,0.2c0,0.1,0,0.3,0.1,0.5L139.2,67.6z"/>
	<path class="st0" d="M137.8,69.6l-0.4,0.5l-0.3,0.5c0,0.1,0,0.1,0,0.1c0,0,0.1,0.1,0.1,0.1c0.1,0,0.1,0,0.2,0
		c0.1-0.1,0.1-0.1,0.2-0.2l0.3-0.5l0.2-0.5c0,0,0,0-0.2,0.2c-0.3,0.5-0.4,0.5-0.2,0.1c0.2-0.4,0.3-0.5,0.1-0.3
		c-0.2,0.2,0-0.2,0.1-0.2C138,69.2,137.9,69.5,137.8,69.6z"/>
	<path class="st0" d="M138.6,67.3c0,0.2,0.1,0.3,0.1,0.5V68c0,0,0.1,0.1,0.1,0.1c0,0,0.1,0,0-0.4c-0.1-0.4,0.3,1.1,0.2,0.2v-0.2
		c0-0.1-0.1-0.6-0.2-1c-0.1-0.2-0.1-0.3-0.1-0.2s-0.2-0.3,0,0.5c0.2,0.8-0.2-0.3-0.1,0.1L138.6,67.3z"/>
	<path class="st0" d="M138,70.3c-0.1,0-0.5,0.7-0.4,0.7C137.7,71,138,70.3,138,70.3z"/>
	<path class="st0" d="M140.3,66.4c0,0-0.1-0.1-0.1,0v0.3v0.2C140.3,66.7,140.3,66.4,140.3,66.4z"/>
	<path class="st0" d="M138.4,67.4c0,0.2,0.1,0.5,0.2,0.7C138.5,67.8,138.5,67.6,138.4,67.4z"/>
	<path class="st0" d="M138.8,66.5c0,0,0,0,0,0.1V66.5z"/>
	<path class="st0" d="M138.9,67c0-0.1,0-0.2-0.1-0.4c0,0,0,0,0,0v0C138.8,66.8,138.8,67,138.9,67z"/>
	<polygon class="st0" points="138.4,67.8 138.3,67.6 138.3,67.6 138.4,67.9 	"/>
	<path class="st0" d="M215.6,96.3l-0.1,0.1c-0.1,0-0.2,0.1-0.3,0.1l-1.1,0.2l-2.1,0.4c-1.4,0.2-2.8,0.5-4.1,0.7
		c-2.7,0.4-5.4,0.7-8.4,0.9c-1.1,0.1-2.2,0.3-3.3,0.7l-1.9,0.7c-0.6,0.2-1.1,0.3-1.6,0.5c-0.5,0.1-1,0.2-1.5,0.3l-1.5,0.1
		c-1,0-1.9,0.1-2.8,0c-0.9-0.1-1.7-0.2-2.6-0.3c-3.4-0.5-6.8-1.3-12.2-2.4c-1.4-0.3-2.7-0.4-4.1-0.5c-2.2-0.2-1.8,0.8,1.8,2
		c2.2,0.8,4.5,1.4,6.9,1.8c3.6,0.7,7.3,1.2,10.9,1.4c0.8,0.1,1.6,0.1,2.5,0.1c0.8,0,1.6,0,2.4-0.1c0.8-0.1,1.7-0.3,2.4-0.5
		s1.4-0.4,2.1-0.5c2.8-0.7,5.7-1.2,8.8-1.8c1.6-0.3,3.2-0.5,5-0.8l2.7-0.4l2.4-0.3c0,0,0.1,0,0.1,0c0.6-0.1,1-0.7,0.9-1.3
		c-0.1-0.3-0.2-0.6-0.5-0.7C216.2,96.5,215.8,96.2,215.6,96.3z"/>
	<path class="st0" d="M149.9,94.6c-1.9-0.9-3.9-1.5-5.9-1.7c-3.2-0.3-6.3-0.1-9.4,0.7c-3.6,0.8-7.1,1.9-10.5,3.3
		c-2.9,1.1-5.8,2.1-10.2,3.6c-1,0.4-2,0.8-3,1.3l-0.4,0.2l-0.3,0.2l-0.2,0.2c-0.1,0.1-0.2,0.2-0.3,0.3c-0.4,0.5-0.5,1.1-0.5,1.7
		c0,0.5,1.4,0.7,2,0.4l0.7-0.4c0.5-0.3,1-0.5,1.4-0.8c2.8-1.7,5.3-3.1,7.8-4.3c2.3-1.1,4.6-2.1,7-2.9c1.2-0.4,2.4-0.8,3.6-1.1
		c0.6-0.2,1.2-0.3,1.9-0.5l1.9-0.3c2.8-0.5,5.8-0.5,8.6,0.1c1,0.2,2,0.5,3,0.7c0.9,0.2,1.8,0.3,2.8,0.3
		C151.2,95.7,151,95.2,149.9,94.6z"/>
	<path class="st0" d="M230.6,91.7c-0.5-2.2-1.2-4.4-2.1-6.5c-0.9-2-1.9-3.9-3.1-5.7c-0.5-0.8-1.2-1.5-2-2.1
		c-0.8-0.6-1.5-1.2-2.2-1.9c-1.4-1.5-2.9-2.8-4.4-4.2c-0.7-0.6-5.4-4.8-10.4-8.7c-2.5-2-5.1-3.8-7.2-5.2s-3.8-2.3-4.2-2.6
		c-0.9-0.5-1.8-1-2.7-1.5c-0.9-0.5-1.8-0.9-2.8-1.3c-2.3-1-4.8-1.8-7.3-2.3c-1.7-0.3-3.3-0.5-5-0.5c-1.5,0-2.8,0-3.7,0
		c-4.3,0-8.5,0.2-12.8,0.3c-1.7,0-3.1,0.2-5.4,0.2c-1.9,0-3.7,0.9-5.7,0.6c-0.8-0.3-1.6-0.7-2.4-1.1c-0.9-0.2-1.8-0.2-2.7-0.2
		l-3.3-0.3l-3.3-0.5c-1.8-0.2-7.5-0.4-8.4-0.5c-1.1-0.1-2.3-0.4-3.4-0.6l-6-1c-1.9-0.3-3.8-1.3-5.8-0.9c-1.7,0.4-3.6,0.2-5.2-0.6
		c-0.8-0.4-1.6-0.4-2.5-0.2c-1,0.2-2,0.2-3,0.2c-1.8,0.1-3.7,0-5.5-0.3c-0.5-0.2-1-0.3-1.6-0.4c-0.3,0-0.5,0-0.8,0h-0.4
		c-0.2,0-0.4,0-0.6,0.1c-0.3,0.1-0.6,0.3-0.9,0.5c-0.1,0-0.3-0.1-0.4-0.1c-0.8-0.3-1.8-0.3-2.4-0.5c-0.4-0.1-0.8-0.2-1.3-0.3
		c-1.3-0.3-2.7-0.5-4-0.4c-1,0.1-2.1,0.3-3.1,0.6c-0.5,0.1-0.9,0.3-1.4,0.5c-0.4,0.2-0.8,0.4-1.2,0.7c-0.2,0-0.3,0-0.5-0.1
		c-0.9,0-1.9,0.1-2.8,0.3c-0.8,0.2-1.5,0.3-2.3,0.5c-3,0.6-6.1,1-9.3,1.5l-9,1.3c-2.7,0.4-5.2,1.7-7.9,2.2c-1.5,0.3-2.9,0.6-4.4,1
		c-1.5,0.3-2.9,0.8-4.4,1.3c-0.8,0.3-1.5,0.6-2.2,0.9l-1.9,0.9l-2.3,1.2c-3.8,2.1-7.4,4.4-10.9,7c-3.5,2.6-6.8,5.4-9.8,8.5
		c-0.6,0.7-1.2,1.3-1.7,2l-0.7,0.9l-0.6,0.9C9.5,76,9.2,76.8,9,77.7c-0.7,2.9-1.2,5.8-1.4,8.8c-0.3,3.7-0.4,7.3-0.3,11
		c0,1.3,0.2,2.6,0.6,3.9c0.1,0.4,0.3,0.8,0.5,1.1c0.2,0.3,0.5,0.6,0.7,0.8c0.5,0.4,1,0.8,1.5,1.2c1.6,1,3.2,1.9,4.9,2.6
		c2.9,1.3,5.8,2.4,8.7,3.5l2.2,0.8l1.1,0.4l0.5,0.2h0.1h0.1l0.3,0.1c0.2,0,0.4,0.1,0.6,0.1c0.7,0,1.4-0.3,1.9-0.8
		c0.4-0.3,0.7-0.6,1-1c0.5-0.7,1-1.3,1.5-1.9c0.1-0.1,0.2-0.3,0.3-0.4c0.6,0.2,1.1,0.4,1.7,0.4c2.2,0.1,4.3,0.8,6.2,1.8l0.6,0.5
		c0.1,0.1,0.2,0.2,0.4,0.4c-0.1,0.7-0.2,1.5-0.2,2.3l-0.1,1.4v0.7c0,0.5,0,0.8,0,1c-0.2,1.1-0.4,2.1-0.6,3.1l-0.4,1.6
		c-0.1,0.3-0.1,0.6-0.2,0.9c-0.1,0.4,0,0.8,0.1,1.2c0,0.1,0.1,0.1,0.1,0.2c-0.1,0-0.1,0-0.2,0c-1,0.1-1.9,0.5-2.7,1
		c-2.1,1.3-3.9,3-5.3,5c-0.8,1.1-1.4,2.3-1.8,3.6c-0.4,1.2-0.6,2.5-0.6,3.8c0,0.2-0.1,0.5,0.3,0.7c1.7,0.6,1.2,1.3,1.5,2
		c0.2,0.4,0.1,0.8,0.2,1.1c0.1,0.4,0.4,0.8,0.9,0.8c0.8,0.1,0.7,0.5,0.6,0.9s-0.3,1,0,1.3c0.2,0.1,0.3,0.3,0.5,0.4
		c0.1,0.1,0.2,0.1,0.3,0.1c0,0,0.1,0.1,0.2,0.2l0.2,0.2c0.2,0.2,0.3,0.3,0.5,0.4c0.1,0.1,0.2,0.1,0.3,0.2c-0.6,0.6-1.2,1.2-1.8,1.9
		c-1.1,1.3-1.9,2.9-2.3,4.6c-0.3,1.2-0.3,2.5-0.3,3.8c0.1,0.6,0.1,1.2,0.2,1.8c0.1,0.6,0.2,1.2,0.3,1.8c0.2,1.2,0.4,2.4,0.8,3.6
		l0.5,1.8c0.2,0.6,0.4,1.1,0.7,1.7c1.3,2.9,3.3,5.4,5.8,7.3c-0.8,0.1-1.5,0.4-2.2,0.9c-0.8,0.5-1.5,1.1-2.3,1.7
		c-0.3,0.2-0.4,0.6-0.3,1c0,0.4,0,0.8-0.1,1.2c-0.1,0.4-0.1,0.8,0,1.2c0.1,0.2,0.2,0.3,0.3,0.4l0.2,0.1l0.4,0.2l0.8,0.5
		c0.5,0.3,1.1,0.5,1.6,0.6c0.3,0,0.4,0.5,0.7,0.6c0.2,0.2,0.4,0.3,0.7,0.3c0.1,0,0.1,0,0.2,0c0,0.1,0,0.1,0,0.2
		c0,0.8,0.2,1.6,0.6,2.3c0.5,0.7,1.2,1.3,2,1.5c0.7,0.2,1.4,0.3,2.1,0.2c0.3,0,0.7-0.1,0.9-0.1l0.7-0.1c1.9-0.1,3.8-0.1,5.7,0
		c3.9,0.2,7.8,0.6,11.6,1c2.3,0.2,4.8,1,7,0.5c1.1-0.2,2.3-0.2,3.5,0.1c1.1,0.2,2.3,0.1,3.4-0.4c0.6-0.2,1.4-0.2,2,0
		c1.4,0.5,2.8,0.8,4.3,1.1c1.5,0,3-0.2,4.4-0.5c0.5,0,1,0,1.5,0.1c2.3,0.2,4.6,0.4,6.9,0.6c2.3,0.2,4.7,0.3,7,0.1
		c2.1-0.3,4.2,0.4,6.4,1.1c2.2,0.8,4.4,1.5,6.7,2c0.6,0.1,1.3,0.1,1.9,0.1c0.3,0,0.7,0,1-0.1c0.3,0,0.6-0.2,0.9-0.2
		c1.1-0.2,2.2-0.4,3.4-0.6c2.3-0.4,4.5-0.7,6.8-0.9c4.5-0.5,9.1-0.9,13.7-1c4.4-0.1,8.8,0.1,13.1,0.8c4.4,1,8.9,1.6,13.5,1.8
		c3,0.1,5.9-0.1,8.7-0.1c0,0,0,0.1,0,0.1c0.1,0.7,0.3,1.3,0.5,2c0.4,0.2-0.1,0.8,0.3,1c0,0-0.1,0.1-0.1,0.2c-0.4,0.6,0.3,1.4,1.1,1
		c0.2-0.2,0.3-0.3,0.5-0.6c0.1-0.3,0.3-0.6,0.5-0.8c0,0,0.2-0.1,0-0.1c-0.2,0-0.2-0.2-0.3-0.3c-0.1-0.2-0.1-0.3-0.1-0.5
		c0-0.1-0.1-0.2-0.2-0.2l-0.5-0.6c0.2-0.3-0.1-0.5-0.2-0.7c-0.1-0.1-0.1-0.3-0.1-0.4c1.2,0,2.4,0,3.6,0.1l0.1,0
		c-0.2,0.1-0.4,0.2-0.4,0.3c-0.1,0.3-0.2,0.6-0.3,0.8c0,0,0,0.1,0,0.2l-0.1,0c0,0.2,0.1,0.4,0.1,0.7c0.1,0.3,0.3,0.5,0.6,0.6
		c0.3,0.1,0.6,0.2,0.6-0.1c0-0.1,0.2-0.2,0.3-0.2c0.4-0.1,0.6-0.4,0.6-0.7c-0.1-0.3,0-0.5,0.1-0.8c0.1-0.2,0-0.4-0.2-0.7
		c-0.1-0.1-0.2-0.2-0.3-0.2l12.3,0.7l1.7,0.1c0.9,0,1.8,0,2.7,0c0.4,0,1-0.7,1-1.2c0-0.5-0.4-1-0.8-1.4c-0.3-0.2-0.7-0.3-1.1-0.2
		H200c-1.2,0.1-2.4,0.1-3.6,0.1l-12.3-0.6c-4.1-0.3-8.3,0.1-12.3,0.1c-1.3-0.1-2.6-0.1-3.9,0.1c-1.1,0.2-2.3,1-3.3,0
		c-1.2-1.3-2.8,0.2-3.8-0.6c-1-0.8-2.2-1.3-3.5-1.5c-1.3-0.2-2.5-0.2-3.8-0.4c-3.5-0.3-7.1-0.4-10.7-0.2c-3.4,0.1-6.7,0.7-10.1,0.6
		c-3.5,0-6.6,2.4-10.2,1.6c-0.4-0.1-0.8,0.4-1.3,0.6c-0.6,0.2-1.3,0.6-1.8,0.4c-0.7-0.3-1.4-0.6-2.1-0.7c-0.7-0.2-1.5-0.3-2.2-0.6
		c-1.4-0.4-2.8-1-4.2-1.4c-1.5-0.6-3.1-0.9-4.7-1.2c-0.4,0-0.9,0-1.3,0l-1.2,0.1c-0.7,0-1.4,0-2.1,0c-1.4,0-2.9-0.1-4.4-0.2
		c-5.9-0.4-11.9-1.1-18-1.4c-2.1-0.1-3.9-0.3-5.9-0.4c-2-0.2-4,0-6,0.5c-0.7,0.1-1.3,0-2-0.1c-3.8-0.4-7.5-0.8-11.3-1
		c0,0,0-0.1-0.1-0.2c-0.6-0.5-0.4-0.6-0.4-0.8c0-0.1,0-0.2,0-0.4c0-0.1,0.1-0.3-0.2-0.3c-0.2,0-0.4-0.1-0.5-0.3l-0.1-0.1H52
		c-0.2,0-0.3,0-0.5-0.1c-0.3-0.1-0.6-0.3-0.6-0.6c0-0.3-0.3-0.3-0.4,0c-0.3,0.8-0.3,0.5-0.6,0.5c-0.4,0-0.7-0.1-1-0.1
		c0,0-0.1,0-0.1,0.1c-0.1,0.1-0.1,0.3,0,0.4c0,0.1,0,0.2,0,0.2c0.2,0.1,0.4-0.4,0.6,0.4c0.2,0.8,0.4,0.5,0.7,0c0.1-0.2,0.1,0,0.3,0
		c0.2,0,0.5,0.1,0.8,0.1l0.3,0.1c0,0,0,0.1-0.1,0.2c-0.1,0.1-0.1,0.2-0.2,0.4c-0.1,0.1-0.1,0.2-0.1,0.4c-0.4,0-0.8,0-1.1-0.1
		c-0.8,0-1.7,0-2.5,0.1c-0.4,0-0.9,0.1-1.3,0.1l-0.7,0.1c-0.2,0-0.4,0.1-0.5,0.1c-0.6,0.1-1.2,0-1.7-0.4c-0.2-0.3-0.4-0.6-0.4-0.9
		c0,0,0,0,0,0c0.2,0.1,0.5-0.1,0.5-0.3c0,0,0-0.1,0-0.1c0-0.2-0.2-0.4-0.4-0.4c0,0-0.1,0-0.1,0c0.2-1.3,1.1-2.5,2.3-3.1
		c0.3-0.1,0.7-0.2,1-0.3l1.2-0.1c0.9,0,1.7-0.1,2.6-0.1l21.3-0.6c3.6-0.1,7.2-0.3,10.8-0.6c0.9-0.1,1.8-0.2,2.7-0.3l2.6-0.5l5.2-0.9
		l20-3.5l0.7-0.1c0.6-0.1,1.3-0.3,1.9-0.4c1.5,0.6,2.6,1,4.3,1.6l1.1,0.4c0.5,0.2,1,0.4,1.6,0.6c1,0.4,2,0.5,3.1,0.4
		c0.7-0.2,2.4-1.1,1.6-2.2c-0.9-1.4-3.5-0.8-5-1.2l-0.8-0.2l-0.7-0.2l-0.8-0.3c-0.5-0.2-1-0.4-1.6-0.6c-1.9-0.7-3-1.7-5-1.8
		c-1,0-2.1-0.2-3.1-0.3c-1,0-2-0.2-3-0.3c-2.1-0.3-4-1.2-6-1.3c-1.2-0.1-2.1-0.9-3.2-1.2c-0.9-0.3-1.9,0.4-2.9,0.3
		c-2.2-0.2-4.3-0.6-6.4-1.2c-2.1-0.5-4-1.4-5.6-2.7c-0.8-0.6-1.6-1.1-2.4-1.8c-0.8-0.6-1.4-1.5-1.7-2.4c0-0.2,0-0.5-0.1-0.8
		c0-0.2,0-0.5,0-0.7c0.1-0.4,0.4-0.8,0.7-1c0.9-0.5,1.9-0.8,3-0.9c2.2-0.2,4.5-0.2,6.7,0c1,0.1,4.8-0.7,5.8-0.8c1.2,0,2.3,0,3.5,0.1
		c1.2,0.2,2.3,0.4,3.5,0.7c2.2,0.6,4.3,1.5,6.6,2c1.1,0.2,2.3,0.3,3.5,0.3c1.2,0,2.3-0.2,3.5-0.5c1.9-0.4,4.1,0.2,5.8-0.9
		c1.6-1.1,4.1-1,6-1.3c4.6-0.6,9.3-0.6,13.9,0c2.3,0.3,4.6,0.8,6.8,1.4c0.9,0.1,1.8,0.4,2.5,1c0.9,0.8,1.8,0.3,2.8,0.7
		c2,0.6,3.9,1.6,5.5,2.9c1.7,1.4,3.5,2.8,5.3,4c0.5,0.3,1,0.6,1.5,0.8l0.8,0.4c0.3,0.1,0.6,0.2,0.9,0.3c1.1,0.3,2.2,0.6,3.3,0.8
		c0.6,0.1,2.6,0.4,5.4,0.8c1.2,0.1,2.6,0.3,4.1,0.4c0.1,0.2,0.2,0.3,0.4,0.3c0,0.4,0.3,0.5,0.4,0.8c0,0.2,0.2,0.4,0.4,0.5
		c0.3,0.1,0.5,0.3,0.6,0.6c0.1,0.1,0.2,0.2,0.3,0.2c0.2,0,0.3,0,0.5-0.1c0.2-0.1,0.4-0.3,0.5-0.5c0-0.1,0-0.3,0-0.5
		c0-0.3-0.3-0.4-0.4-0.6c-0.1-0.2-0.1-0.4-0.1-0.6c1.1,0.1,2.3,0.2,3.4,0.2c7.3,0.4,14.9,0.4,17.3,0.3c2.1-0.1,4.2-0.5,6.3-1.2
		c2.1-0.6,4.2-0.7,6.4-0.2c1.1,0.3,1.4,0.1,2.2-0.6s2-0.8,3-1.2c0.6-0.3,1.2-0.7,1.6-1.2c0.2-0.3,0.4-0.5,0.5-0.9
		c0.2-0.3,0.3-0.6,0.5-0.8c0.6-1.2,1-2.4,1.1-3.7c0.1-1.3-0.1-2.6-0.6-3.8c-0.5-1.2-1.3-2.2-2.3-3c-1.9-1.5-4.1-2.7-6.5-3.4
		c-2.3-0.7-4.6-1.3-6.9-1.8l0.4-0.1l0.6-0.1l0.7-0.2c0.5-0.1,1-0.2,1.5-0.3c1.8-0.5,3.1-0.5,4.6-1.7l2.1-1.7l1.1-0.8
		c0.4-0.3,0.7-0.7,1.1-1c1.5-1.3,2.6-3,3.1-4.9c0.2-1.1,0.8-2,1-3.1c0.1-1-0.5-1.8-0.7-2.6c-0.1-0.4-0.2-0.8-0.3-1.2
		c0-0.1,0-0.1,0-0.2c0-0.1-0.1-0.3-0.1-0.4c-0.1-0.2-0.2-0.5-0.3-0.7l-0.3-0.6l-0.4-0.5c-0.3-0.4-0.6-0.7-0.9-1
		c-0.3-0.3-0.6-0.6-1-0.8c-1.7-1.2-3.6-2.3-5.6-3.1c-1.9-0.8-4-0.7-5.8-1.1c-1.7-0.4-3.6-0.9-5.4-1.4c0.1,0,0.1,0,0.2,0
		c4.3,0.1,8.6-0.8,12.8-1.5c0.9-0.2,1.9,0.2,2.8,0c0.9-0.2,1.3-1.3,1.9-1.8c0.7-0.5,1.5-1,2-1.8c0.7-1.2,0.8-1.4,2.1-2
		c1-0.4,1.8-1.1,2.4-2.1c0.3-0.5,0.5-1,0.8-1.4s0.4-1,0.6-1.4c1-2.2,1.6-4.6,1.7-7.1C231.3,96.2,231.1,93.9,230.6,91.7z M95.6,46.2
		h1c2,0,4.1,0.2,6.2,0.4c2.1,0.2,4-0.4,6-0.2c4.1,0.5,8.3,1.1,12.3,1.9c0.9,0.2,4.4-0.1,5.3,0c2.1,0.2,4.2,0.8,6.3,1.1
		c4.1,0.8,8.3,1.3,12.5,1.6c1.8,0.1,3.6,1.1,5.3,0.5c1.7-0.5,3.9-0.1,5.7-0.1c4.3,0,8.6-0.1,12.9-0.2l6.4-0.1c0.8-0.1,1.7,0,2.5,0.3
		c1,0.5,1.6-0.1,2.6-0.1c3.8,0.3,7.5,1.9,10.9,3.7l2.5,1.3l2.5,1.5c0.4,0.3,2,1.2,4,2.7c1.1,0.8,2.4,1.7,3.7,2.8c-0.1,0-0.3,0-0.4,0
		c-1.9,0-3.9-0.1-5.8-0.3c-1-0.1-2.1,0-3.1,0.2c-0.8,0.1-1.8,0.5-2.2,0.5c-0.3,0.1-0.7,0.1-1,0.1c-0.4,0-0.8,0-1.1,0
		c-0.4,0-0.9,0-1.3,0c-1.1,0.1-2.2,0.3-3.4,0.4c-1.7,0-3.5-0.3-5.1-1c-0.3-0.2-0.5-0.3-0.8-0.3c-1-0.1-2-0.1-3-0.1l-4-0.1
		c-0.7,0-1.4-0.2-2-0.1c-1.3,0.1-2.6,0-3.9-0.2c-1.4-0.3-2.8-0.4-4.2-0.4c-1.7,0-3.5-0.3-5.1-0.9c-0.8-0.3-1.6-0.5-2.5-0.5
		c-1.3,0-2.6-0.1-3.9-0.1c-2,0-3.9-0.2-5.8-0.7c-0.8-0.2-1.7-0.3-2.6-0.3c-0.9,0.1-1.8,0-2.8-0.2c-0.7-0.3-1.4-0.4-2.2-0.4
		c-0.8-0.1-1.7-0.1-2.5,0c-0.6,0-1.2,0.1-1.8,0.3c-1.1,0.3-2.2,0.6-3.2,0.9c-1.2,0.3-2.4,0.4-3.7,0.3c-1.8-0.1-3.7,0.1-5.4,0.5
		c-1.1,0.3-2.1,0.6-3.2,0.7c-1.3,0.2-2.5,0.3-3.8,0.3c-0.7,0-1.4,0.1-2,0.2c-1.2,0.3-2.5,0.1-3.5-0.5c-0.9-0.4-1.7-0.9-2.4-1.5
		c-1.2-0.5-2.3-1.1-3.3-1.9c-0.1-0.1-0.2-0.2-0.3-0.2l0.3-0.2v-0.1v-0.2c-0.2-1-0.6-2-1-2.9c-0.4-0.9-0.9-1.7-1.6-2.4
		c-0.7-0.8-0.9-1.9-1.6-2.8c-0.6-0.9-1.5-0.9-2.2-1.5c-0.4-0.3-0.8-0.7-1.1-1l-0.1-0.1c0,0,0-0.1-0.1-0.1c0-0.1,0-0.1,0-0.2
		c0.1-0.1,0.1-0.2,0.2-0.3C95.5,46.2,95.5,46.2,95.6,46.2z M85.5,45.3c1.2-0.2,2.4-0.1,3.6,0.2c0.1,0,0.3,0.1,0.4,0.1l0.6,0.2
		c0.4,0.1,0.8,0.3,1.2,0.5c0.4,0.2,0.8,0.4,1.2,0.5c0.3,0.1,0.7,0.2,1,0.2c0,0,0,0,0,0.1c0,0,0,0.1,0,0.1c0.1,0.2,0.2,0.4,0.3,0.5
		c0.1,0.1,0.2,0.3,0.3,0.4c1.2,1.2,2.8,1.8,4,3s1.4,3.1,2.5,4.2c0.6,0.5,1,1.2,1.3,1.9c-0.1-0.1-0.3-0.2-0.4-0.4
		c-1.4-1.4-3.1-2-4.8-3c-1.7-1-2.7-1.7-4.5-2.6l-0.9-0.5c-0.4-0.2-0.8-0.4-1.3-0.6c-0.8-0.4-1.7-0.5-2.6-0.3
		c-0.2,0.1-0.4,0.2-0.5,0.3c-0.7-0.9-1.4-1.7-2.2-2.4c-0.5-0.4-1-0.8-1.5-1.1c-0.2-0.2-0.5-0.3-0.8-0.4c0,0,0,0,0,0
		C83.4,45.8,84.4,45.5,85.5,45.3z M30.4,109.6c-0.5,0.6-1.1,1-1.4,0.8l-0.2-0.1l-0.3-0.1l-0.5-0.2l-1.1-0.4l-4.4-1.7
		c-2.9-1.1-5.8-2.3-8.5-3.7c-1.1-0.4-2.1-1.1-2.8-2c-0.3-0.4-0.6-0.8-1-1.1c-0.1-0.2-0.3-0.4-0.4-0.6c-0.1-0.3-0.2-0.6-0.3-0.9
		C9,96.7,8.9,93.9,9.1,91c0.2-2.9,0.5-5.7,0.9-8.5c0.2-1.4,0.5-2.7,0.8-4.1c0.2-0.6,0.4-1.2,0.6-1.8c0.1-0.3,0.3-0.5,0.4-0.8
		c0.2-0.3,0.3-0.5,0.5-0.8c1.4-1.8,3.1-3.5,4.8-5c3.3-3,6.8-5.7,10.4-8.2c3.8-2.6,7.8-4.8,12-6.6c1-0.3,1.8-0.7,2.7-1
		c0.8-0.3,1.6-0.5,2.4-0.7c1.5-0.4,2.7-0.6,3.4-0.8c5.3-1.1,10.8-3.9,16.4-3.2c1,0.2,2.1,0,3-0.6c1.3-0.4,2.7-0.7,4.1-0.8
		c1.6-0.2,3.3-0.5,4.9-0.9c0.8-0.2,1.6-0.3,2.4-0.4c0.4,0,0.8,0,1.1,0c0.4,0,0.7,0.2,0.7,0.3c0.1,0.3,0,0.5-0.2,0.8
		c-0.2,0.3-0.4,0.6-0.6,0.9c-0.5,0.6-1.1,1.1-1.7,1.6c-1.2,1-2.5,1.8-3.8,2.6c-1.4,0.7-2.8,1.4-4.2,1.9c-1.4,0.5-3,0.9-4.5,1.4
		c-6,2-11.9,4.3-17.7,6.8c-5.8,2.5-11.5,5.4-17,8.5c-1.3,0.8-2.6,1.5-3.9,2.4c-1.3,0.9-2.5,1.7-3.8,2.6c-0.2,0.2-0.9,0.5-1.6,0.9
		c-2.3,1.4-5.2,4.1-3.2,4.8c1.1,0.5,3-1.4,4.8-2.9c0.9-0.8,1.8-1.5,2.2-1.8c2.6-1.9,5.4-3.7,8.2-5.3c5.3-3,10.7-6.2,16.5-8.1
		c1.2-0.4,2.6-0.1,3.7-0.5c1.2-0.4,1.8-1.5,2.8-2c1-0.5,2.2-1,3.3-1.7c1.5-1.1,1.8-1.4,3.7-1.4c1.4-0.1,2.8-0.4,4.1-0.8
		c1.3-0.4,2.8-1,4.1-1.6c1.6-0.7,3.1-1.5,4.6-2.4c1.5-0.9,2.9-2,4.2-3.2c0.3-0.3,0.6-0.6,0.9-1c0.3-0.4,0.6-0.8,0.7-1.3
		c1,0.5,2,1.1,2.9,1.9c0.4,0.3,0.8,0.7,1.1,1c0,0.2,0.1,0.4,0.2,0.6c0.2,0.3,0.4,0.4,0.8,0.4c0.2,0.2,0.4,0.4,0.6,0.6
		c1.9,2,3.2,4.3,5.1,6.4c1.1,1.1,1.5,2.5,2.4,3.8c0.7,1.1,2,1.6,2.9,2.5c2,2.1,3.8,4.6,5.7,6.8c0.9,1,1.8,2,2.7,2.9
		c0.3,0.3,0.6,0.6,0.9,0.9c-2.5,0.4-4.9,1.3-7.5,1.7c-6,0.9-12.1,1.8-18.1,2.8c-1.3,0.2-6.1,2-7.4,2.3c-1.5,0.4-3,0.7-4.6,1.1
		s-3.1,0.6-4.6,1.1c-5.9,1.6-11.8,3.4-17.1,6.6c-2.2,1.4-5,2.2-6.5,4.2c-1.5,2.1-4.1,3.9-5.9,6c-1,1.2-2,2.4-2.9,3.7
		S31.4,108.5,30.4,109.6z M41.8,178.5c-0.3,0.4-0.5,0.8-0.7,1.3c-0.1,0-0.1-0.1-0.2-0.1c-0.9-0.3-2.3-1-3.3-0.8
		c-0.3,0-0.5-0.1-0.7-0.2c0,0,0,0,0,0c0.1,0.1,0.1,0.2,0.1,0.2c0,0.2-0.1,0.1-0.2,0c-0.4-0.3-0.2-0.6,0.1-0.8s0.7-0.2,0.9-0.4
		c0.2-0.2,0.6-0.4,0.6-0.8c0.1-0.6,0.5-1.1,1.1-1.4c0.3-0.1,0.5-0.2,0.8-0.2c0.3-0.1,0.6-0.1,0.9-0.1c0.2,0,0.4-0.1,0.6-0.1
		c0.1,0,0.2-0.1,0.3-0.1c0.1,0,0.2-0.1,0.3-0.2c0,0,0,0,0.1-0.1c0.9,0.5,1.9,0.9,2.8,1.3c-0.1,0-0.1,0-0.2,0
		C43.7,176.5,42.5,177.4,41.8,178.5z M208.4,120.5c0.7,0.5,1.5,0.6,2.3,0.5c1,0,1.9,0.2,2.8,0.5c0.9,0.1,4.1,1.4,4.7,2.2
		c0.3,0.4,0.6,0.7,1,1.1c0.2,0.2,0.4,0.3,0.5,0.5c0.2,0.1,0.3,0.3,0.5,0.5c0.7,0.5,1.2,1.1,1.5,1.9c0,0,0,0.1,0,0.1c0,0,0,0,0,0
		c0,0,0,0,0,0c0,0,0,0.1,0,0.3v0.1l0.2,0.5l0.4,1.1c0.3,0.7,0.4,1.5,0.5,2.3c-0.1,0.8-0.3,1.6-0.8,2.2l-0.6,1
		c-0.2,0.3-0.3,0.7-0.4,1c-0.3,1.4-1.2,2.5-2.5,3.1c-1.7,0.6-3,1.6-4.8,2.3c-1.6,0.5-3.2,1-4.8,1.3l-2.2,0.4
		c-0.8,0.1-1.6,0.4-2.3,0.9c-0.1,0.1-0.1,0.2-0.2,0.3c-1-0.1-1.9-0.3-2.9-0.3c-4.8-0.5-9.5-0.7-14.3-0.8c-2.3,0-4.5,0-6.8,0
		c-0.4,0-0.8-0.1-1.2-0.2l-0.2,0c-0.1,0-0.3,0-0.4,0l-0.9-0.1c-0.6,0-1.2,0-1.8,0c-2.4,0-4.5,0.5-3.7,2.2c0.5,1.1,2.9,1.2,5.3,1.2
		h0.9l0.8,0l0.8-0.1c0.5-0.1,1-0.1,1.2-0.1c2.5,0,4.9,0,7.3,0c4.5,0.1,9.3-0.4,13.7,0.9c0.9,0.2,1.7,1.3,2.5,1.5
		c0.9,0.2,1.8-0.6,2.6-0.6c0.9,0.1,1.8,0.1,2.7,0c1.4-0.3,1.8-0.5,2.9,0.6c1.6,1.6,3.8,1.7,5.5,2.6c0.9,0.5,1.8,1.2,2.6,1.9
		c0.7,0.7,1.1,1.5,1.4,2.4c0.3,1.9-0.1,3.8-1.2,5.4L221,161c0,0,0,0.1-0.1,0.1c-0.1,0.1-0.2,0.2-0.3,0.2c-0.4,0.2-0.7,0.4-1.1,0.6
		c-1,0.4-2,0.6-3,0.8c-2.1,0.4-4.3,0.7-6.5,0.7c-2,0-3.9,1.2-5.9,1.2c-2.1,0-4.4,0-6.6,0c-1,0-7.9,0-14.7-0.5
		c-0.6,0-1.2-0.1-1.7-0.1c-0.1-0.1-0.2-0.1-0.4,0c-2.7-0.2-5.3-0.5-7.4-0.8c-1.7-0.2-3.4-0.5-5.1-1c-0.5-0.2-1-0.4-1.4-0.6
		c-0.5-0.2-0.9-0.5-1.4-0.7c-0.9-0.6-1.8-1.2-2.6-1.8c-0.4-0.3-1.3-1-2.5-1.9c-1.4-1.1-2.9-2-4.5-2.7c-3-1.3-6.1-2.3-9.2-3
		c-4.7-1.1-9.5-1.5-14.3-1.3c-2.1,0.2-4.1,0.4-6.1,0.8c-2.1,0.4-3.9,1.9-6,2c-1,0.1-2-0.5-2.9-0.6c-0.9,0.1-1.9,0.3-2.8,0.6
		c-2.1,0.4-4.3,0.3-6.4-0.3c-0.9-0.2-2.8-0.6-4.9-0.9c-1.5-0.2-3-0.3-4.6-0.2c-0.3,0-0.7,0-1,0c-0.3,0-0.6,0-0.9-0.1
		c-0.6,0-1.2-0.1-1.9-0.2c-2.2-0.1-4.4-0.3-6.7-0.4c-1.1,0-2.2-0.2-3.3-0.3c-1.2-0.1-2.4,0.1-3.4,0.7c-1.1,0.7-2,1.1-2.9,1.9
		c-0.5,0.4-0.9,1-1.2,1.7c-0.2,0.6-0.3,1.2-0.4,1.9c-0.2,1.2,0.3,2.3,1.2,3c0.9,0.8,1.8,1.6,2.8,2.3c0.5,0.3,1.5,1,2.7,1.6
		c1.1,0.6,2.3,1.1,2.7,1.5c1,0.7,2.1,1.2,3.3,1.3c1.2,0.2,2.3,0.2,3.4,0.4c1.8,0.3,3.7-0.3,5.5-0.2s3.4,1.7,5.3,1.5
		c1.6-0.3,3.3-0.1,4.8,0.5c0.6,0.3,1.2,0.5,1.8,0.7l-21.6,3.9c-2,0.4-4,0.8-6,1c-2,0.2-4.1,0.3-6.1,0.4c-4.1,0.2-8.3,0.3-12.5,0.5
		l-12.5,0.4l-2.4,0.1c-0.7-0.1-1.4-0.3-2-0.5l-1.9-0.7l-1.8-0.9c-2-1.2-3.7-2.7-5.1-4.5c-1.3-1.9-2.4-3.9-3.1-6.1
		c-0.2-0.7-0.4-1.4-0.6-2l-0.3-2.1c-0.3-1.4-0.4-2.8-0.4-4.2c0-1.5,0.3-3,1-4.4c0.7-1.3,1.6-2.5,2.7-3.5c1.9-2,5.4-3.8,8.6-4.9
		c1.8-0.6,3.6-1.2,5.3-1.6c1.7-0.4,3.7-0.8,5.6-1.1c5.6-1,11.2-1.6,16.9-1.8c3.9-0.2,7.3-0.4,10.4-0.8c3.5-0.5,6.9-0.6,10.7-0.7
		l13.1-0.6c4.8-0.2,9.5-0.7,14.4-0.6c3.4,0,6.4-0.2,9.6-0.4c1.7-0.1,3.9-0.2,5.5-0.2c5,0,9.8-0.2,14.7-0.4c1,0,2.3-0.1,3.2-0.1
		c4,0,7.9,0,12.1-0.2c0.8,0,1.9-0.1,2.8-0.1h12.8l8.8-0.3c5-0.2,6.2-0.3,5.6-0.8c-0.1-0.1-0.1-0.1,0.1-0.2c1.2-0.3,1.6-0.7-1.8-0.8
		s-8.5-0.2-11.9,0c-4.8,0.2-8.7,0.2-13,0.2c-1.8,0-4,0-5.3,0.1c-3.5,0.3-6.3,0.2-9.6,0.2c-2.6,0-6.6,0.1-8.6,0.3
		c-4,0.4-8,0.5-12.4,0.5c-1.9,0-3.8,0.1-5.6,0.2c-5,0.2-9.8,0.4-14.4,0.4c-2.7,0-5.3,0.1-8,0.3c-3.5,0.3-7,0.5-10.6,0.5
		c-3.1,0-6.2,0.2-9.3,0.6c-2.7,0.4-5.4,0.6-8.1,0.6c-5,0-10,0.4-15,1.2c-1.2,0.2-3.1,0.4-4.6,0.6c-3.1,0.3-6.1,0.8-9.1,1.5
		c-3,0.8-5.9,1.9-8.7,3.2c-1.3,0.6-2.6,1.4-3.8,2.3c-0.1,0.1-0.3,0.2-0.4,0.4c0,0,0,0,0,0c-0.1-0.3-0.2-0.7-0.4-1.1l-0.1-0.2
		c0-0.1,0-0.1,0-0.1V143c0-0.1,0-0.1,0-0.2c0-0.3-0.1-0.6-0.2-0.8c-0.4-0.6-0.6-1.3-0.8-2c-0.1-0.5-1-0.6-1.6-0.9
		c-0.2-0.1-0.2-0.3-0.2-0.5c-0.2-0.9-0.2-1.8-0.1-2.7c0.1-1,0.4-1.9,0.8-2.8c0.8-1.7,2-3.2,3.5-4.4c0.4-0.3,0.9-0.3,1.3-0.1
		c0.7,0.3,0.8-0.2,0.8-0.7c0-0.3,0-0.7,0-1c0.6-0.7,1.3-1.4,2-2c0-0.1,0-0.2,0.1-0.2c0,0,0,0,0,0c0.4,0.3,0.7,0.6,1.1,0.8l1.7,1.3
		c0,0.5,0,1.1,0.2,1.6c0.2,0.7,0.6,1.3,1.1,1.8c0.9,1,2,1.7,3.2,2.3c0.8,0.5,1.5,1.4,2.4,1.6c0.9,0.2,1.7-0.4,2.5-0.5
		c0.8,0,1.7-0.1,2.5-0.3c1.2-0.5,1.5-0.6,2.7-0.1c0.9,0.4,1.9,0.5,2.9,0.3c1-0.1,1.9-0.4,2.8-0.5c1.1-0.1,2.2-0.3,3.3-0.4
		c1.1-0.2,2.2-0.3,3.3-0.5c4.1-0.8,8.3-1.7,12.3-2.8c1.9-0.5,3.8-1.1,5.8-1.6c1.8-0.4,3.2-1.7,4.9-2.2l5.6-1.6l4.3-1.3l3.8-1.2
		l4.3-1.2c1.5-0.4,2.9-0.8,4.3-1.1c1.4-0.4,2.7-0.7,3.9-1c2.3-0.5,4.1-0.9,4.6-1c1.9-0.4,3.8-0.6,5.7-0.9c0.5-0.1,1.4-0.2,2.7-0.4
		l4.4-0.4l2.4-0.2l2.3-0.1l3.5-0.2l1.5-0.1h1.5h3h3.1c1,0,2,0,3,0.1c1.7,0.1,3,0,5.2,0c1.8,0.1,3.6-0.7,5.5-0.3
		c0.8,0.2,1.5,0.9,2.3,1.1c0.9,0.1,1.7,0.2,2.6,0.2l6.4,0.7c1.8,0.2,7.2,0.1,8.1,0.1c1.1,0.1,2.2,0.3,3.3,0.6c1.9,0.3,3.8,0.6,5.7,1
		s3.5,1.4,5.5,1.1C205.3,119.1,207,119.5,208.4,120.5z M228.5,102.5c-0.6,2-1.6,3.9-2.8,5.5c-1.3,1.6-2.9,3-4.7,4
		c-1.8,1-3.7,1.8-5.8,2.3c-4.1,1-8.3,1.3-12.5,1c-1,0-2-0.2-3-0.2l-1.5-0.2l-1.5-0.2c-0.3-0.1-0.7-0.2-1-0.4l-0.2-0.1l-0.3-0.1
		l-0.7-0.2c-0.5-0.1-0.9-0.2-1.4-0.4c-1.8-0.4-3.5-0.4-3.3,1c0.1,0.5,0.6,0.9,1.4,1.2c-1.7-0.2-3.4-0.6-5.1-0.8c-4-0.6-8-1.1-12-1.4
		c-1.7-0.1-3.4-1.1-5.1-0.6c-1.6,0.5-3.7-0.2-5.5-0.2l-6.2-0.2c-2.1-0.1-4.1,0-6.2,0c-1,0-2.1,0-3.1,0c-1,0-2.1,0.1-3.1,0.2
		c-0.8,0.1-1.7,0.1-2.5-0.1c-1-0.3-1.6,0.3-2.6,0.5c-1.9,0.3-3.8,0.5-5.7,0.6c-1.9,0.2-3.8,0.4-5.7,0.7c-1.9,0.3-3.7,0.7-5.6,1
		c-0.5,0.1-2.2,0.5-4.6,1.1l-4,1l-4.5,1.3c-6.2,1.8-12.5,3.8-14.5,4.4c-3.5,1-6.6,4-10.5,3.4c-0.9-0.1-1.2,0.1-1.9,0.6
		c-0.8,0.5-1.7,0.8-2.6,0.8l-3.2,0.7c-1.1,0.2-2.1,0.4-3.2,0.6c-4.1,0.8-8.2,1.4-12.3,1.7c-1,0-2,0.1-3.1,0.1s-2,0-3.1-0.1
		c-2-0.1-3.9-0.5-5.7-1.2l-0.6-0.3l-0.3-0.2l-0.2-0.2c-0.2-0.1-0.3-0.3-0.5-0.4l-0.4-0.5c-0.2-0.3-0.4-0.6-0.5-1c0-0.2,0-0.4,0-0.5
		c0-0.1,0-0.3,0-0.4l-0.4-1.2l-2.5-1.9c-0.3-0.2-0.6-0.5-0.9-0.8c0-0.1,0,0,0-0.2c0-0.2,0-0.3,0.1-0.5c0.2-0.8,0.5-1.9,0.7-2.9
		c0.2-1,0.4-2,0.5-3c0-0.2,0.2-0.5,0.3-1l0.1-0.2c0-0.1,0.1-0.2,0.1-0.3c0-0.1,0-0.3,0.1-0.5c0.7,0.7,1.4,1.3,2.2,1.8
		c2.5,1.5,5.4,2.3,8.3,2.3c2.6,0.1,5.1,0,7.7-0.3c0.5-0.1,1,0,1.3-0.4c1.3-1.5,2.9-1.4,4.5-1.8c1.6-0.4,3.4-0.2,4.6-1.4
		c1.5-1.5,3.3-0.3,4.9-1c0.6-0.3,1.2-0.6,1.8-0.9l0.9-0.5c1.3-0.8,0.7-1.2-1.4-1.1c-0.9,0-1.8,0.1-2.6,0.4c-1.8,0.5-3.5,1-5.3,1.4
		c-1.2,0.4-2.3,1-3.2,1.8c-0.4,0.2-0.8,0.3-1.3,0.4c-1,0.2-2.1,0.4-3.2,0.5c-1.1,0.1-2.3,0.3-3.4,0.4c-2.4,0.2-4.8,0.2-7.1-0.2
		c-2.3-0.3-4.5-1.2-6.2-2.7c-0.4-0.4-0.8-0.8-1.1-1.2c-0.2-0.2-0.3-0.4-0.5-0.7c-0.1-0.2-0.3-0.5-0.5-0.7c-0.1-0.2-0.2-0.3-0.4-0.5
		c0-0.1,0-0.1-0.1-0.2c-0.2-0.4-0.5-0.7-0.8-0.7c-0.4-0.4-0.9-0.8-1.5-1.1c-0.9-0.5-1.7-1.1-2.5-1.7c-1.4-1.2-3.1-0.6-4.5-0.1
		l-0.7,0.1c1-1.4,2.1-2.7,3.2-4c1.8-2,3.1-4.5,5.5-6c1.1-0.7,2.4-0.8,3.4-1.3c1.1-0.5,2.2-1.4,3.3-2c0.7-0.4,1.4-0.8,2.1-1.1l2.1-1
		c1.5-0.5,3-1.2,4.5-1.7c1.3-0.4,3.7-1.5,6.1-2.3c2.4-0.8,4.6-1.6,5.3-1.8c1.6-0.5,3.3-0.7,5-1.1c1.4-0.3,2.9-0.6,4.3-0.9
		s2.9-0.5,4.3-0.8c2.8-0.5,5.7-0.3,8.4-1.4c2.3-1,4.9-1.4,7.4-1.2c1.2,0.1,2.4-0.1,3.5-0.6c1.4-0.4,2.8-0.8,4.3-1
		c0.5-0.1,1-0.2,1.5-0.3c0.2,0.1,0.3,0.3,0.5,0.4l0.1-0.5c0.2,0,0.4-0.1,0.5-0.1l0.2-0.7c-0.2-0.1-0.3-0.2-0.5-0.3l0.1-0.5l-0.8,0.1
		c-1-0.8-1.9-1.7-2.6-2.8c-1.5-2.6-3.9-4.7-5.7-7c-1.6-1.9-3.6-3.2-5.2-5c-1.6-1.8-2.4-4.3-4.2-5.9c-1.1-0.9-2.1-1.9-3-2.9
		c0.4,0,0.9,0.1,1.3,0.2c0.3,0.1,0.7,0.3,1,0.4c0.7,0.3,1.4,0.8,2,1.1c1.6,0.9,2.4,1.9,4.2,2.4c0.9,0.2,1.7,0.5,2.5,0.9
		c0.4,0.2,0.8,0.4,1.2,0.6l0.6,0.3l0.3,0.2l0.4-0.3c0,0,0,0,0,0c0.2,0.4,0.5,0.8,0.9,1.1c1.1,1,2.3,1.8,3.6,2.4
		c0.7,0.3,1.4,0.7,2,1.1c0.8,0.5,1.7,0.8,2.6,0.8h1.2c0.7,0,1.5,0,2,0c0.9,0.1,1.7-0.1,2.5-0.5c0.7-0.6,1.7-0.8,2.6-0.7
		c0.8,0,1.7-0.1,2.5-0.3c0.7-0.2,1.4-0.3,2.1-0.3c0.6,0,1.1,0.1,1.6,0.3c0.8,0.2,1.7,0.2,2.5-0.1c1.5-0.6,3-0.8,4.6-0.6
		c0.5,0.1,1,0,1.5-0.2c1.8-0.7,3.7-0.9,5.6-0.5c0.2,0,0.4,0,0.7,0c1.3,0,2.6,0.2,3.8,0.8c0.2,0.1,0.3,0.2,0.4,0.3
		c0.1,0.1,0.3,0.2,0.5,0.3c0.3,0,0.6,0,0.9,0c0.6-0.2,1.3-0.2,1.9,0c0.2,0,0.4,0.1,0.6,0.1c0.7-0.1,1.4,0,2.1,0.2
		c0.8,0.2,1.6,0.4,2.4,0.5c0.7,0.1,1.4,0.1,2.1,0.1c1,0,1.9-0.1,2.8-0.2c0.3,0,0.5,0,0.8,0c1.6,0.3,3.3,0.6,4.8,1
		c0.8,0.2,1.7,0.4,2.6,0.4l5.2,0.2c0.6,0,1.2,0.1,1.8,0.4c0.5,0.2,0.9,0.3,1.4,0.3c1.9,0.2,3.9,0.3,5.9,0.2c1.3,0,2.5,0,3.8,0.3
		c1,0.2,1.9,0.4,3,0.4c0.8,0.1,1.7,0,2.5-0.1c1.1-0.2,2.2-0.3,3.3-0.5c1.1-0.3,2.2-0.4,3.3-0.2h0.1c1,0,1.5-0.1,1.5-0.4
		c0-0.1,0-0.2,0.1-0.3c1.7-0.6,3.5-0.8,5.2-0.7c0.4,0.1,0.8,0.1,1.2,0.1c0.9,0.7,1.8,1.4,2.8,2.2c5.1,4.2,10.2,8.9,11.7,10.3
		c1.3,1.3,2.8,2.5,4.2,3.8c1.4,1.3,2.3,3.1,2.6,5.1c0,0.7,0.3,1.4,1,1.8c0.6,0.8,0.9,1.6,1.1,2.6c0.6,2.1,1,4.4,1.1,6.6
		C229.3,98.4,229.1,100.5,228.5,102.5z"/>
	<path class="st0" d="M47.8,180.8c-0.5,0.1-1,0.1-1.5,0c-0.1,0-0.1,0.1-0.1,0.1c0,0.2,0.1,0.5,0.2,0.6c0.1,0.1,0.1,0.1,0.2,0.1
		c0.3,0.2,1.1-0.2,1.3,0.2c0.1,0.1,0.1,0.2,0.2,0.2c0.1-0.1,0-0.5-0.1-1C48,180.6,47.9,180.7,47.8,180.8z"/>
	<path class="st0" d="M45,181c0,0.1,0,0.2,0,0.3c0.1,0.1,0.1,0.1,0.1,0C45.1,181.2,45.1,181.1,45,181c0,0,0-0.1,0-0.1
		C45,180.9,45,181,45,181z"/>
	<path class="st0" d="M187.8,177.8L187.8,177.8c-0.1-0.3-0.2-0.7-0.2-1c0-0.2-0.2-0.3-0.5-0.4c-0.1-0.1-0.3-0.1-0.5-0.1
		c-0.6-0.1-1.1,0-1.6,0.2c-0.1,0-0.1,0.1-0.2,0.1c-0.1,0.1-0.1,0.2-0.1,0.3c0,0.3,0.1,0.6,0.3,0.9c0.3,0.4,0.4,0.9,0.2,1.4
		c-0.1,0.1-0.1,0.3-0.1,0.4c0.1,0.5,0,1-0.2,1.5c0,0-0.1,0,0,0.1c0.1,0.2,0.5,0.3,0.9,0.3c0.3,0,0.5,0,0.8-0.2
		c0.3-0.2,0.5-0.4,0.5-0.6c0-0.2,0.1-0.4,0.2-0.5c0.4-0.5,0.5-1,0.5-1.6C188,178.3,187.9,178,187.8,177.8z"/>
	<path class="st0" d="M184.5,175.1c0,0.1,0.1,0.1,0.2,0.1c0.2,0,0.4,0,0.5-0.1c0.3-0.3,0.7-0.6,0.7-0.9c0.1-0.4,0.1-0.8,0.1-1.2
		c0-0.2,0-0.4,0.1-0.6c0,0,0,0,0-0.1c0.2-0.3,0.1-0.6-0.2-0.8c-0.3-0.2-0.7-0.4-0.5-0.8c-0.1-0.1-0.1-0.2-0.2-0.3
		c-0.2-0.1-0.5-0.1-0.7,0c-0.4,0.1-0.7,0.3-0.8,0.5c-0.1,0.2-0.1,0.4-0.1,0.6c0.1,0.2,0.2,0.3,0,0.6c0,0,0,0.1,0,0.1
		c-0.1,0.4,0,0.7,0.1,1.1c0.1,0.2,0.2,0.4,0.2,0.6c-0.1,0.2,0.2,0.4,0,0.6C184.2,174.7,184.4,174.9,184.5,175.1z"/>
	<path class="st0" d="M187.6,182.2c-0.2-0.2-0.8-0.3-1.2-0.1c-0.6,0.2-0.9,0.5-0.9,0.8c-0.1,0.3-0.1,0.7,0,1
		c0.1,0.2,0.2,0.4,0.4,0.6c0.2,0.1,0.4,0.2,0.6,0.1c0.4-0.1,0.7-0.3,1-0.5c0.3-0.2,0.4-0.6,0.5-0.9
		C187.8,182.7,187.7,182.4,187.6,182.2z"/>
	<path class="st0" d="M185.3,187.7c0,0.1,0,0.2,0.1,0.2c0.2,0.1,0.5,0.2,0.7,0.1c0.3-0.1,0.7-0.3,0.7-0.4c0-0.1,0.1-0.3,0.1-0.4
		c0-0.3,0.1-0.6,0.3-0.8c0.1-0.2,0.2-0.4,0.3-0.6l-0.1-0.4c0,0,0-0.1,0-0.1c-0.3-0.2-0.6-0.3-0.9-0.2c-0.6,0.1-1.2,0.4-1.1,0.6
		c0,0.2,0,0.4,0.1,0.6c0.1,0.2-0.1,0.4-0.1,0.6C185.4,187.3,185.3,187.5,185.3,187.7z"/>
	<path class="st0" d="M184.2,195.6c-0.1-0.1-0.2-0.1-0.3-0.1c-0.1,0-0.2,0-0.2,0.3c0,0.3,0,0.7,0,1.1s-0.1,0.8-0.3,0.7
		c0,0.1,0,0.1,0,0.2c0,0.1,0,0.2,0,0.2c0,0.2,0.1,0.2,0.1,0.2c0,0,0.1-0.1,0.1-0.1c0,0,0-0.1,0.1-0.1c0-0.1,0,0,0.1-0.1
		s0-0.1,0.2,0.1c0.2,0.2,0.4,0.1,0.5-0.4c0.1-0.4,0.1-0.7,0.1-1.1c0-0.1-0.1-0.3-0.1-0.4C184.4,195.9,184.3,195.7,184.2,195.6z"/>
	<path class="st0" d="M184.2,169.5c-0.1-0.1-0.2-0.2-0.5-0.1c-0.1,0-0.3,0.1-0.4,0.2c-0.3,0.4-0.2,0.6,0.1,0.7
		c0.2,0,0.4-0.1,0.6-0.2C184.2,169.8,184.3,169.7,184.2,169.5z"/>
	<path class="st0" d="M89.4,154.1c-0.4-0.3-1,0.1-1.2,0.6l-0.1,0.2c0,0,0,0,0,0c0,0,0,0,0,0c0,0,0,0,0,0v0.1c-0.4,1.1-0.7,2.3-1,3.5
		v0.1c0,0.1-0.1,0.3-0.1,0.4c0,0.3,0,0.6,0,0.8c0,0.3,0.4,0.8,0.7,0.9c0.3,0,0.7-0.2,0.9-0.4c0.3-0.2,0.6-0.5,0.8-0.9
		c0-0.1,0.1-0.2,0.1-0.3c0-0.1,0,0,0-0.1c0,0-0.1-0.1-0.1-0.1c-0.7-0.5-0.4-0.8-0.3-1.1c0.2-0.7,0.4-1.4,0.6-2.1c0-0.1,0-0.1,0-0.2
		c0-0.1-0.1,0,0-0.6C89.7,154.6,89.6,154.3,89.4,154.1z"/>
</g>
</svg>
