<svg class="shared___style-module__svg___Zpm9z" xmlns="http://www.w3.org/2000/svg" fill="none" width="32" height="32" data-testid="logo-circle"><path d="m28.851 6.46-.095-.125a20.025 20.025 0 0 0-.285-.367l-.084-.098a16.224 16.224 0 0 0-1.433-1.54l-.143-.13-.103-.094-.098-.088-.105-.094-.086-.07a16.166 16.166 0 0 0-2.11-1.536l-.18-.107c-.133-.079-.273-.164-.417-.239l-.063-.034a16.142 16.142 0 0 0-1.994-.916l-.259-.095a8.61 8.61 0 0 0-.49-.163l-.062-.018A16.141 16.141 0 0 0 11.17.738l-.09.03c-.163.053-.326.109-.49.163l-.246.093a15.96 15.96 0 0 0-1.959.9l-.102.055c-.144.078-.285.163-.417.237l-.147.091A16.16 16.16 0 0 0 5.596 3.84l-.11.097-.117.104-.357.327c-.493.467-.956.964-1.386 1.489l-.103.129c-.096.12-.192.242-.287.367l-.05.069a16.005 16.005 0 0 0-.025 19.134l.076.1c.095.125.188.246.288.368l.093.11c.436.533.906 1.038 1.407 1.512l.35.316.12.108.075.06a16.224 16.224 0 0 0 2.137 1.557l.163.098c.137.081.274.163.416.237l.087.044c.645.352 1.314.658 2.001.917l.23.084a6.4 6.4 0 0 0 .49.163l.062.016a16.004 16.004 0 0 0 9.677.01l.091-.03c.154-.048.312-.102.49-.163l.2-.076c.692-.26 1.365-.566 2.015-.918l.098-.054c.14-.077.28-.157.416-.238l.137-.085c.748-.455 1.458-.97 2.122-1.54l.11-.095.104-.095.376-.344c.491-.465.953-.961 1.382-1.484l.102-.126c.096-.12.192-.242.287-.366l.059-.083a16.005 16.005 0 0 0 .03-19.104l-.001.004Zm-2.695 9.797a.386.386 0 0 0 0-.543l-3.29-3.295 5.42-5.426a15.21 15.21 0 0 1 0 17.983l-5.424-5.426 3.294-3.293Zm-21.97-9.87c.318-.378.816-.886 1.143-1.224.112-.116.195-.2.254-.263l5.534 5.539-1.445 1.445-5.486-5.496Zm1.959-2.01c.661-.56 1.369-1.064 2.115-1.505l5.21 5.21-1.81 1.81-5.515-5.514Zm10.388 1.717 4.492-4.487c.693.242 1.367.534 2.018.873l-5.06 5.062-1.45-1.448Zm5.24 13.458-1.445 1.445-1.446-1.447 1.445-1.447 1.446 1.449Zm-1.98 1.99-1.807 1.808-1.446-1.447 1.807-1.806 1.446 1.445Zm-2.349 2.35-1.446 1.443-1.447-1.447 1.447-1.446 1.446 1.45Zm-4.336-4.339L11.662 21l-1.446-1.445 1.446-1.448 1.446 1.446Zm-3.294-3.84a.384.384 0 0 0 0 .544l1.306 1.306-1.446 1.448-3.022-3.02 3.022-3.025 1.445 1.447-1.305 1.3Zm9.076-3.292 1.445-1.445 1.445 1.445-1.445 1.447-1.445-1.447Zm2.478 3.57-1.035 1.035L19.3 15.99l1.035-1.035 1.033 1.035Zm-8.673 0-1.033 1.031-1.035-1.032 1.034-1.033 1.034 1.033Zm1.817-.272a.384.384 0 0 0 0 .543l.944.943-1.806 1.806-1.446-1.447 1.306-1.306a.384.384 0 0 0 0-.542l-1.306-1.306 1.446-1.445 1.809 1.809-.947.945Zm2.158.271-.672.67-.673-.67.673-.672.672.672Zm-2.48-3.566 1.808-1.812 1.808 1.809-1.808 1.81-1.807-1.807Zm3.295 3.838a.382.382 0 0 0 0-.543l-.944-.943 1.809-1.81 1.445 1.445-1.306 1.307a.382.382 0 0 0 0 .544l1.306 1.306-1.445 1.447-1.807-1.806.942-.947Zm.326 3.291-1.813 1.805-1.806-1.808 1.806-1.806 1.813 1.81Zm-1.263-9.482 1.445-1.445 1.8 1.813-1.445 1.445-1.8-1.813Zm-6.326 2.352 1.447-1.446 1.444 1.446-1.452 1.445-1.439-1.445Zm5.242 9.48-1.446 1.447-1.814-1.808 1.446-1.447 1.814 1.808Zm6.725-5.643a.382.382 0 0 0 0-.544l-1.306-1.306 1.445-1.447 3.015 3.027-3.023 3.025-1.446-1.449 1.315-1.306Zm-7.636-8.178 1.445-1.446 1.444 1.446-1.444 1.446-1.445-1.446Zm-2.35 2.357 1.808-1.81 1.445 1.446-1.809 1.804-1.444-1.44Zm8.674 0 5.55-5.552c.496.468.96.968 1.39 1.497l-5.487 5.493-1.453-1.438Zm-2.35-2.352 5.208-5.215c.745.441 1.45.945 2.11 1.506l-5.51 5.514-1.809-1.805Zm-6.738-6.745a15.384 15.384 0 0 1 8.415 0l-4.206 4.21-4.208-4.21ZM8.957 2.485l2.015-.875 4.484 4.485-1.445 1.447-5.054-5.057ZM5.84 15.711a.381.381 0 0 0 0 .542l3.293 3.295-5.423 5.423a15.21 15.21 0 0 1 0-17.983l5.421 5.425-3.29 3.298Zm5.28 5.831-5.55 5.552c-.497-.468-.961-.968-1.391-1.498l5.49-5.492 1.45 1.438Zm2.348 2.35-5.21 5.21a15.297 15.297 0 0 1-2.109-1.505l5.513-5.513 1.806 1.808Zm1.989 1.99-4.488 4.478a15.218 15.218 0 0 1-2.017-.874l5.06-5.062 1.445 1.458Zm4.752 4.753a15.39 15.39 0 0 1-8.42 0l4.21-4.214 4.21 4.215Zm2.837-1.143c-.651.338-1.326.627-2.018.868l-4.487-4.49 1.446-1.446 5.059 5.069Zm2.802-1.897a15.344 15.344 0 0 1-2.109 1.507l-5.21-5.212 1.807-1.807 5.512 5.512Zm1.96-2.008c-.43.529-.895 1.03-1.391 1.497l-5.55-5.552 1.442-1.445 5.498 5.5Z" fill="#000"/></svg>