<svg xmlns:xlink="http://www.w3.org/1999/xlink" width="16" height="16" viewBox="0 0 16 16" fill="none" xmlns="http://www.w3.org/2000/svg" color="currentColor" aria-labelledby="icon55_icon_title" aria-hidden="true"><title id="icon55_icon_title">More</title><path fill-rule="evenodd" clip-rule="evenodd" d="M8.75 1C8.75 0.585786 8.41421 0.25 8 0.25C7.58579 0.25 7.25 0.585786 7.25 1V7.25L1 7.25C0.585787 7.25 0.25 7.58579 0.25 8C0.25 8.41421 0.585786 8.75 1 8.75L7.25 8.75V15C7.25 15.4142 7.58579 15.75 8 15.75C8.41421 15.75 8.75 15.4142 8.75 15V8.75L15 8.75C15.4142 8.75 15.75 8.41422 15.75 8C15.75 7.58579 15.4142 7.25 15 7.25L8.75 7.25V1Z" fill="#25282D"></path></svg>