<svg xmlns="http://www.w3.org/2000/svg" width="96" height="96" xml:space="preserve"><g fill="#25282D"><path d="M95.3 54.8c-.1-1.4-.7-2.7-1.8-3.6l-.1-.1-.3-.2c-.3-.3-.5-.5-.8-.7-.6-.4-1.3-.7-2-.8-.5-.2-1-.3-1.5-.3-.6-.1-1.3 0-1.9.1-.5.1-1 .3-1.5.4-.2.1-.4.1-.6.2-.6.3-1.2.6-1.7.9-.5.3-.9.6-1.4.9-.4.3-.8.7-1.1 1.1-.4.7-.9 1.3-1.3 1.9-.3.4-.7.8-1 1.3-.5.8-1 1.7-1.2 2.6-.1.3-.2.5-.4.7-.4.4-.7.8-1 1.2l-.9 1.7c-.1.2-.1.4-.2.5-.2.5-.5.9-.8 1.3-.5.6-.8 1.2-1 1.9-.1.2-.2.4-.2.5-.1.2-.2.4-.3.5-.3-.6-.7-1.3-1-1.9-1.9-3.7-4.2-8.4-5.7-11.8s-2.8-6.1-4.1-8.8L60 41.6c.7-.4 1.4-.9 2-1.4l2.5-1.9c.8-.6 1.7-1.1 2.7-1.5 1.6-.6 3.2-1.2 4.8-1.6 1.6-.5 3-.8 4.5-1.1l2.4-.6c1.7-.6 3.3-1.3 4.8-2.1l.8-.5c.2-.2.5-.4.7-.5.5-.4.9-.7 1.4-1.2.5-.4.9-.9 1.3-1.4.7-.6 1.3-1.3 1.9-2 1.7-2 3-4.3 3.7-6.9l.7-2.1c.4-1.4.7-2.8.8-4.2.2-1.5 0-3-.5-4.4C93.8 7.5 93 6.6 92 6c-1.7-.9-3.7-1.1-5.5-.4-.4.2-.9.3-1.3.6-.4.2-.8.4-1.1.7-.7.5-1.4 1-2 1.5-1.3.9-2.5 2-3.4 3.4-.1.1-.2.3-.4.4-1 1-1.9 2-2.9 2.9-1.5 1.6-3 3.4-4.3 5.2-.4.6-.9 1.1-1.5 1.5-1.2 1-2.7 2.4-4.2 3.7-1.1.9-2.2 1.9-3.4 2.7 0 0-.5.4-1.1.8l-1.7 1.2c-.9.7-1.8 1.4-2.6 2.2-.8-1.2-1.7-2.3-2.7-3.3-.7-.7-1.4-1.3-2.1-1.9-.6-.6-1.1-1.2-1.6-1.8-1.8-2.5-3.5-5.1-5-7.8-1-1.8-1.9-3.7-2.6-5.7-.6-2.1-1.7-4-3.1-5.7-.8-.8-1.6-1.5-2.6-2s-2.1-.8-3.2-.9c-1.1-.1-2.2 0-3.3.3-.5.2-1.1.3-1.6.6s-1 .5-1.5.9c-1.7 1.3-3 3-3.7 5.1-.6 2.1-.6 4.3.2 6.3.4 1 .9 1.9 1.6 2.8.7.8 1.5 1.5 2.4 2.1 1.7 1 3.5 1.9 5.3 2.8 1.9.9 3.6 2.1 5.2 3.4 1.5 1.3 3 2.7 4.2 4.3 1 1.1 1.9 2.4 2.7 3.7.3.6.6 1.2.8 1.8.1.3.1.6.2 1s.2.8.3 1.1c0 .1 0 .1.1.2l-.2.2-.2.2-1.8 1.8-8.2 8.4c-.6.7-1.3 1.3-1.9 2l-.2-.4c-.4-.9-.9-1.8-1.5-2.6-1.2-1.6-2.6-3-4.2-4.2-.7-.5-1.4-.9-2.1-1.3 0-.2.1-.4.1-.6.1-.9.2-1.7.2-2.6.1-1.7-.5-3.4-1.5-4.8-1.2-1.7-2.8-3.1-4.6-4.1-.5-.3-1.1-.5-1.6-.8-1.5-.7-2.9-1.2-4.5-1.8-2.1-.8-4.4-1.2-6.7-1.2h-4c-1.8.2-2.4.8-2.3 1.1h1.4l2.6-.1h.9c1.8.2 3.5.5 5.4.8.9.2 1.7.4 2.5.7.9.3 1.8.7 2.7 1.1 1.3.6 2.5 1.2 3.7 1.8.6.3 1.1.7 1.6 1.1.8.7 1.4 1.4 1.9 2.3.4.8.8 1.6 1 2.5.2.9.3 1.8.3 2.7 0 .3-.1.6-.1.9-.1-.1-.3-.1-.4-.2-1.6-.7-3.4-1.2-5.2-1.4-1.5-.2-3.1-.1-4.6.1-.6.1-1.2.2-1.8.4-2 .6-3.6 1.8-4.8 3.5-.5.7-.8 1.5-1 2.3-.2.9-.2 1.8 0 2.6.2.9.7 1.6 1.4 2.2.6.5 1.3.9 2.1 1.1 2.4.5 4.8.4 7.1-.4 1.6-.5 3.1-1.3 4.3-2.4 1.8-1.5 3-3.4 3.7-5.6 1.2.7 2.4 1.6 3.4 2.6 1.3 1.3 2.5 2.8 3.4 4.5.2.3.3.6.5 1-4.5 4.6-8.7 9.1-11.8 12.6l-3.6 4c-1.2 1.3-2.3 2.7-3.3 4.2-1.1 1.4-2 2.9-2.9 4.4-1 1.5-1.6 3.2-2 5-.1.5-.1 1 0 1.5 0 .3.1.5.2.8l.1.2c.3 0 .8.1.7.1l.1-.1.3-.2 2.1-1.9c6.2-5.5 12-11 17.9-16.9 1.5-1.5 3.3-3.3 5.1-5 .5 2.5 1.2 5 2.1 7.4.6 1.4 1.3 2.7 2.2 3.8.5.5.8.9 1.1 1.2.3.2.6.4.9.5.4.2.8.4 1.2.7l.8.5c.3.1.6.2.9.4.6.2 1 .3 1 .2s-.3-.5-1-1c-.1-.1-.5-.2-.7-.4-.5-.3-.9-.6-1.4-.9-.8-.6-1.5-1.4-2.1-2.2l-.9-1.5-.4-.8-.3-.8c-.5-1.2-.8-2.5-1.2-3.8-.2-.7-.4-1.3-.5-2-.1-.8-.3-1.6-.5-2.4 1.1-1 2.2-2 3.2-2.8 2.9-2.4 5-4.5 7.1-6.6l3.1-3.2.7-.8.1-.1.1-.2c.1-.2 0-.4-.2-.6-.3-.1-.6-.1-.8.1-.5.6-1.1 1.2-1.7 1.8L45 52.4c-2.5 2.4-5.1 4.9-7.7 7.3-.5-2.1-1.1-4.1-1.9-6.1L46.3 42l1.1-1.1c.4.8 1 1.6 1.7 2.2.3.2.6.5.9.6h.2c.1 0 .2.1.4.1h.2c-.1.1-.1.2-.1.4l.2.5.1.3 1.2 2.3 5.4 10.3c3.3 6.1 6.6 12.3 9.2 17.1-.2 0-.3.1-.4.2-.1.1-.1.1-.1.2l-.3.6c-.2.4-.5.7-.9 1-.8.8-1.7 1.4-2.7 1.8-1.1.5-2.3.8-3.6.8-1.2 0-2.5-.1-3.7-.3H55c-.3-.1-.6 0-.8.2-.1.1-.2.3-.2.4 0 .1.1.2.2.2l.7.2c1.4.5 2.9.5 4.4.2.5-.2 1.1-.3 1.6-.4.3-.1.5-.1.8-.1.3-.1.5-.1.8-.2 1-.2 2-.7 2.6-1.5l.6-.6c.2-.2.4-.4.6-.5.5-.4.9-.9 1-1.6v-.1c.3.5.5.9.8 1.3 3 5.2 5.9 10.5 8.7 15.9l1 1.9v.1l.6.1.1-.1c.1-.1.1-.2.2-.2.1-.2.2-.3.3-.5.2-.3.3-.7.4-1.1.4-1.4.5-2.9.5-4.3-.3-4.2-1.3-8.2-3.1-12-1.2-2.7-2.6-5.4-3.9-8.1.2-.1.5-.4.7-.7.1-.1.1-.2.2-.2.4-.5.8-1 1.1-1.5.1-.3.3-.5.5-.8.2-.3.4-.5.7-.8.3-.4.5-.8.6-1.3.1-.2.1-.4.3-.6l.6-.9c.2-.2.4-.5.5-.8l.4-1c.2-.5.4-1 .7-1.4.2-.3.5-.5.7-.8.3-.3.4-.6.5-1 .1-.3.2-.6.5-.9.2-.3.4-.5.6-.8.1-.2.3-.4.4-.5.4-.3.8-.7 1.2-1.2.3-.3.6-.6.9-.8.2-.2.5-.4.8-.4l.6-.3c.1-.1.3-.2.4-.2.5-.1 1.1-.2 1.6-.4h.1c.5-.1 1-.1 1.4-.1.8 0 1.5.1 2.2.4.5.2 1 .5 1.5.9.2.2.4.3.5.5l.3.3c.5.3.7.8.8 1.4.1.8.1 1.7 0 2.5-.1.4-.2.9-.4 1.3s-.2.6-.2.8c0 .2 0 .3-.1.4l-.3.6c-.1.2-.1.3 0 .4.2.1.5.1.7-.1.1 0 .1-.1.2-.2.1-.2.2-.3.3-.5.2-.3.4-.7.6-1 .2-.4.4-.8.5-1.3.2-.5.3-1 .2-1.6-.4-.2-.4-.5-.4-.8zM24 46.4c-.5.8-1.2 1.6-1.9 2.4-.8.8-1.6 1.4-2.4 2.1-.7.6-1.6 1.1-2.6 1.3-.9.3-1.9.4-2.8.5-.7.1-1.3 0-2-.1-1.5-.2-2.8-1.2-3.5-2.5-.5-2 .3-4.1 1.9-5.3.6-.4 1.1-.8 1.7-1.1.4-.2.8-.4 1.3-.5 1.7-.3 3.4-.4 5.1-.3.1 0 .3 0 .4.1 1.5.2 2.9.6 4.2 1.1.4.2.9.4 1.3.6-.1.5-.4 1.1-.7 1.7zM34.4 56c.7 1.6 1.2 3.2 1.5 4.8L15.4 80.3l-3.5 3.3-.9.9v-.9c.4-2.2 1.3-4.2 2.6-6.1 1.2-1.9 2.6-3.8 4.1-5.5.7-.9 1.5-1.7 2.3-2.5l2.4-2.5 4.8-5 6.9-7.2c.1.5.2.9.3 1.2zm31.7-28.6c1.6-1.5 3-2.8 4.5-4.3 1.1-1.1 2.2-2.3 3.2-3.5 1.7-2.2 3.6-4.2 5.5-6.2l3.1-2.9c1.1-1 2.2-1.9 3.4-2.7l.4-.3.4-.2c.4-.1.7-.2 1.1-.3.6-.1 1.3-.1 1.9 0 1.1.2 2 .7 2.8 1.6.7 1 1 2.2.9 3.4-.1 2.1-.5 4.1-1.1 6.1-.5 2-1.4 3.8-2.6 5.5-1.2 1.6-2.4 3.2-3.9 4.6-1.6 1.6-3.5 2.8-5.6 3.6-.9.4-1.9.6-2.8.9-2 .7-4.1 1.2-6.3 1.7l-.4.1c-1.7.5-3.1 1.1-5 1.8-.2.1-.3.2-.5.3-.9.6-1.7 1.2-2.5 1.8l-2.3 2-.2.2c.5-1.4 1-2.9 1.3-4.4.2-1.3.6-2.5 1.2-3.6.2-.4.4-.7.5-1.1l.1-.3c0-.1 0-.1.1-.2v-.2c0-.3 0-.6-.2-.9 0 0 0-.1-.1-.1 1.2-.7 2.2-1.5 3.1-2.4zm-6.2 4.2c.8-.4 1.6-.8 2.4-1.3.1.1.1.1.1.2s0 .3-.1.6l-.2.6-2.9 8.8-.1.2-.3-.7v-.2c.1-1 .1-2.1-.1-3.1-.2-1.1-.5-2.1-1-3-.2-.4-.4-.7-.7-1.1 1-.2 2-.6 2.9-1zm-10.5 9.5c-.5-.7-.9-1.4-1.1-2.2l-.3-1.2-.3-1.5c-.7-1.8-1.8-3.5-3.1-4.8-1.2-1.4-2.5-2.7-3.9-4-1.7-1.6-3.6-3-5.6-4.2-2-1.2-4.1-2.2-5.9-3.4-1.8-1.2-3-3-3.6-5-.5-2-.3-4.2.8-6 .5-.9 1.2-1.7 1.9-2.4.2-.2.4-.3.6-.5l.7-.4c.2-.1.5-.2.8-.3.3-.1.5-.2.8-.3 2.2-.7 4.6-.4 6.5 1 2 1.6 3.4 3.7 4 6.2.9 2.6 2 5.2 3.3 7.6 1.3 2.4 2.8 4.8 4.5 7 .4.6.9 1.1 1.4 1.6.5.5 1 .9 1.5 1.3.9.9 1.8 1.8 2.5 2.8.7.9 1.3 2 1.8 3.1.4 1.1.5 2.2.5 3.4 0 1.1-.3 2.1-1 2.9-.6.7-1.4 1.2-2.4 1.3-.4.1-.8.1-1.2 0-.4-.1-.9 0-1.3.2l-.1.1H51c.1-.1.1-.2.2-.3.1-.3-.1-.7-.3-.9-.6-.1-1.1-.6-1.5-1.1zm26.2 36.5c.9 2.2 1.7 4.4 2.2 6.8.5 2 .7 4 .5 6 0 .8-.2 1.7-.5 2.5l-.3-.9L53 45.7l-.4-.7h1c.5 0 1-.2 1.5-.3 1-.3 1.9-1 2.6-1.9.3-.4.5-.8.7-1.3.2.3.3.6.5.9.9 1.7 1.8 3.4 2.6 5.1 1.7 3.4 3.3 7 5 10.4l6.2 13c.9 2.3 2.1 4.5 2.9 6.7z"/><path d="M72.8 28.5c1 .6 2.1.7 3.2.5 2-.3 3.9-1.1 5.6-2.3 1.8-1.2 3.4-2.7 4.7-4.4.7-1 1.2-2 1.6-3.2.4-1.1.7-2.3.9-3.5.1-.7.1-1.3 0-2-.1-.4-.3-.7-.6-1-.2-.1-.3-.2-.5-.3-.2-.1-.3-.2-.5-.2-.7-.1-1.4 0-2 .3-.6.2-1.1.5-1.6.9-1.7 1.3-3.3 2.7-4.7 4.3l-.4.5c-.2.2-.3.4-.3.7-.2 0-.4.1-.5.2-.2.2-.4.5-.6.7l-1.5 1.8c-1.1 1.2-2.1 2.4-3 3.7-.3.5-.5 1-.6 1.5-.1.3 0 .7.1 1 .2.4.4.7.7.8zm.3-2.2c.4-.7.9-1.4 1.5-2 .9-.9 1.8-1.9 2.6-2.9.4-.5.7-1 1.1-1.4l.2-.3v-.1c.1 0 .3 0 .4-.1l.5-.6c1.6-1.9 3.4-3.5 5.4-4.9.5-.3 1-.5 1.5-.6h.6c.2 0 .3.1.5.2.2.4.3.8.3 1.2 0 .5 0 .9-.1 1.4-.2 1.8-.7 3.5-1.6 5-1 1.5-2.2 2.8-3.7 3.8-1.3.9-2.7 1.7-4.2 2.3-.7.3-1.5.5-2.2.7-.7.2-1.5.1-2.2 0-.2-.1-.3-.1-.5-.2l-.3-.3c0-.5 0-.9.2-1.2zM52.6 40.5c.6.1 1.3-.2 1.7-.7.5-.8.7-1.7.6-2.6-.2-.9-1.1-1.5-2-1.3h-.1c-.4.1-.9.3-1.3.5-.5.2-.8.8-.7 1.4 0 .1 0 .2.1.3 0 .2.2.2.4.2s.3-.2.4-.4v-.1c0-.1 0-.2.1-.4s.3-.4.6-.5c.6-.3 1.3-.1 1.7.5.4.6.3 1.4-.3 1.8-.6.4-1.4.3-1.8-.3l-.1-.1c-.1-.2-.3-.4-.5-.5-.1-.1-.3-.1-.5-.1-.1 0-.2.2-.2.3.1.3.2.6.3.8.2.7.9 1.1 1.6 1.2zM10 85.8c-.1 0-.2 0 0 0zM36.8 9.9c-1.7-1.8-4.6-1.9-6.4-.1-1.8 1.7-1.9 4.6-.1 6.4.7.7 1.7 1.2 2.7 1.4.7.1 1.4 0 2-.2.6-.2 1.2-.5 1.7-1 .4-.4.8-.9 1.1-1.5 0-.1.1-.2.1-.3 0-.1.1-.1.1-.2.1-.2.1-.4.1-.6 0-.5 0-1-.1-1.4-.1-.9-.6-1.8-1.2-2.5zm-.9 5.7c-.5.4-1 .6-1.6.8-1.1.2-2.2 0-3.2-.6-1.5-1-1.9-3-.9-4.5.1-.1.2-.2.2-.3 1.1-1.2 2.7-1.8 4.3-1.4.9.2 1.6.8 1.9 1.7.3.8.4 1.6.4 2.4-.1.2-.1.4-.2.6-.1.4-.4.9-.9 1.3z"/></g></svg>