<svg width="24" height="24" fill="none" xmlns="http://www.w3.org/2000/svg" aria-labelledby="twitter-title"><path d="M21.533 7.11c.015.213.015.426.015.64 0 6.505-4.949 14-13.995 14-2.787 0-5.375-.808-7.553-2.209.396.046.777.061 1.188.061 2.3 0 4.416-.777 6.106-2.102a4.928 4.928 0 0 1-4.599-3.413c.305.046.61.076.93.076a5.2 5.2 0 0 0 1.294-.167 4.92 4.92 0 0 1-3.944-4.83v-.06a4.952 4.952 0 0 0 2.223.624 4.918 4.918 0 0 1-2.193-4.098c0-.914.244-1.752.67-2.483a13.98 13.98 0 0 0 10.142 5.149 5.559 5.559 0 0 1-.122-1.127 4.918 4.918 0 0 1 4.92-4.921c1.415 0 2.695.594 3.593 1.554a9.682 9.682 0 0 0 3.122-1.188 4.907 4.907 0 0 1-2.162 2.711c.99-.106 1.949-.38 2.832-.761a10.577 10.577 0 0 1-2.467 2.544Z" fill="#25282D"/></svg>